<?xml version="1.0" encoding="utf-8"?>
<!-- Generator: Adobe Illustrator 19.0.0, SVG Export Plug-In . SVG Version: 6.00 Build 0)  -->
<svg version="1.1" id="Layer_1" xmlns="http://www.w3.org/2000/svg" xmlns:xlink="http://www.w3.org/1999/xlink" x="0px" y="0px"
	 viewBox="12.4 172.2 197.2 30.3" style="enable-background:new 12.4 172.2 197.2 30.3;" xml:space="preserve">
<style type="text/css">
	.st0{fill:#E31837;}
	.st1{fill:#FFFFFF;}
	.st2{fill:#ED174C;}
</style>
<g>
	<rect x="12.4" y="172.2" class="st0" width="197.2" height="30.3"/>
	<path class="st1" d="M186.1,190.4c0.8,3.2,3.6,4.6,6.7,4.6c3.1,0,6.7-1.4,6.7-5c0-1.6-0.8-3-2.2-3.8c-1.3-0.7-2.8-0.9-4.2-1.2
		c-0.6-0.1-1.7-0.3-1.7-1.1s0.9-1,1.5-1c1.2,0,2,0.4,2.4,1.5l3.8-1.2c-0.9-2.6-3.4-3.7-6-3.7c-1.5,0-3.1,0.3-4.3,1.1
		s-1.9,2.3-1.9,3.7c0,3.6,3.3,4.3,6.1,4.9c0.7,0.1,1.8,0.3,1.8,1.2c0,0.8-1.2,0.9-1.8,0.9c-1.3,0-2.3-0.5-2.7-1.8L186.1,190.4"/>
	<polyline class="st1" points="181.6,179.8 175.5,179.8 173.5,187.7 171.3,179.8 165.3,179.8 165.3,194.7 168.7,194.7 168.7,184.1 
		171.6,194.7 174.5,194.7 177.2,184.1 177.3,194.7 181.6,194.7 181.6,179.8 	"/>
	<polyline class="st1" points="159.7,191.2 152.9,191.2 152.9,188.7 158.4,188.7 158.4,185.4 152.9,185.4 152.9,183.2 159.7,183.2 
		159.7,179.8 148.4,179.8 148.4,194.7 159.7,194.7 159.7,191.2 	"/>
	<polyline class="st1" points="140.3,183.4 143.4,183.4 143.4,179.8 132.9,179.8 132.9,183.4 136,183.4 136,194.7 140.3,194.7 
		140.3,183.4 	"/>
	<path class="st1" d="M115.3,190.4c0.8,3.2,3.6,4.6,6.7,4.6c3.1,0,6.7-1.4,6.7-5c0-1.6-0.8-3-2.2-3.8c-1.3-0.7-2.8-0.9-4.2-1.2
		c-0.6-0.1-1.7-0.3-1.7-1.1s0.9-1,1.5-1c1.2,0,2,0.4,2.4,1.5l3.8-1.2c-0.9-2.6-3.4-3.7-6-3.7c-1.5,0-3.1,0.3-4.3,1.1
		s-1.9,2.3-1.9,3.7c0,3.6,3.3,4.3,6.1,4.9c0.7,0.1,1.8,0.3,1.8,1.2c0,0.8-1.2,0.9-1.8,0.9c-1.3,0-2.3-0.5-2.7-1.8L115.3,190.4"/>
	<polyline class="st1" points="112.7,179.8 108.7,179.8 106.2,184.7 103.6,179.8 98.5,179.8 103.6,188.4 103.6,194.7 108,194.7 
		108,188.4 112.7,179.8 	"/>
	<path class="st1" d="M82,190.4c0.8,3.2,3.6,4.6,6.7,4.6s6.7-1.4,6.7-5c0-1.6-0.8-3-2.2-3.8c-1.3-0.7-2.8-0.9-4.2-1.2
		c-0.6-0.1-1.7-0.3-1.7-1.1s0.9-1,1.5-1c1.2,0,2,0.4,2.4,1.5l3.8-1.2c-0.9-2.6-3.4-3.7-6-3.7c-1.5,0-3.1,0.3-4.3,1.1
		c-1.2,0.8-1.9,2.3-1.9,3.7c0,3.6,3.3,4.3,6.1,4.9c0.7,0.1,1.8,0.3,1.8,1.2c0,0.8-1.2,0.9-1.8,0.9c-1.3,0-2.3-0.5-2.7-1.8L82,190.4"
		/>
	<polyline class="st1" points="70.6,191.2 63.9,191.2 63.9,188.7 69.3,188.7 69.3,185.4 63.9,185.4 63.9,183.2 70.6,183.2 
		70.6,179.8 59.4,179.8 59.4,194.7 70.6,194.7 70.6,191.2 	"/>
	<polyline class="st1" points="49.8,194.7 54.5,194.7 49.8,179.8 45,179.8 40.4,194.7 44.1,194.7 45,191.8 49,191.8 49.8,194.7 	"/>
	<path class="st1" d="M23.7,194.7h6.8c1.4,0,3,0,4.1-0.9c1.1-0.8,1.5-2.2,1.5-3.5c0-1.8-1.2-3.1-2.9-3.4c1.5-0.4,2.5-1.7,2.5-3.3
		c0-1.2-0.6-2.4-1.6-3.2c-0.9-0.7-2.1-0.8-3.2-0.8h-7.3L23.7,194.7"/>
	<polyline class="st2" points="45.8,188.5 47,184.2 48.2,188.5 45.8,188.5 	"/>
	<path class="st2" d="M27.9,185.5V183h1.8c0.9,0,1.8,0.2,1.8,1.3c0,0.3-0.2,0.7-0.4,1c-0.3,0.3-0.8,0.3-1.3,0.3h-1.9"/>
	<path class="st2" d="M27.9,191.4v-2.7h1.8c0.4,0,0.9,0,1.3,0.2s0.7,0.7,0.7,1.2c0,0.4-0.2,0.8-0.5,1c-0.4,0.3-0.9,0.3-1.3,0.3H27.9
		"/>
</g>
</svg>
