<?xml version="1.0" encoding="utf-8"?>
<!-- Generator: Adobe Illustrator 19.0.0, SVG Export Plug-In . SVG Version: 6.00 Build 0)  -->
<svg version="1.1" id="Layer_1" xmlns="http://www.w3.org/2000/svg" xmlns:xlink="http://www.w3.org/1999/xlink" x="0px" y="0px"
	 viewBox="39 69.3 438.1 222.7" style="enable-background:new 39 69.3 438.1 222.7;" xml:space="preserve">
<style type="text/css">
	.st0{fill:#BE2526;stroke:#FFFFFF;stroke-width:4;stroke-miterlimit:10;}
	.st1{fill:#BE2526;}
</style>
<g id="Layer_1_1_">
</g>
<g id="Layer_2">
	<path class="st0" d="M100.1,293.6"/>
	<g>
		<path class="st1" d="M300.8,175.9c-0.5,5.2,7.8,5.9,7.8,5.9l-2.3-26.8C306.3,155,301.3,170.6,300.8,175.9z"/>
		
			<ellipse transform="matrix(6.127587e-003 1 -1 6.127587e-003 499.098 4.0215)" class="st1" cx="247.5" cy="253.1" rx="5.1" ry="3.6"/>
		<path class="st1" d="M342.5,248.3c-2.9,0-5.2,5.7-5.2,12.6c0,6.9,2.4,12.6,5.3,12.5c2.9,0,5.2-5.7,5.2-12.6
			C347.8,253.9,345.4,248.3,342.5,248.3z"/>
		<path class="st1" d="M162.7,248.8c-2.9,0-5.2,5.7-5.2,12.6c0,6.9,2.4,12.6,5.3,12.5c2.9,0,5.2-5.7,5.2-12.6
			C168,254.4,165.6,248.7,162.7,248.8z"/>
		<path class="st1" d="M176.5,272.9c0,0,0.1,0.2,0.4-0.4L176.5,272.9z"/>
		<path class="st1" d="M356.4,272.8c0,0,0.1,0.2,0.4-0.4L356.4,272.8z"/>
		<path class="st1" d="M205,182.8c0,0,8.3,1.3,9-3.9s-0.4-21.6-0.4-21.6L205,182.8z"/>
		<path class="st1" d="M380.2,147.7V93.2h-33V127l-89-55.9l0.2,0.2L39.3,208.9h62.8v84.9l312.5-0.2v-84.9h62.8L380.2,147.7z
			 M149,256.6c-0.2,0.2-0.9,1.2-1.4,0.8c-1.4-0.7-3.3-9.7-8.1-8.4c-4.8,1.3-6.5,23.7-1.2,23.6c5.4-0.1,6.5-6.6,9.2-5.9
			c2.7,0.6,1,2.3-0.4,4.7s-11.1,16.9-16.4-0.2c-5.4-17.2,4.8-28.3,10.2-28c5.4,0.2,4.6,1.4,6.3,0.5
			C148.8,242.7,149.2,256.4,149,256.6z M240.4,139.8c0,0-0.1-13,5-13.6c0,0,11.4-2.3,13.6,4.8c2.2,7.1,9.9,44.2,9.9,44.2l3.5-28.2
			c0,0,0.4-7-4.1-8.5c0,0-2.3-12.1,5.1-11.1c7.4,1.1,11.4,0.8,9.2,10.5c0,0-4.2,5.7-4.6,12.7l-4.5,71.8c0,0-5.6,3.1-8.9-4
			c-3.3-7.2-14.9-66.9-14.9-66.9l-2.7,54.8c0,0,0.2,6.8,4.1,6.4s-1.3,10.8-1.3,10.8l-37.2,0.4l0.3-10.5c0,0,6.6-7.1,5.4-13.4
			c-1.2-6.3-6.4-9.6-16.1-5.6c0,0-6.7,16.3-2.1,18.3s5.5,9.5,1.6,11.8s-21.6,4.3-15.1-10.2c0,0,4.1-4.2,6.5-11.5
			c2.4-7.2,19.4-65.6,19.4-65.6s8.4-7.9,9.4-3.3c1,4.6,5.4,75,12,78.4s8.1-27.2,8.1-27.2S247.3,141.8,240.4,139.8z M311.3,198.2
			c-0.6-6.3-6.4-9.6-16.1-5.6c0,0-6.7,16.3-2.1,18.3s5.5,9.5,1.6,11.8s-21.6,4.3-15.1-10.2c0,0,4.1-4.2,6.5-11.5
			c2.4-7.2,19.4-65.6,19.4-65.6s9.2-0.7,10.1,3.9c1,4.6,4.6,67.8,11.3,71.2l0.3,11.4l-21.6,0.1l0.3-10.5
			C305.9,211.5,312.7,212.4,311.3,198.2z M156.2,212.6c6.6,14.3,21.7-7.8,22.6-13.2s6.7,3.6,6.7,3.6s-2.5,27.9-24.1,24.9
			c-21.5-3-21.5-25.9-20.3-34.9c2.2-16.9,17.5-36.8,28.5-36.1s5.3-6.8,10.3-7.3s4.2,9.4,5.5,18.3s-3.4,10-3.4,10
			c-6.7-0.6-0.6-11.2-8.7-12.3C159.9,163.9,149.6,198.3,156.2,212.6z M162.7,279.4c-6.3,0-11.4-8.2-11.5-18.4
			c-0.1-10.2,5-18.5,11.3-18.6c6.3,0,11.4,8.2,11.5,18.4C174.1,271,169,279.3,162.7,279.4z M196.3,247.4c-0.3,0.5-3,10.4-2.8,20.3
			c0.1,9.9-1.4,11.4-2.3,10.4c-0.8-1.1-1.3-0.4-3.5-6.9c-2.1-6.1-2.9-7.9-4.5-13.5c-1.4-5.2-2.1-2.3-2.1-2.3l-1.1,15.9
			c0,0,0,0,1.4,2.1c1.4,2.1,2.6,5.8-3.6,4.7c-5.3-0.9-2.1-4.5-1.1-5.6c0.3-0.7,0.7-2.4,1.3-6.5c1.1-7.7-0.1-16.8-0.1-16.8l0,0
			c-1.8-8.1,8.3-3.9,8.3-3.9l4,16l0.7-3.3l-0.3,0.7c2.2-4.9,0.1-11.4,0.1-11.5c0,0.2-0.1,0.3-0.1,0.5l0.1-0.5l0,0
			c1-4.5,2.9-3.2,6.2-2.4C200.6,245.6,196.6,246.9,196.3,247.4z M200,278.1c-3,0.9,0.9-5.1-1.1-6.5c-2.1-1.5-2-7.5,0-5.9
			c2,1.5,3.2,8.2,6.6,6.9c3.4-1.3,4.4-4,2-6s-5.7-5.1-7.5-9.8c-1.8-4.7,1-11.2,4.7-12.7c3.7-1.6,4.3,2.8,4.8,2.3s1.7-2.9,1.7-2.9
			c4.5-2.3,0.8,11.4,0.8,11.4s-0.6-4.3-3.5-5.9s-8.8,3-3,4.4s9.5,10.7,9.5,10.7C214.9,281.9,203,277.2,200,278.1z M232.3,250.3
			l0.3,0.3c-4.6-5.5-5.2,17.7-5.2,17.7c5.2,8.9,0.2,12.8-5.3,9.5s-0.3-5.4-0.3-5.4s-0.2-13.3,1.5-17.8s-0.7-5.6-1.6-5.3
			c-0.9,0.4-1.9,5.6-4.8,5.6c-2.9,0.1,2.6-10.8,2.6-10.8l11.6-0.3c4.5-1.7,3.9,3.3,3.9,3.2c0,0,2.4,6,0.8,7.6
			C234.1,256.5,232.3,250.3,232.3,250.3z M256.2,277.9c-1.5-0.2-3.8-0.5-5-2.2s-7.3-13.2-7.3-13.2s0.1,7.9,0,8.7s1.3,2.4,1.3,2.4
			c1.8,3-2.1,5.1-7.1,4.4c-5-0.6-0.7-4.5-0.5-5.5s1.6-16,2.4-20c0.8-3.9-2.6-4.5-2.4-7.3c0.2-2.9,4.4-1.7,4.4-1.7
			c10.1,0,13.7,0.6,14.6,7.2c0.9,6.6-4.9,12.2-4.7,13.7c0.2,1.4,3.2,6.2,4.3,8.5C257.3,275.3,257.8,278.1,256.2,277.9z M277.6,250
			c-1.4,1.7,2.6,22.1-6.8,27c-9.5,4.9-10.6-10.7-8.9-28.4c0,0-4-4.9,2.8-4.6s7.6,0.1,3,4.1c0,0-4.3,22.2-0.2,23.3
			c3.3,0.9,6.6,4.6,7.5-19.5l-0.5-3.9c0,0-3.6-5.3,2.7-3.9C283.4,245.5,279,248.3,277.6,250z M299.3,256.6c-0.2,0.2-0.9,1.2-1.4,0.8
			c-1.4-0.7-3.3-9.7-8.1-8.4c-4.8,1.3-6.5,23.7-1.2,23.6c5.4-0.1,6.5-6.6,9.2-5.9c2.7,0.6,1,2.3-0.4,4.7s-11.1,16.9-16.4-0.3
			c-5.4-17.2,4.8-28.3,10.2-28c5.4,0.3,4.6,1.4,6.3,0.5C299.1,242.6,299.5,256.4,299.3,256.6z M317.3,249.8l0.3,0.3
			c-4.6-5.5-5.2,17.7-5.2,17.7c5.2,8.9,0.2,12.8-5.3,9.5s-0.3-5.4-0.3-5.4s-0.2-13.3,1.5-17.8s-0.7-5.6-1.6-5.3
			c-0.9,0.4-1.9,5.6-4.7,5.7c-2.9,0.1,2.6-10.8,2.6-10.8l11.6-0.3c4.5-1.7,3.9,3.3,3.9,3.2c0,0,2.4,6,0.8,7.6
			C319.2,256,317.3,249.8,317.3,249.8z M324.7,276.4c-8.7-1.4-2.3-5-2.2-5.2c0.1-0.2,1.6-20.2,1.6-20.2c-1.3-1.4-4.2-6.5,1.4-7.2
			c11.9-1.3,3.4,5.1,3.4,5.1l-1.7,23C331.1,271.9,329.3,277.1,324.7,276.4z M356.6,215.3c0,0,7.7-3.1,12.6-7.4l5.8,6.7
			c-16,21.1-28.4,11.4-32.3,8.2c0,0-26.1-29.5-1.8-66.9c0,0,7.9-6.3,20.6,12.4c0,0,8.1-8.4,8.7,23.3c0,0-3.6,0.5-5-4.5
			c-1.5-5-11-30.4-19.8-15.9C336.7,185.7,343.1,221.9,356.6,215.3z M342.5,278.9c-6.3,0-11.4-8.2-11.5-18.4
			c-0.1-10.2,5-18.5,11.3-18.6c6.3,0,11.4,8.2,11.5,18.4C353.8,270.5,348.8,278.9,342.5,278.9z M376.2,247.3
			c-0.3,0.5-3,10.4-2.8,20.3c0.1,9.9-1.4,11.4-2.2,10.4c-0.8-1.1-1.3-0.4-3.5-6.9c-2.1-6.1-2.9-7.9-4.5-13.5
			c-1.4-5.2-2.1-2.3-2.1-2.3l-1.1,15.9c0,0,0,0,1.4,2.1c1.4,2.1,2.6,5.8-3.6,4.7c-5.3-0.9-2.1-4.5-1.1-5.6c0.3-0.7,0.7-2.4,1.3-6.5
			c1.1-7.7-0.1-16.8-0.1-16.8l0,0c-1.8-8.1,8.3-3.9,8.3-3.9l4,16l0.7-3.3l-0.3,0.7c2.2-4.9,0.1-11.4,0.1-11.5c0,0.2-0.1,0.3-0.1,0.5
			l0.1-0.5l0,0c1-4.5,2.9-3.2,6.2-2.4C380.4,245.5,376.4,246.8,376.2,247.3z M408.3,203.7l0.6,83.7c0,0-2.8,4.5-5.7,0
			s-0.6-92.3-0.6-90.2l25.9,0.8L258.6,89.6L88.8,198l25.9-0.8c0-2.1,2.3,85.7-0.6,90.2s-5.7,0-5.7,0l0.6-83.7l-42-0.3L258.7,81.5
			l93.6,59.6V99.2h22.2v56l75.8,48.2L408.3,203.7z"/>
	</g>
</g>
</svg>
