<?xml version="1.0" encoding="utf-8"?>
<!-- Generator: Adobe Illustrator 19.0.0, SVG Export Plug-In . SVG Version: 6.00 Build 0)  -->
<svg version="1.1" id="Layer_2" xmlns="http://www.w3.org/2000/svg" xmlns:xlink="http://www.w3.org/1999/xlink" x="0px" y="0px"
	 viewBox="0 0 406 106.1" style="enable-background:new 0 0 406 106.1;" xml:space="preserve">
<style type="text/css">
	.st0{fill:#99999A;}
	.st1{fill:#FFFFFF;}
	.st2{fill:#E2231A;}
	.st3{fill:none;}
	.st4{fill:#0033A0;}
	.st5{fill:#0066B3;}
</style>
<g>
	<path class="st0" d="M85.3,33.7c3.1,0,6.2,0.3,9,0.8l6.9-7.2c-4.8-1.7-10.2-2.6-15.9-2.6c-9.7,0-18.5,2.7-25.1,7.1l6,5.7
		C71.8,35.1,78.3,33.7,85.3,33.7z"/>
	<path class="st1" d="M85.3,24.8c5.7,0,11.1,0.9,15.9,2.6l7.5-7.8c-7-2.8-14.9-4.3-23.4-4.3c-12.6,0-24.1,3.5-32.9,9.2l7.8,7.4
		C66.8,27.5,75.6,24.8,85.3,24.8z"/>
	<path class="st0" d="M49.4,55.3c0.6-2.6,1.8-5,3.4-7.3l-3-3c-0.6,1.9-0.9,3.8-0.9,5.8C48.8,52.3,49,53.8,49.4,55.3z"/>
	<path class="st0" d="M27.1,72.1l-1.3,6.6l12.6-5.4c-0.8-1.7-1-3.9-1.4-5.6L27.1,72.1z"/>
	<polygon class="st0" points="18.2,0.8 0,100.6 8.6,101.3 26.7,0 	"/>
	<path class="st2" d="M79.5,58.2v-8.1L66.3,37.6l-6-5.7l-7.8-7.4L26.6,0L8.6,101.3l38.2-16.8c-3.8-3.4-6.5-6.9-8.5-11.2l-12.4,5.3
		l1.2-6.5l8.1-42l0.7-3.5l6.7,6.7l8.6,8.6l3.7,3.7l15.1,13l-14.7,6.7c3.8,3.8,8.3,7.2,14.4,9.1l18.3-8.2L79.5,58.2z"/>
	<path class="st3" d="M125.3,30.1c6.2,6.2,9.9,13.8,9.9,22.1c0,1.5-0.1,3-0.4,4.5c0.2,1.5,0.4,3,0.4,4.5c0,6.3-2.2,12.3-6,17.5
		l24.9-25.9l-26.3-25.2L125.3,30.1z"/>
	<path class="st3" d="M113,42.8l-10.3,10.7l12.5,12c3-3,5-6.6,6-10.3C120.1,50.6,117.2,46.3,113,42.8z"/>
	<path class="st0" d="M121.2,55.3c0.4-1.5,0.6-3,0.6-4.5c0-4.5-1.7-8.8-4.5-12.5l-4.3,4.5C117.1,46.3,120.1,50.6,121.2,55.3z"/>
	<path class="st0" d="M129.4,98l-10.3-9.9c-1.6,1.1-3.4,2.2-5.3,3.1l15.5,14.9l47.9-49.9l-0.1-8.1L129.4,98z"/>
	<path class="st0" d="M94.5,64.4L86,56.3l-6.5-6.2l0,8.1l9.1,8.8l8.7,8.4c2.2-0.6,4.3-1.2,6.3-2.1L94.5,64.4z"/>
	<polygon class="st0" points="127.8,19.3 121,26.4 113.4,34.2 108.3,39.6 98.6,49.7 102.7,53.6 113,42.8 117.3,38.3 125.3,30.1 
		127.8,27.4 154.2,52.7 158.2,48.5 	"/>
	<path class="st1" d="M125.3,30.1l-7.9,8.3c2.8,3.7,4.4,7.9,4.4,12.4c0,1.5-0.2,3-0.6,4.5c-0.9,3.8-3,7.3-6,10.3
		c-3,3.1-7,5.7-11.6,7.7c-2,0.8-4.1,1.5-6.3,2.1c-3.8,0.9-7.8,1.4-12,1.4c-5.2,0-10.1-0.8-14.6-2.2c-6.1-1.9-11.3-4.9-15.1-8.7
		C54.2,64.5,53,63,52,61.4c-1.2-1.9-2.1-4-2.7-6.2c-0.4-1.5-0.5-3-0.5-4.5c0-2,0.3-4,0.9-5.8l-9.1-9.2c-3.3,4.9-5.2,10.5-5.2,16.4
		c0,1.5,0.1,3,0.4,4.5c0.6,3.6,1.9,7,3.7,10.1c0.9,1.6,2,3.1,3.2,4.6c3.2,3.9,7.3,7.3,12.2,10c8.4,4.8,18.9,7.6,30.4,7.6
		c8,0,15.6-1.4,22.2-3.9c2-0.8,4-1.6,5.8-2.5c4.3-2.2,8.1-4.9,11.3-7.9c5.4-5.1,8.9-11.3,10.1-18.1c0.2-1.5,0.4-3,0.4-4.5
		C135.2,43.9,131.5,36.2,125.3,30.1z"/>
	<path class="st4" d="M94.4,64.5l9.2,8.8c4.6-1.9,8.6-4.5,11.6-7.6l-12.5-12l-4.1-3.9l9.7-10.1l5.1-5.3l7.5-7.8l6.8-7.1l30.4,29.2
		l-4.1,4.2l-24.9,25.9c-2.6,3.6-6,6.8-10,9.5l10.2,9.9l47.9-49.9L127.4,0.2l-18.7,19.5l-7.5,7.8l-6.9,7.2L79.5,50.1L94.4,64.5z"/>
	<path class="st5" d="M85.9,56.4"/>
	<g>
		<path class="st0" d="M52.2,61.7c0,0,0.2,0.4,0.3,0.4c0.7,1.2,1.7,2.2,2.7,3.3l14.9-6.9L35.8,26.6l-0.9,4.9l26.9,26.6L52.2,61.7z"
			/>
	</g>
	<path class="st0" d="M135.2,52.1c0,1.5-0.1,3-0.4,4.5c-1.1,6.8-4.7,13-10.1,18.1c-3.2,3.1-7,5.7-11.3,7.9c-1.9,0.9-3.8,1.8-5.8,2.5
		c-6.7,2.5-14.3,3.9-22.2,3.9c-11.4,0-22-2.8-30.4-7.6c-4.8-2.8-9-6.1-12.2-10c-1.2-1.5-2.3-3-3.2-4.6c-1.9-3.2-3.1-6.6-3.7-10.1
		c-0.2-1.5-0.4-3-0.4-4.5c0-0.5,0-0.9,0.1-1.4c0,0,0-0.1,0-0.1c-0.2,1.5,0,9,0,10.5c0,2.4,0.3,4.8,0.9,7c0.5,1.8,1.1,3.5,1.9,5.2
		c2,4.2,5,8.1,8.8,11.5C56.2,92.8,69.9,98,85.3,98c10.7,0,20.5-2.5,28.6-6.7c1.8-1,3.6-2,5.2-3.1c4-2.7,7.4-6,10-9.6
		c3.8-5.2,6-11.2,6-17.5c0-1.3,0.1-7.7,0-10.2C135.1,50.6,135.2,51.7,135.2,52.1z"/>
</g>
<g>
	<path d="M189.2,24.2h39.7l-3.7,15.3h-19l-1.9,8h19.8l-3.5,14.2h-19.6l-4.7,20.1h-20.5L189.2,24.2z"/>
	<path d="M234.3,24.2h20.5l-13.4,57.6H221L234.3,24.2z"/>
	<path d="M260.2,24.5l1.3-0.2c6.6-0.8,14.8-1.3,19.3-1.3c7.5,0,13.4,0.9,17.8,2.7c5.6,2.3,9,7.4,9,13.6c0,5.3-1.8,10.3-5.2,14.2
		c-2.9,3.4-5.5,5-11,6.6l-1.3,0.4c0.6,0.4,0.8,0.6,1,0.9c1.6,1.8,6.4,11.1,10.4,20.4H279c-2.9-8.2-3.8-10.4-7.6-19.7l-4.5,19.7
		h-19.9L260.2,24.5z M275.3,51.6c6.6,0,11.2-3.9,11.2-9.4c0-2.9-2.2-4.4-6.4-4.4c-1.2,0-1.9,0.1-3.2,0.3l-3.1,13.3
		C274.5,51.5,274.6,51.6,275.3,51.6z"/>
	<path d="M356.3,24.2H406l-3.5,16.7h-14.8L378,81.8h-20.5l9.8-40.9h-16L356.3,24.2z"/>
	<path d="M387.6,71.5c2.8,0,5,2.2,5,5c0,2.8-2.2,5-5,5c-2.8,0-5-2.2-5-5C382.6,73.7,384.8,71.5,387.6,71.5z M387.6,80.8
		c2.4,0,4.4-2,4.4-4.4c0-2.4-2-4.4-4.4-4.4c-2.4,0-4.4,2-4.4,4.4C383.2,78.9,385.2,80.8,387.6,80.8z M385.7,73.9
		c0.3,0,0.3,0,0.8-0.1c0.5,0,0.7-0.1,0.9-0.1c1.6,0,2.5,0.6,2.5,1.9c0,0.7-0.3,1.2-1,1.4l-0.1,0c0.1,0,0.1,0.1,0.1,0.1
		c0.2,0.2,0.8,1,1.2,1.8h-1.9c-0.4-0.7-0.5-0.9-1-1.7V79h-1.6V73.9z M387.5,76.3c0.4,0,0.7-0.2,0.7-0.6c0-0.4-0.2-0.6-0.7-0.6
		c-0.1,0-0.1,0-0.2,0v1.2C387.4,76.3,387.4,76.3,387.5,76.3z"/>
	<g>
		<path d="M303.6,80.3c5.8,1.7,12.1,2.7,18,2.7c8,0,14.1-1.8,19.4-5.6c5.8-4.1,9.6-10.5,9.6-16.3c0-3.9-1.7-7.4-4.7-9.9
			c-2.4-1.9-4.8-3.4-9.8-5.7l-4-1.9c-1.3-0.7-2-1.4-2-2.2c0-2.1,2.6-3.6,6.2-3.6c2.7,0,5.9,0.8,12,2.8l4.2-15.6
			c-4.6-1.2-9-1.9-13.4-1.9c-16.7,0-29.6,9.2-29.6,21c0,6.2,4.1,10.6,14.5,15.5c4.9,2.2,5.7,2.8,5.7,4.4c0,2.3-2.5,3.8-6.7,3.8
			c-3.7,0-8.4-1.1-14.8-3.5l0,0L303.6,80.3z"/>
	</g>
</g>
</svg>
