<?xml version="1.0" encoding="utf-8"?>
<!-- Generator: Adobe Illustrator 21.0.0, SVG Export Plug-In . SVG Version: 6.00 Build 0)  -->
<svg version="1.1" id="Layer_1" xmlns="http://www.w3.org/2000/svg" xmlns:xlink="http://www.w3.org/1999/xlink" x="0px" y="0px"
	 viewBox="0 0 1004.5 432.6" style="enable-background:new 0 0 1004.5 432.6;" xml:space="preserve">
<style type="text/css">
	.st0{fill:#ED1C24;}
	.st1{fill:#FFF200;}
</style>
<path class="st0" d="M226.6,384.4c0,0-59.9,5.8-118.6-71.4c0,0-2.9-2.7-1-7.8c0.6-1.7,2.4-1.9,3.7-1.8c0.3,0.2,0.7,0.4,1,0.7l5.7,6
	c1.9,2,3.9,4,5.8,5.9c1.9,2,3.9,3.9,5.9,5.9c2,2,4,3.8,6,5.8l3,2.8c1,0.9,2,1.9,3.1,2.8c2,1.9,4.1,3.7,6.2,5.5l3.2,2.6
	c1.1,0.8,2.2,1.6,3.4,2.4c1.2,0.8,2.3,1.5,3.5,2.2c1.2,0.7,2.4,1.4,3.7,1.8c-1.2-0.6-2.4-1.4-3.5-2.2c-1.1-0.8-2.2-1.6-3.3-2.5
	c-1.1-0.8-2.1-1.8-3.2-2.6c-1.1-0.8-2.1-1.7-3.2-2.6c-2.1-1.8-4.2-3.6-6.2-5.4c-1-0.9-2-1.9-3-2.8l-3-2.8c-2-1.9-4-3.8-5.9-5.7
	c-1.9-2-3.9-3.9-5.8-5.9c-1.9-2-3.9-3.9-5.8-5.9l-5.7-6l0,0c0,0-4.3-3.1-3.8-6.4c0-0.2,0.1-0.5,0.2-0.7c0.9-2.4,2.8-2.9,4.2-2.9
	c0.4,0,1.4,0.8,1.4,0.8c2.3,1.8,4.6,3.6,6.8,5.4c2.2,1.9,4.4,3.8,6.6,5.7c4.4,3.9,8.7,7.8,12.9,11.8l6.3,6.1c2.1,2,4.3,4,6.6,5.9
	c1.1,0.9,2.3,1.9,3.4,2.8c1.2,0.9,2.3,1.8,3.6,2.6c1.3,0.8,2.5,1.5,3.9,2.1c1.3,0.6,2.7,1.2,4.2,1.4c-1.4-0.4-2.7-1.1-3.9-1.8
	c-1.2-0.8-2.4-1.6-3.6-2.5c-1.1-0.9-2.3-1.7-3.5-2.6c-1.2-0.9-2.3-1.8-3.4-2.8c-2.2-1.9-4.4-3.8-6.5-5.8l-6.3-6.1
	c-4.3-4-8.6-8-12.9-11.9c-4.4-3.9-8.8-7.7-13.5-11.2l-0.1,0c0,0-2.7-1.5-3.4-3.9c-0.3-1.2-0.4-2.5,0.3-4c2.1-4.6,8.4-4.8,12.2-2.8
	c0,0,39.7,40.5,75.5,37.8c0,0-1.4-10.4-14.2-15.2c0,0-18-7.1-24.7-14.7c0,0-6.7-7.5-3-11.2c3.7-3.7,29.2,8.6,38.4,9.6
	c9.2,1,51.1,45.9,51.1,45.9s6.5,6.1,22.7,6.1c0.2,0,0.4,0,0.5,0c12.7-27.1,21.4-57.6,21.4-87.8c0-88.3-47.1-104.4-76.1-104.4
	c-29,0-52.6,17.7-69.8,17.7c-17.3,0-40.8-17.7-69.8-17.7c-15.9,0-37.3,4.9-53.3,23.8h43.6c0,0,59.9-5.8,118.6,71.4
	c0,0,2.9,2.7,1,7.8c-0.6,1.7-2.4,1.9-3.7,1.8c-0.3-0.2-0.7-0.4-1-0.7l-5.7-6c-1.9-2-3.9-4-5.8-5.9c-1.9-2-3.9-3.9-5.9-5.9
	c-2-2-4-3.8-6-5.8l-3-2.8c-1-0.9-2-1.9-3.1-2.8c-2-1.9-4.1-3.7-6.2-5.5l-3.2-2.6c-1.1-0.8-2.2-1.6-3.4-2.4c-1.2-0.8-2.3-1.5-3.5-2.2
	c-1.2-0.7-2.4-1.4-3.7-1.8c1.2,0.6,2.4,1.4,3.5,2.2c1.1,0.8,2.2,1.6,3.3,2.5c1.1,0.8,2.1,1.8,3.2,2.6c1.1,0.8,2.1,1.7,3.2,2.6
	c2.1,1.8,4.2,3.6,6.2,5.4c1,0.9,2,1.8,3,2.8l3,2.8c2,1.9,4,3.8,5.9,5.8c1.9,2,3.9,3.9,5.8,5.8c1.9,2,3.9,3.9,5.8,5.9l5.7,6l0,0
	c0,0,4.3,3.1,3.8,6.4c-0.1,0.2-0.1,0.5-0.2,0.7c-0.9,2.4-2.8,2.9-4.2,2.8c-0.4,0-1.4-0.7-1.4-0.7c-2.3-1.8-4.6-3.6-6.8-5.5
	c-2.2-1.9-4.4-3.8-6.6-5.7c-4.4-3.9-8.7-7.8-12.9-11.8l-6.3-6.1c-2.1-2-4.3-4-6.6-5.9c-1.1-0.9-2.3-1.9-3.4-2.8
	c-1.2-0.9-2.3-1.8-3.6-2.6c-1.3-0.8-2.5-1.5-3.9-2.1c-1.3-0.6-2.7-1.2-4.2-1.4c1.4,0.4,2.7,1.1,3.9,1.8c1.2,0.8,2.4,1.6,3.6,2.5
	c1.1,0.9,2.3,1.7,3.5,2.6c1.2,0.9,2.3,1.8,3.4,2.7c2.2,1.9,4.4,3.8,6.5,5.8l6.3,6.1c4.3,4,8.6,8,12.9,11.9
	c4.4,3.9,8.9,7.7,13.5,11.2l0,0c0,0,2.7,1.5,3.4,3.9c0.4,1.2,0.4,2.5-0.3,4c-2.1,4.6-8.4,4.8-12.2,2.8c0,0-39.7-40.5-75.5-37.8
	c0,0,1.3,10.4,14.2,15.2c0,0,18,7.1,24.7,14.7c0,0,6.7,7.5,3,11.2c-3.7,3.7-29.2-8.6-38.4-9.6c-9.2-1-51.1-45.9-51.1-45.9
	s-6.5-6.1-22.7-6.1c-7.7,0-15.1,2.5-20.8,5.1C0.9,230.4,0,241,0,252.8c0,88.3,75.3,179.7,102.8,179.7c27.5,0,23.5-10.7,43.1-10.7
	c19.6,0,15.7,10.7,43.1,10.7c12.5,0,35-19,55.8-48.1H226.6z"/>
<path class="st1" d="M180.9,65.8c0,0.1-4.7,22.7-14.3,28c-9.6,5.4-16.1,21.5-16.1,21.5s-5-15,6.5-30.7c8.9-12.1,11.4-19,12-28.2h0
	c0.2-2.8,0.2-5.7,0.2-9.1C169.3,32.8,154,0,138.2,0c0,0,1.9,20.2-11.9,35.9c-13.8,15.7-28,24.6-28,62.2c0,26.3,21.3,47.6,47.6,47.6
	c26.3,0,47.6-21.3,47.6-47.6C193.5,85.7,188.7,74.3,180.9,65.8"/>
<g>
	<path d="M327.6,174.4h49.9c10.3,0,18.4,3,24.3,9c5.9,6,8.9,13.9,8.9,23.6c0,10.4-3.3,19-9.9,25.6c-6.6,6.7-15.6,10-27.1,10
		c-4,0-8.1-0.3-12.3-1v35.2c0,5.6,0.9,9.6,2.6,12c1.8,2.5,4.9,4.2,9.5,5.3v3.6h-45.9v-3.6c4.9-1.2,8.2-3.1,9.9-5.6
		c1.6-2.5,2.5-6.9,2.5-13.1v-80.4c0-5.6-0.8-9.5-2.4-11.6c-1.6-2.1-4.9-3.9-10-5.3V174.4z M369.6,181.4h-8.2v52.9
		c2.5,1,4.9,1.5,7.1,1.5c5.9,0,10.6-2.4,13.9-7.3c3.3-4.8,5-11.6,5-20.3c0-8-1.6-14.4-5-19.3C379.2,183.9,374.9,181.4,369.6,181.4"
		/>
	<path d="M516.8,174.4v3.6c-5.2,1.7-8.5,3.5-10.1,5.7c-1.5,2.1-2.3,5.7-2.3,10.7v83c0,5.1,1.1,8.6,3.2,10.5
		c2.1,1.9,6.2,2.8,12.1,2.8c6.2,0,11-1.7,14.5-5.2c3.4-3.5,7-10.1,10.7-19.8h2.8l-2.8,32h-74.1v-3.6c5.2-1.7,8.5-3.6,9.9-5.9
		c1.5-2.3,2.2-7,2.2-14.1v-78.8c0-5.6-0.8-9.5-2.4-11.7c-1.6-2.2-4.8-4.1-9.8-5.6v-3.6H516.8z"/>
	<path d="M659.5,297.7v-3.6c3.7-1,6.3-2.1,7.8-3.6c1.5-1.4,2.3-3.4,2.3-5.9c0-2.1-0.6-5.2-1.7-9.5l-5.2-18.9h-32.2l-4.5,16.4
		c-1.1,4.2-1.7,7.5-1.7,10.1c0,5.4,3,9.2,9.1,11.4v3.6h-29.1v-3.6c3.5-0.8,6.6-3.3,9.2-7.5c2.6-4.2,5.2-11,7.8-20.5l25.9-94.9h12.3
		l27.4,98.7c2.5,8.8,5,14.9,7.4,18.4c2.4,3.5,5.6,5.4,9.4,5.8v3.6H659.5z M633.3,247.4h26.9l-13.7-50L633.3,247.4z"/>
	<path d="M821.3,178v-3.6h28.4v3.6c-8.2,0.7-12.2,7.4-12.2,20.2v100.9h-2.7l-60.6-99.9v75.3c0,6.6,0.8,11.2,2.5,13.8
		c1.6,2.6,4.9,4.5,9.9,5.7v3.6h-29.1v-3.6c4-0.9,6.8-2.9,8.5-5.9c1.7-3.1,2.6-7.8,2.6-14.2v-83.6c-3.3-4.9-5.6-8.1-6.8-9.5
		c-1.2-1.4-2.7-2.3-4.4-2.8v-3.6h25.3l49.2,82.6v-55.5c0-8.2-0.7-13.8-2.2-16.9C828.2,181.6,825.4,179.3,821.3,178"/>
	<path d="M999.6,236.2c0,18.9-4.6,34.4-13.8,46.5c-9.2,12.2-21,18.2-35.3,18.2c-14.2,0-25.9-6.1-35.1-18.2
		c-9.1-12.1-13.7-27.6-13.7-46.5c0-18.9,4.6-34.4,13.8-46.6c9.2-12.2,20.9-18.3,35.1-18.3c14.3,0,26.1,6.1,35.3,18.3
		C995,201.8,999.6,217.3,999.6,236.2 M978,237c0-19.1-2.3-33.7-7-43.7c-4.7-10-11.5-15-20.5-15c-8.9,0-15.7,5-20.3,15
		c-4.7,10-7,24.7-7,43.9c0,17.9,2.4,31.8,7,41.8c4.7,9.9,11.4,14.9,20.2,14.9c8.7,0,15.4-4.9,20.3-14.8
		C975.6,269.2,978,255.2,978,237"/>
	<path d="M336.6,335.4v1.5c-1.6,0-2.8,0.6-3.4,1.8c-0.6,1.2-1,3.2-1,6.2v31.2c0,3,0.3,5.1,1,6.2c0.6,1.2,1.8,1.7,3.4,1.7v1.5h-13.9
		V384c1.7,0,2.8-0.6,3.4-1.7c0.6-1.1,0.9-3.2,0.9-6.2v-31.2c0-3.1-0.3-5.2-0.9-6.3c-0.6-1.1-1.8-1.7-3.5-1.7v-1.5H336.6z"/>
	<path d="M347.6,353.7v6.2c2.8-4.1,5.7-6.2,8.6-6.2c2.3,0,4.2,1,5.7,3.1c1.5,2.1,2.3,4.7,2.3,8v14c0,2.1,0.3,3.5,0.8,4.2
		c0.5,0.7,1.6,1,3.2,1v1.4h-12.7V384c1.6,0,2.6-0.3,3.2-0.8c0.6-0.5,0.9-1.5,0.9-3.1V364c0-2.2-0.5-3.9-1.5-5.2
		c-1-1.3-2.3-1.9-3.8-1.9c-2.2,0-4.5,2-6.8,6v15.1c0,2.6,0.3,4.2,0.8,4.9c0.5,0.7,1.6,1.1,3.2,1.1v1.4h-12.6V384
		c1.8,0,2.9-0.4,3.3-1.1c0.4-0.7,0.6-2.4,0.6-4.8v-17.4c0-1.9-0.3-3.1-0.8-3.7c-0.5-0.6-1.6-0.9-3.2-0.9v-1.5l7.4-0.9H347.6z"/>
	<path d="M393.9,330.6h1.1v48.8c0,1.7,0.3,2.9,0.9,3.5c0.6,0.7,1.6,1,3.1,1v1.5h-13.9c-4.3,0-7.7-1.5-10.1-4.6
		c-2.5-3-3.7-6.9-3.7-11.5c0-4.3,1.1-8,3.3-11.1c2.2-3,4.8-4.6,7.9-4.6c2.5,0,5.1,1.2,8,3.7v-19c0-2.1-0.2-3.5-0.6-4.2
		c-0.4-0.7-1.3-1.1-2.5-1.1h-1.3v-1.5L393.9,330.6z M390.4,379.4v-18.6c-0.9-1.6-2-2.9-3.2-3.8c-1.2-0.9-2.5-1.4-3.7-1.4
		c-2.2,0-3.9,1.2-5.3,3.5c-1.3,2.3-2,5.3-2,9.1c0,4.8,0.9,8.7,2.7,11.6c1.8,2.9,4.4,4.4,7.7,4.4c1.3,0,2.3-0.4,2.9-1.1
		C390.1,382.2,390.4,381,390.4,379.4"/>
	<path d="M425.2,377.5v2.3c-1.4,2.4-2.9,4.1-4.4,5.1c-1.5,1-3.3,1.5-5.4,1.5c-3.7,0-6.8-1.5-9.2-4.5c-2.4-3-3.6-6.9-3.6-11.5
		c0-4.7,1.2-8.6,3.5-11.8c2.3-3.2,5.1-4.8,8.5-4.8c2.8,0,5.2,1.2,7.2,3.6c2.1,2.4,3.1,5.3,3.1,8.7v0.6h-17.5v0.4
		c0,3.4,0.4,6.4,1.2,8.9c0.8,2.5,2,4.5,3.5,5.9c1.5,1.4,3.1,2.1,4.8,2.1c1.6,0,2.9-0.4,4-1.3C421.9,381.9,423.3,380.1,425.2,377.5
		 M407.3,365.1h13v-0.6c0-2.7-0.6-4.9-1.8-6.6c-1.2-1.6-2.7-2.4-4.6-2.4c-1.9,0-3.5,0.9-4.7,2.6C408,359.8,407.4,362.1,407.3,365.1"
		/>
	<path d="M436.7,353.7v5.2c1.5-1.9,2.9-3.3,4.1-4c1.2-0.8,2.6-1.2,4.2-1.2c3.1,0,5.7,1.5,7.7,4.6c2,3.1,3.1,6.9,3.1,11.5
		c0,4.8-1.1,8.7-3.4,11.9c-2.2,3.1-5.1,4.7-8.5,4.7c-2.3,0-4.8-1.2-7.2-3.7v20.3c0,2.1,0.3,3.5,0.8,4.2c0.6,0.7,1.6,1,3.1,1v1.5H428
		v-1.5c1.6,0,2.7-0.3,3.3-0.9c0.6-0.6,0.8-1.7,0.8-3.4v-43c0-2.1-0.2-3.4-0.7-4c-0.5-0.6-1.6-0.9-3.5-0.9v-1.5l7.6-0.9H436.7z
		 M436.7,361.2v19.4c1.9,2.6,4.1,3.8,6.6,3.8c2.1,0,3.9-1.3,5.4-3.9c1.4-2.6,2.2-5.8,2.2-9.6c0-4.2-0.7-7.6-2.2-10.3
		c-1.4-2.7-3.3-4.1-5.5-4.1C441,356.6,438.8,358.1,436.7,361.2"/>
	<path d="M483.3,377.5v2.3c-1.4,2.4-2.9,4.1-4.4,5.1c-1.5,1-3.3,1.5-5.4,1.5c-3.7,0-6.8-1.5-9.2-4.5c-2.4-3-3.6-6.9-3.6-11.5
		c0-4.7,1.2-8.6,3.5-11.8c2.3-3.2,5.1-4.8,8.5-4.8c2.8,0,5.2,1.2,7.2,3.6c2.1,2.4,3.1,5.3,3.1,8.7v0.6h-17.5v0.4
		c0,3.4,0.4,6.4,1.2,8.9c0.8,2.5,2,4.5,3.5,5.9c1.5,1.4,3.1,2.1,4.8,2.1c1.6,0,2.9-0.4,4-1.3C480,381.9,481.5,380.1,483.3,377.5
		 M465.4,365.1h13v-0.6c0-2.7-0.6-4.9-1.8-6.6c-1.2-1.6-2.7-2.4-4.5-2.4c-1.9,0-3.5,0.9-4.7,2.6
		C466.2,359.8,465.5,362.1,465.4,365.1"/>
	<path d="M494.8,353.7v6.2c2.8-4.1,5.7-6.2,8.6-6.2c2.3,0,4.2,1,5.7,3.1c1.5,2.1,2.3,4.7,2.3,8v14c0,2.1,0.3,3.5,0.8,4.2
		c0.5,0.7,1.6,1,3.2,1v1.4h-12.7V384c1.6,0,2.7-0.3,3.2-0.8c0.6-0.5,0.9-1.5,0.9-3.1V364c0-2.2-0.5-3.9-1.5-5.2
		c-1-1.3-2.3-1.9-3.8-1.9c-2.2,0-4.5,2-6.8,6v15.1c0,2.6,0.3,4.2,0.8,4.9c0.5,0.7,1.6,1.1,3.2,1.1v1.4h-12.6V384
		c1.8,0,2.9-0.4,3.3-1.1c0.4-0.7,0.6-2.4,0.6-4.8v-17.4c0-1.9-0.3-3.1-0.8-3.7c-0.5-0.6-1.6-0.9-3.2-0.9v-1.5l7.4-0.9H494.8z"/>
	<path d="M541,330.6h1.1v48.8c0,1.7,0.3,2.9,0.9,3.5c0.6,0.7,1.6,1,3.1,1v1.5h-13.9c-4.3,0-7.7-1.5-10.1-4.6
		c-2.5-3-3.7-6.9-3.7-11.5c0-4.3,1.1-8,3.3-11.1c2.2-3,4.8-4.6,7.9-4.6c2.5,0,5.1,1.2,8,3.7v-19c0-2.1-0.2-3.5-0.6-4.2
		c-0.4-0.7-1.3-1.1-2.5-1.1h-1.3v-1.5L541,330.6z M537.6,379.4v-18.6c-0.9-1.6-2-2.9-3.2-3.8c-1.2-0.9-2.5-1.4-3.7-1.4
		c-2.2,0-3.9,1.2-5.3,3.5c-1.3,2.3-2,5.3-2,9.1c0,4.8,0.9,8.7,2.7,11.6c1.8,2.9,4.4,4.4,7.7,4.4c1.3,0,2.3-0.4,2.9-1.1
		C537.3,382.2,537.6,381,537.6,379.4"/>
	<path d="M572.3,377.5v2.3c-1.4,2.4-2.9,4.1-4.4,5.1c-1.5,1-3.3,1.5-5.4,1.5c-3.7,0-6.8-1.5-9.2-4.5c-2.4-3-3.6-6.9-3.6-11.5
		c0-4.7,1.2-8.6,3.5-11.8c2.3-3.2,5.1-4.8,8.5-4.8c2.8,0,5.2,1.2,7.2,3.6c2.1,2.4,3.1,5.3,3.1,8.7v0.6h-17.5v0.4
		c0,3.4,0.4,6.4,1.2,8.9c0.8,2.5,2,4.5,3.5,5.9c1.5,1.4,3.1,2.1,4.8,2.1c1.6,0,2.9-0.4,4-1.3C569,381.9,570.5,380.1,572.3,377.5
		 M554.4,365.1h13v-0.6c0-2.7-0.6-4.9-1.8-6.6c-1.2-1.6-2.7-2.4-4.6-2.4c-1.9,0-3.5,0.9-4.7,2.6
		C555.2,359.8,554.5,362.1,554.4,365.1"/>
	<path d="M583.7,353.7v6.2c2.8-4.1,5.7-6.2,8.6-6.2c2.3,0,4.2,1,5.7,3.1c1.5,2.1,2.3,4.7,2.3,8v14c0,2.1,0.3,3.5,0.8,4.2
		c0.5,0.7,1.6,1,3.2,1v1.4h-12.7V384c1.6,0,2.7-0.3,3.2-0.8c0.6-0.5,0.9-1.5,0.9-3.1V364c0-2.2-0.5-3.9-1.5-5.2
		c-1-1.3-2.3-1.9-3.8-1.9c-2.2,0-4.5,2-6.8,6v15.1c0,2.6,0.3,4.2,0.8,4.9c0.5,0.7,1.6,1.1,3.2,1.1v1.4h-12.6V384
		c1.8,0,2.9-0.4,3.3-1.1c0.4-0.7,0.6-2.4,0.6-4.8v-17.4c0-1.9-0.2-3.1-0.8-3.7c-0.5-0.6-1.6-0.9-3.2-0.9v-1.5l7.4-0.9H583.7z"/>
	<path d="M614.3,344.1h1.2v10.4h8.3v2.3h-8.3v19.9c0,2.1,0.4,3.7,1.1,4.8c0.7,1.1,1.8,1.7,3.2,1.7c1.6,0,3.1-1,4.4-3l0.7,1.1
		c-2.1,3.4-4.5,5.2-7.2,5.2c-2,0-3.7-0.8-5-2.5c-1.3-1.7-1.9-3.9-1.9-6.5v-20.7h-4.5v-1.5C609.7,353.1,612.4,349.4,614.3,344.1"/>
	<path d="M663,334.7h1.1v11.7H663c-0.3-3.2-1.2-5.8-2.7-7.6c-1.5-1.8-3.5-2.7-5.8-2.7c-2.1,0-3.8,0.7-5,2.1
		c-1.3,1.4-1.9,3.2-1.9,5.5c0,2.1,0.5,4,1.6,5.8c1.1,1.7,3.3,4,6.8,6.7c4.1,3.1,6.8,5.9,8.2,8.3c1.4,2.4,2.1,5.1,2.1,8.1
		c0,3.9-1.1,7.3-3.2,10c-2.1,2.8-4.7,4.2-7.7,4.2c-1.7,0-4-0.6-6.7-1.9c-1.1-0.5-1.8-0.8-2.1-0.8c-0.6,0-1.1,0.6-1.5,1.9h-1.2v-13.5
		h1.2c0,3.7,1,6.7,2.8,8.9c1.8,2.3,4,3.4,6.5,3.4c2.3,0,4.2-0.8,5.6-2.4c1.4-1.6,2.1-3.8,2.1-6.5c0-2-0.6-3.9-1.7-5.8
		c-1.2-1.9-3.6-4.2-7.3-7.2c-3-2.4-5-4.3-6-5.7c-1-1.4-1.7-2.9-2.2-4.6c-0.5-1.7-0.7-3.5-0.7-5.5c0-3.9,1-7,2.9-9.3
		c1.9-2.4,4.5-3.6,7.6-3.6c1.7,0,3.6,0.5,5.6,1.3c0.9,0.4,1.6,0.6,2,0.6c0.3,0,0.5-0.1,0.6-0.3C662.8,335.7,662.9,335.3,663,334.7"
		/>
	<path d="M692.4,353.7v10.9h-1.2c-0.5-2.8-1.5-5.1-2.9-6.7c-1.4-1.6-3.1-2.5-5.1-2.5c-2.4,0-4.3,1.2-5.8,3.6
		c-1.5,2.4-2.2,5.5-2.2,9.3c0,4.2,0.9,7.8,2.6,10.9c1.8,3.1,3.9,4.6,6.3,4.6c1.6,0,3.2-0.6,4.8-1.7c1.6-1.1,3-2.7,4.1-4.7v2.3
		c-2.6,4.5-6.1,6.8-10.5,6.8c-3.5,0-6.4-1.5-8.6-4.3c-2.2-2.9-3.3-6.7-3.3-11.3c0-4.7,1.2-8.8,3.6-12.1c2.4-3.3,5.3-5,8.7-5
		c1.5,0,3.2,0.4,5.1,1.2c0.8,0.3,1.4,0.5,1.7,0.5c0.7,0,1.2-0.6,1.6-1.7H692.4z"/>
	<path d="M716.1,379v-15.3c0-2-0.4-3.7-1.3-4.9c-0.9-1.2-2-1.8-3.5-1.8c-1.3,0-2.5,0.5-3.6,1.3c-1.1,0.9-2.2,2.4-3.3,4.5v17
		c0,1.6,0.3,2.7,0.9,3.3c0.6,0.6,1.6,0.9,3.1,0.9v1.5h-12.8V384c1.8-0.1,3-0.4,3.5-1.1c0.5-0.7,0.8-2.3,0.8-4.8v-40.3
		c0-1.9-0.3-3.1-0.8-3.7c-0.5-0.6-1.7-0.9-3.5-0.9v-1.5l7.7-1.1h1.1v29.2c1.5-2.3,2.9-3.9,4.2-4.8c1.2-0.9,2.6-1.4,4.2-1.4
		c2.3,0,4.2,1,5.7,2.9c1.5,1.9,2.2,4.5,2.2,7.8v13.7c0,2.4,0.3,4,0.8,4.8c0.5,0.8,1.5,1.1,3.1,1.1v1.5h-12.4V384
		c1.6,0,2.7-0.3,3.2-1C715.9,382.4,716.1,381,716.1,379"/>
	<path d="M753.4,370.1c0,4.7-1.2,8.5-3.7,11.6c-2.5,3.1-5.6,4.7-9.3,4.7s-6.8-1.6-9.3-4.7c-2.5-3.1-3.7-7-3.7-11.6
		c0-4.7,1.2-8.6,3.7-11.7c2.5-3.1,5.6-4.7,9.3-4.7c3.8,0,6.9,1.5,9.3,4.7C752.2,361.5,753.4,365.4,753.4,370.1 M748.5,370.1
		c0-4.4-0.7-8-2.2-10.7c-1.5-2.7-3.4-4.1-5.9-4.1c-2.5,0-4.5,1.3-5.9,4c-1.5,2.6-2.2,6.2-2.2,10.8c0,4.4,0.7,8,2.2,10.6
		c1.4,2.7,3.4,4,5.9,4c2.5,0,4.5-1.3,5.9-4C747.7,378,748.5,374.5,748.5,370.1"/>
	<path d="M784.2,370.1c0,4.7-1.2,8.5-3.7,11.6c-2.5,3.1-5.6,4.7-9.3,4.7c-3.7,0-6.8-1.6-9.3-4.7c-2.5-3.1-3.7-7-3.7-11.6
		c0-4.7,1.2-8.6,3.7-11.7c2.5-3.1,5.6-4.7,9.3-4.7c3.7,0,6.9,1.5,9.3,4.7C783,361.5,784.2,365.4,784.2,370.1 M779.3,370.1
		c0-4.4-0.7-8-2.2-10.7c-1.5-2.7-3.4-4.1-5.9-4.1c-2.5,0-4.5,1.3-5.9,4c-1.5,2.6-2.2,6.2-2.2,10.8c0,4.4,0.7,8,2.1,10.6
		c1.4,2.7,3.4,4,5.9,4c2.5,0,4.5-1.3,5.9-4C778.6,378,779.3,374.5,779.3,370.1"/>
	<path d="M800.8,384h0.6v1.5h-13.3V384h1.2c1.2,0,2.1-0.4,2.5-1.2c0.4-0.8,0.7-2.4,0.7-4.6v-40.8c0-1.6-0.2-2.7-0.7-3.3
		c-0.5-0.6-1.3-0.9-2.5-0.9h-1.5v-1.5l8.2-1.1h1.1v49c0,1.7,0.3,2.8,0.8,3.4C798.4,383.7,799.4,384,800.8,384"/>
	<path d="M820,385.5V384c1.6,0,2.8-0.6,3.4-1.8c0.6-1.2,0.9-3.2,0.9-6.2v-31.2c0-3-0.3-5-0.9-6.2c-0.6-1.2-1.8-1.8-3.4-1.8v-1.4
		h17.8c6.6,0,11.9,2.4,15.8,7.3c4,4.9,5.9,11,5.9,18.5c0,7.4-1.9,13.2-5.6,17.6c-3.8,4.4-9,6.6-15.6,6.6H820z M836.8,337.4h-7.3
		v36.9c0,3.5,0.3,6,1,7.3c0.7,1.3,2,2,3.9,2h4c4.7,0,8.5-2,11.2-6c2.7-4,4.1-9.4,4.1-16.2c0-7.3-1.5-13.1-4.5-17.5
		C846.2,339.5,842.1,337.4,836.8,337.4"/>
	<path d="M871.7,353.7h1.2v26.1c0,1.7,0.3,2.8,0.9,3.4c0.6,0.6,1.6,0.9,3.1,0.9v1.4h-13V384c1.9,0,3.1-0.3,3.7-0.8
		c0.5-0.6,0.8-1.7,0.8-3.5v-19c0-1.9-0.3-3.1-0.8-3.7c-0.5-0.6-1.8-0.9-3.7-0.9v-1.5L871.7,353.7z M870.7,337.7
		c0.8,0,1.5,0.4,2.1,1.1c0.6,0.7,0.8,1.6,0.8,2.7c0,1.1-0.3,2-0.9,2.7c-0.6,0.8-1.3,1.1-2,1.1c-0.8,0-1.5-0.4-2.1-1.1
		c-0.6-0.7-0.9-1.7-0.9-2.7c0-1.1,0.3-1.9,0.9-2.7C869.1,338.1,869.8,337.7,870.7,337.7"/>
	<path d="M895.9,353.7v9.5h-1.3c-0.2-2.4-0.9-4.3-2-5.7c-1.1-1.4-2.4-2.1-4-2.1c-1.2,0-2.1,0.4-2.9,1.2c-0.7,0.8-1.1,1.8-1.1,3.1
		c0,1.2,0.3,2.3,1,3.3c0.7,1,2.1,2.1,4.3,3.4c2.9,1.7,4.8,3.3,5.7,4.9c0.9,1.6,1.4,3.4,1.4,5.6c0,2.6-0.8,4.8-2.3,6.7
		c-1.5,1.9-3.3,2.8-5.3,2.8c-1.1,0-2.4-0.5-4.2-1.5c-0.9-0.5-1.6-0.8-1.9-0.8c-0.4,0-0.8,0.2-1,0.6c-0.3,0.4-0.5,0.9-0.5,1.5h-1.1
		v-10.5h1.1c0.4,2.8,1.3,5,2.8,6.6c1.4,1.6,3,2.4,4.9,2.4c1.2,0,2.2-0.5,3-1.5c0.8-1,1.2-2.3,1.2-3.8c0-1.5-0.4-2.7-1.1-3.8
		c-0.7-1.1-2.3-2.3-4.8-3.7c-2.8-1.6-4.6-3-5.5-4.4c-0.9-1.4-1.3-3-1.3-4.9c0-2.4,0.7-4.5,2.2-6.3c1.4-1.7,3.1-2.6,5.1-2.6
		c0.9,0,1.9,0.3,3,0.9c0.8,0.4,1.4,0.6,1.9,0.6c0.6,0,1.1-0.5,1.4-1.5H895.9z"/>
	<path d="M908.3,344.1h1.1v10.4h8.3v2.3h-8.3v19.9c0,2.1,0.4,3.7,1.1,4.8c0.7,1.1,1.8,1.7,3.2,1.7c1.6,0,3.1-1,4.4-3l0.8,1.1
		c-2.1,3.4-4.5,5.2-7.2,5.2c-2,0-3.7-0.8-5-2.5c-1.3-1.7-1.9-3.9-1.9-6.5v-20.7h-4.5v-1.5C903.7,353.1,906.3,349.4,908.3,344.1"/>
	<path d="M928.9,353.7v6.7c2.2-2.5,3.9-4.2,5.1-5.2c1.2-1,2.2-1.5,3.1-1.5c1.5,0,3,0.8,4.4,2.4l-1.8,5.5c-2.5-1.8-4.4-2.7-5.7-2.7
		c-1.4,0-3.1,1.2-5.1,3.7v17c0,1.7,0.3,2.9,0.8,3.5c0.6,0.6,1.6,0.9,3.2,0.9v1.4h-12.6V384c1.7,0,2.8-0.3,3.3-1
		c0.5-0.7,0.8-2.3,0.8-4.9v-16.9c0-2.1-0.3-3.5-0.8-4.1c-0.6-0.6-1.9-0.9-4.1-0.9v-1.5l8.3-0.9H928.9z"/>
	<path d="M952.4,353.7h1.1v26.1c0,1.7,0.3,2.8,0.9,3.4c0.6,0.6,1.6,0.9,3.1,0.9v1.4h-13V384c1.9,0,3.1-0.3,3.7-0.8
		c0.6-0.6,0.8-1.7,0.8-3.5v-19c0-1.9-0.3-3.1-0.8-3.7c-0.5-0.6-1.7-0.9-3.7-0.9v-1.5L952.4,353.7z M951.3,337.7
		c0.8,0,1.5,0.4,2.1,1.1c0.6,0.7,0.8,1.6,0.8,2.7c0,1.1-0.3,2-0.9,2.7c-0.6,0.8-1.3,1.1-2,1.1c-0.8,0-1.5-0.4-2.1-1.1
		c-0.6-0.7-0.9-1.7-0.9-2.7c0-1.1,0.3-1.9,0.9-2.7C949.8,338.1,950.5,337.7,951.3,337.7"/>
	<path d="M983.1,353.7v10.9h-1.1c-0.5-2.8-1.5-5.1-2.9-6.7c-1.4-1.6-3.1-2.5-5.1-2.5c-2.4,0-4.3,1.2-5.8,3.6
		c-1.5,2.4-2.2,5.5-2.2,9.3c0,4.2,0.9,7.8,2.7,10.9c1.8,3.1,3.9,4.6,6.3,4.6c1.6,0,3.2-0.6,4.8-1.7c1.6-1.1,3-2.7,4.1-4.7v2.3
		c-2.6,4.5-6.1,6.8-10.5,6.8c-3.5,0-6.4-1.5-8.6-4.3c-2.2-2.9-3.3-6.7-3.3-11.3c0-4.7,1.2-8.8,3.6-12.1c2.4-3.3,5.3-5,8.7-5
		c1.5,0,3.2,0.4,5.1,1.2c0.8,0.3,1.4,0.5,1.7,0.5c0.7,0,1.2-0.6,1.6-1.7H983.1z"/>
	<path d="M993.8,344.1h1.1v10.4h8.3v2.3H995v19.9c0,2.1,0.4,3.7,1.1,4.8c0.7,1.1,1.8,1.7,3.2,1.7c1.6,0,3.1-1,4.4-3l0.8,1.1
		c-2.1,3.4-4.5,5.2-7.2,5.2c-2,0-3.7-0.8-5-2.5c-1.3-1.7-1.9-3.9-1.9-6.5v-20.7h-4.5v-1.5C989.2,353.1,991.8,349.4,993.8,344.1"/>
</g>
</svg>
