<?xml version="1.0" encoding="utf-8"?>
<!-- Generator: Adobe Illustrator 19.0.0, SVG Export Plug-In . SVG Version: 6.00 Build 0)  -->
<svg version="1.1" id="Layer_1" xmlns="http://www.w3.org/2000/svg" xmlns:xlink="http://www.w3.org/1999/xlink" x="0px" y="0px"
	 viewBox="174.9 -50.9 521.6 216.4" style="enable-background:new 174.9 -50.9 521.6 216.4;" xml:space="preserve">
<style type="text/css">
	.st0{fill:#AF121A;}
	.st1{fill:#960607;}
	.st2{fill:#85755D;}
	.st3{fill:#065844;}
	.st4{fill:#7D6B57;}
	.st5{font-family:'TimesNewRomanPS-ItalicMT';}
	.st6{font-size:33.8491px;}
	.st7{font-family:'TimesNewRomanPSMT';}
</style>
<g>
	<g>
		<path id="path229_89_" class="st0" d="M357,55.9c1.1,1.4-2.9,5.9-4,7.2c-1.1,1.4-4.9,6.9-6.3,8.7c-1.4,1.8-3.3,6.6-3,7.1
			c0.3,0.4,3.2-1.4,5.3-3c2.2-1.6,5.8-7.2,6.7-4.8c0.9,2.4-3.5,6.2-6.6,8.7s-10.5,7.3-12.4,10.5c-2.8-0.9-9.7-5.3-11.6-5.7
			c1.5-3.9,5.3-12.7,5.9-14.9c0.6-2.3,1.6-7.4,2.3-9.3c0.7-1.9,1-6.9,2.8-7.2c1.9-0.3-0.2,5.8-0.7,7.7c-0.5,1.8-2,8.3-0.9,7.8
			s3.4-8.2,4.5-10.8c1.1-2.7,1.5-7.7,3.8-8.1c2.3-0.4,0.2,5.3-0.7,8.3c-0.9,3.1-3.4,9.1-2.3,9.1c1.1,0,4.1-6.3,5.5-8.5
			s3.4-8.2,5.5-7.4c2.1,0.8-1.7,6.2-3.1,8.5c-1.4,2.3-4,7.7-3.2,8.3c0.8,0.6,4.7-4.3,6.6-6.9C353,58.5,355.9,54.5,357,55.9"/>
		<path id="path229_86_" class="st0" d="M234.2,115.8c0.5-1.7,6.5-0.9,8.2-0.7c1.7,0.1,8.5,0.2,10.8,0.4c2.3,0.2,7.3-0.9,7.6-1.4
			c0.2-0.5-2.9-1.9-5.4-2.8c-2.5-0.9-9.2-0.8-7.7-2.9s7.1-0.5,10.9,0.6s11.9,4.7,15.6,4.4c0.8,2.8,1,11,1.7,12.9
			c-4.1,0.9-13.4,2.7-15.7,3.4c-2.2,0.8-7,2.8-9,3.3c-1.9,0.5-6.3,3-7.5,1.6c-1.3-1.4,5-3.1,6.8-3.7s8-3,6.9-3.6s-8.7,1.7-11.5,2.3
			c-2.8,0.6-7.3,3-8.9,1.3c-1.6-1.7,4.2-3.1,7.3-4.1c3-1,9.5-2.2,8.8-3.1s-7.6,0.1-10.1,0.2c-2.6,0-8.7,1.7-9.2-0.5s6.1-2,8.8-2.2
			c2.7-0.2,8.6-1,8.7-1.9c0-1-6.2-1.5-9.5-1.6C238.5,117.6,233.7,117.5,234.2,115.8"/>
		<path id="path229_85_" class="st0" d="M317.2-9.2c1.7,0.5,1,6.5,0.8,8.2c-0.1,1.7-0.1,8.5-0.3,10.8c-0.2,2.3,1.1,7.3,1.5,7.6
			c0.5,0.2,1.8-2.9,2.7-5.5c0.9-2.5,0.7-9.2,2.8-7.8c2.1,1.5,0.6,7.1-0.5,10.9c-1.1,3.8-4.5,12-4.2,15.6c-2.8,0.9-11,1.1-12.8,1.9
			c-1-4-2.9-13.4-3.6-15.6c-0.8-2.2-2.9-7-3.4-8.9s-3.1-6.2-1.7-7.5c1.4-1.3,3.2,4.9,3.8,6.7s3.1,7.9,3.7,6.9
			c0.6-1.1-1.8-8.7-2.5-11.5c-0.6-2.8-3.1-7.2-1.5-8.8s3.2,4.2,4.2,7.2s2.4,9.5,3.3,8.8c0.9-0.7-0.2-7.6-0.3-10.1
			c-0.1-2.6-1.9-8.7,0.3-9.2c2.2-0.5,2.1,6.1,2.3,8.8c0.2,2.7,1.1,8.6,2.1,8.6s1.4-6.2,1.5-9.5C315.5-4.9,315.6-9.7,317.2-9.2"/>
		<path id="path229_84_" class="st0" d="M341.2,37.2c1.1,1.4-2.9,5.9-4,7.2s-4.9,6.9-6.4,8.7c-1.5,1.8-3.3,6.6-3.1,7.1
			c0.3,0.4,3.2-1.4,5.4-2.9c2.2-1.6,5.8-7.2,6.7-4.8c0.9,2.4-3.6,6.2-6.6,8.7c-3.1,2.5-10.6,7.2-12.4,10.4
			c-2.8-0.9-9.6-5.4-11.6-5.8c1.5-3.9,5.3-12.6,6-14.9c0.6-2.3,1.6-7.3,2.3-9.2c0.7-1.9,1-6.9,2.9-7.2s-0.2,5.8-0.7,7.7
			c-0.5,1.8-2,8.3-0.9,7.8s3.5-8.2,4.5-10.8c1.1-2.7,1.6-7.7,3.9-8.1c2.3-0.4,0.2,5.3-0.7,8.3c-0.9,3.1-3.5,9.1-2.3,9.1
			c1.1,0,4.1-6.3,5.5-8.5c1.4-2.1,3.4-8.2,5.5-7.3c2.1,0.8-1.7,6.2-3.1,8.5s-4,7.7-3.2,8.3c0.8,0.6,4.7-4.2,6.7-6.9
			C337.3,39.7,340.1,35.8,341.2,37.2"/>
		<path id="path229_83_" class="st0" d="M297.9,159.7c-0.8,1.6-6.5-0.1-8.2-0.5c-1.7-0.4-8.3-1.5-10.6-2.1c-2.2-0.6-7.4-0.2-7.7,0.2
			c-0.3,0.4,2.6,2.3,4.9,3.6c2.3,1.3,9,2.2,7.2,4c-1.8,1.8-7.1-0.6-10.7-2.3c-3.6-1.7-11-6.5-14.7-6.8c-0.4-2.9,0.8-11,0.3-13
			c4.2-0.3,13.7-0.6,16-1c2.3-0.4,7.3-1.6,9.3-1.9c2-0.2,6.7-2,7.7-0.4s-5.4,2.3-7.3,2.6c-1.9,0.3-8.3,1.7-7.4,2.5
			c1,0.8,8.9-0.4,11.7-0.5c2.9-0.2,7.6-1.9,9,0c1.3,1.9-4.7,2.4-7.8,2.9c-3.2,0.5-9.7,0.8-9.2,1.7c0.5,1,7.5,1.1,10,1.4
			c2.5,0.4,8.8-0.4,9,1.9c0.2,2.3-6.3,1-9,0.8c-2.7-0.3-8.7-0.4-8.9,0.6c-0.2,1,5.8,2.5,9.1,3.1
			C293.9,157.2,298.7,158.1,297.9,159.7"/>
		<path id="path229_82_" class="st0" d="M271.1,34.2c1.7,0.5,1,6.5,0.8,8.2c-0.1,1.7-0.1,8.5-0.3,10.8c-0.2,2.3,1.1,7.3,1.5,7.6
			c0.5,0.2,1.8-2.9,2.7-5.5c0.9-2.5,0.7-9.2,2.8-7.8c2.1,1.5,0.6,7.1-0.5,10.9s-4.5,12-4.2,15.6c-2.8,0.9-11,1.1-12.8,1.9
			c-1-4-2.9-13.4-3.6-15.6c-0.8-2.2-2.9-7-3.4-8.9s-3.1-6.2-1.7-7.5c1.4-1.3,3.2,4.9,3.8,6.7c0.6,1.8,3.1,7.9,3.7,6.9
			c0.6-1.1-1.8-8.7-2.5-11.5c-0.6-2.8-3.1-7.2-1.5-8.8c1.6-1.6,3.2,4.2,4.2,7.2s2.4,9.5,3.3,8.8s-0.2-7.6-0.3-10.1
			c-0.1-2.6-1.9-8.7,0.3-9.2c2.2-0.5,2.1,6.1,2.3,8.8c0.2,2.7,1.1,8.6,2.1,8.6s1.4-6.2,1.5-9.5C269.4,38.6,269.4,33.7,271.1,34.2"/>
		<path id="path229_81_" class="st0" d="M241.7,108.2c-1.5-0.9,0.8-6.5,1.3-8.1c0.6-1.6,2.3-8.1,3.1-10.3c0.8-2.2,0.9-7.3,0.5-7.7
			c-0.4-0.3-2.5,2.4-4,4.6s-3.1,8.7-4.7,6.8c-1.6-2,1.3-7,3.3-10.4s7.5-10.4,8.2-14c2.9-0.1,10.9,1.8,12.9,1.5
			c-0.1,4.2-0.8,13.7-0.6,16c0.2,2.3,0.9,7.5,1,9.5c0,2,1.3,6.8-0.3,7.7c-1.6,0.9-1.8-5.6-1.9-7.5c-0.1-1.9-0.9-8.5-1.8-7.6
			c-0.9,0.9-0.5,8.9-0.6,11.7c-0.1,2.9,1.1,7.8-0.9,8.9c-2,1.1-2-4.9-2.1-8.1c-0.2-3.2,0.2-9.8-0.9-9.3c-1,0.4-1.8,7.4-2.4,9.9
			c-0.6,2.5-0.5,8.8-2.7,8.8c-2.3-0.1-0.4-6.4,0.1-9c0.5-2.7,1.2-8.6,0.3-8.9c-0.9-0.3-3,5.6-3.9,8.8
			C244.5,104.4,243.2,109.1,241.7,108.2"/>
		<path id="path229_80_" class="st0" d="M236.1,17.7c1.6-0.7,4.9,4.3,5.9,5.7s5.4,6.5,6.8,8.4c1.4,1.9,5.5,4.9,6,4.8
			c0.5-0.1-0.5-3.4-1.5-5.9s-5.5-7.5-2.9-7.7c2.6-0.2,5.1,5,6.7,8.6s4.3,12.1,6.9,14.7c-1.6,2.5-7.6,7.9-8.5,9.8
			c-3.4-2.4-10.9-8.4-12.9-9.5c-2-1.2-6.7-3.5-8.4-4.6s-6.4-2.8-6.2-4.6c0.2-1.9,5.6,1.7,7.2,2.7c1.6,1,7.5,4.1,7.3,2.8
			c-0.2-1.2-7-5.4-9.3-7.1c-2.3-1.7-7-3.5-6.8-5.8s5.2,1.1,7.9,2.8c2.7,1.7,7.9,5.7,8.2,4.6c0.2-1.1-5.1-5.6-6.8-7.5
			c-1.7-1.9-7-5.4-5.7-7.2s5.5,3.3,7.4,5.2c1.9,1.9,6.4,5.8,7.2,5.2s-2.9-5.6-5-8.2C237.6,22.2,234.5,18.4,236.1,17.7"/>
		<path id="path229_79_" class="st0" d="M215.8-2.9c1.5,0.9-0.6,6.5-1.1,8.2s-2.1,8.2-2.8,10.4c-0.7,2.2-0.7,7.4-0.3,7.7
			c0.4,0.3,2.5-2.4,3.9-4.7c1.5-2.3,2.8-8.8,4.5-6.9c1.7,1.9-1.1,7.1-3.1,10.5c-2,3.5-7.3,10.5-7.8,14.2c-2.9,0.2-10.9-1.5-12.9-1.2
			c0-4.2,0.4-13.7,0.2-16s-1.1-7.4-1.2-9.5c-0.1-2-1.5-6.8,0.1-7.7c1.6-0.9,1.9,5.5,2.1,7.4s1.1,8.4,2,7.6c0.9-0.9,0.3-8.9,0.3-11.7
			c0-2.9-1.3-7.8,0.7-8.9c2-1.2,2.1,4.8,2.3,8c0.2,3.2,0.1,9.8,1.1,9.3c1-0.4,1.6-7.4,2.1-9.9s0.3-8.9,2.5-8.9c2.3,0,0.6,6.4,0.2,9
			c-0.4,2.7-1,8.6,0,8.9c0.9,0.3,2.9-5.7,3.7-8.8C213.1,0.9,214.3-3.8,215.8-2.9"/>
		<path id="path229_78_" class="st0" d="M275.9,136.9c-1.2-1.3,2.6-6,3.6-7.4s4.6-7.1,5.9-9c1.4-1.9,3-6.8,2.7-7.2
			c-0.3-0.4-3.1,1.5-5.2,3.2c-2.1,1.7-5.4,7.5-6.4,5.1s3.2-6.4,6.2-9c2.9-2.7,10.2-7.8,11.8-11.1c2.8,0.7,9.9,4.8,11.9,5.1
			c-1.3,4-4.6,12.9-5.1,15.2c-0.5,2.3-1.2,7.4-1.8,9.4c-0.6,1.9-0.7,6.9-2.5,7.3c-1.8,0.4-0.1-5.9,0.3-7.7c0.4-1.9,1.6-8.4,0.5-7.8
			s-3,8.3-3.9,11.1c-0.9,2.7-1.2,7.8-3.4,8.3c-2.3,0.5-0.5-5.2,0.3-8.4c0.8-3.1,3-9.3,1.8-9.2c-1.1,0.1-3.8,6.5-5.1,8.8
			c-1.3,2.2-3,8.3-5.1,7.6c-2.2-0.7,1.4-6.3,2.7-8.7c1.2-2.4,3.6-7.9,2.8-8.4c-0.8-0.5-4.5,4.5-6.3,7.3
			C279.7,134.1,277.1,138.2,275.9,136.9"/>
		<path id="path229_77_" class="st0" d="M302.9,105.2c-0.9,1.5-6.5-0.6-8.2-1.1c-1.7-0.5-8.2-2.1-10.4-2.8c-2.2-0.7-7.4-0.7-7.7-0.3
			c-0.3,0.4,2.4,2.5,4.7,3.9c2.3,1.5,8.8,2.8,6.9,4.5c-1.9,1.7-7.1-1.1-10.5-3c-3.5-2-10.6-7.2-14.2-7.8c-0.2-2.9,1.5-10.9,1.2-12.9
			c4.2,0,13.7,0.4,16,0.1c2.3-0.3,7.4-1.1,9.5-1.2c2-0.1,6.8-1.5,7.7,0.1s-5.5,1.9-7.4,2.1s-8.4,1.1-7.5,2s8.9,0.2,11.7,0.3
			c2.9,0,7.7-1.3,8.9,0.7c1.2,2-4.8,2.1-8,2.4c-3.2,0.3-9.8,0.1-9.3,1.1c0.4,1,7.4,1.6,9.9,2.1s8.9,0.2,8.9,2.5s-6.4,0.6-9,0.2
			c-2.7-0.4-8.6-1-8.9,0c-0.3,0.9,5.7,2.9,8.9,3.7C299.1,102.4,303.8,103.7,302.9,105.2"/>
		<path id="path229_75_" class="st0" d="M240.7,13.7c1.5,1-0.9,6.5-1.5,8.1c-0.6,1.6-2.5,8.1-3.3,10.3s-1.1,7.3-0.7,7.7
			c0.4,0.3,2.6-2.3,4.1-4.5c1.6-2.2,3.2-8.7,4.9-6.7c1.6,2-1.4,7-3.5,10.4c-2.1,3.4-7.7,10.2-8.5,13.8c-2.9,0.1-10.8-2-12.8-1.8
			c0.2-4.2,1-13.7,0.9-16c-0.1-2.3-0.8-7.5-0.8-9.5s-1.2-6.9,0.5-7.7c1.7-0.9,1.6,5.6,1.7,7.5c0.1,1.9,0.7,8.5,1.6,7.6
			c0.9-0.9,0.7-8.8,0.8-11.7c0.2-2.9-1-7.8,1.1-8.9c2-1.1,1.9,4.9,2,8.1c0.1,3.2-0.4,9.8,0.7,9.4c1-0.4,1.9-7.3,2.6-9.8
			c0.6-2.5,0.7-8.8,2.9-8.7c2.3,0.1,0.3,6.4-0.3,9c-0.6,2.6-1.4,8.6-0.4,8.9c0.9,0.3,3.1-5.5,4.1-8.7
			C237.8,17.4,239.2,12.7,240.7,13.7"/>
		<path id="path229_71_" class="st0" d="M295.5,70.6c1.8-0.2,3.3,5.6,3.9,7.3c0.5,1.6,3.1,7.9,3.8,10.1c0.7,2.2,3.8,6.4,4.3,6.4
			s0.6-3.4,0.4-6.1c-0.1-2.7-2.9-8.8-0.4-8.2c2.5,0.6,3.3,6.3,3.7,10.3c0.4,3.9,0.3,12.8,2,16.1c-2.2,1.9-9.7,5.2-11.1,6.6
			c-2.5-3.4-7.7-11.3-9.3-13.1c-1.6-1.7-5.3-5.4-6.5-6.9c-1.2-1.6-5.2-4.6-4.5-6.3c0.8-1.7,4.8,3.4,6.1,4.8c1.3,1.4,5.9,6.2,6,4.9
			c0.2-1.2-5-7.3-6.7-9.7c-1.7-2.3-5.6-5.5-4.7-7.6c0.9-2.1,4.5,2.7,6.6,5.1s5.8,7.9,6.4,6.9s-3.1-6.9-4.1-9.2c-1-2.3-5-7.3-3.2-8.6
			c1.8-1.3,4.2,4.8,5.5,7.2c1.2,2.4,4.3,7.5,5.2,7.2s-1-6.3-2.2-9.3C295.5,75.3,293.7,70.8,295.5,70.6"/>
		<path id="path229_70_" class="st0" d="M217.8,72.5c1.7,0.5,1,6.5,0.8,8.2c-0.1,1.7-0.1,8.5-0.3,10.8s1.1,7.3,1.5,7.6
			c0.5,0.2,1.8-2.9,2.7-5.5c0.9-2.5,0.7-9.2,2.8-7.8c2.1,1.5,0.6,7.1-0.5,10.9c-1.1,3.8-4.5,12-4.2,15.6c-2.8,0.9-11,1.1-12.8,1.9
			c-1-4-2.9-13.4-3.6-15.6c-0.8-2.2-2.9-7-3.4-8.9s-3.1-6.2-1.7-7.5c1.4-1.3,3.2,4.9,3.8,6.7c0.6,1.8,3.1,7.9,3.7,6.9
			c0.6-1.1-1.8-8.7-2.5-11.5c-0.6-2.8-3.1-7.2-1.5-8.8c1.6-1.6,3.2,4.2,4.2,7.2s2.4,9.5,3.3,8.8c0.9-0.7-0.2-7.6-0.3-10.1
			c-0.1-2.6-1.9-8.7,0.3-9.2c2.2-0.5,2.1,6.1,2.3,8.7c0.2,2.7,1.1,8.6,2.1,8.6s1.4-6.2,1.5-9.5C216,76.8,216.1,71.9,217.8,72.5"/>
		<path id="path229_69_" class="st0" d="M298.7,118.8c0.2-1.7,6.2-2.2,7.9-2.4c1.7-0.2,8.3-1.5,10.6-1.8c2.3-0.3,7-2.4,7.1-2.9
			s-3.2-1.2-5.9-1.6c-2.7-0.4-9.2,1.1-8.1-1.3c1.1-2.3,6.9-2,10.8-1.6c4,0.3,12.6,2.2,16.2,1.2c1.4,2.6,3.2,10.6,4.3,12.2
			c-3.8,1.7-12.6,5.3-14.6,6.5s-6.3,4.1-8.1,5c-1.8,0.9-5.5,4.2-7.1,3.1c-1.5-1.1,4.2-4,5.9-5c1.6-1,7.2-4.5,6-4.9
			c-1.2-0.4-8.2,3.5-10.8,4.6c-2.6,1.2-6.5,4.4-8.4,3.1s3.5-3.9,6.3-5.5c2.8-1.6,8.8-4.1,8-4.9c-0.8-0.7-7.4,1.7-9.9,2.2
			c-2.5,0.6-8.1,3.5-9.1,1.4c-0.9-2.1,5.5-3.2,8.2-3.9c2.6-0.7,8.2-2.7,8.1-3.7c-0.2-1-6.3-0.2-9.6,0.3
			C303.3,119.7,298.5,120.5,298.7,118.8"/>
		<path id="path229_68_" class="st0" d="M211.4,0.7c0.2-1.7,6.2-2.2,7.9-2.4c1.7-0.2,8.3-1.5,10.6-1.8c2.3-0.3,7-2.4,7.1-2.9
			c0.1-0.5-3.2-1.2-5.9-1.6c-2.7-0.4-9.2,1.1-8.1-1.3c1.1-2.3,6.9-2,10.8-1.6c4,0.3,12.6,2.2,16.2,1.2c1.4,2.6,3.2,10.6,4.3,12.2
			c-3.8,1.7-12.6,5.3-14.6,6.5s-6.3,4.1-8.1,5c-1.8,0.9-5.5,4.2-7.1,3.1c-1.5-1.1,4.2-4,5.9-5c1.6-1,7.2-4.5,6-4.9
			s-8.2,3.5-10.8,4.6c-2.6,1.2-6.5,4.4-8.4,3.1c-1.9-1.3,3.5-3.9,6.3-5.5s8.8-4.1,8-4.9c-0.8-0.7-7.4,1.7-9.9,2.2
			c-2.5,0.6-8.1,3.5-9.1,1.4c-0.9-2.1,5.5-3.2,8.2-3.9c2.6-0.7,8.2-2.7,8.1-3.7c-0.2-1-6.3-0.2-9.6,0.3C216,1.7,211.2,2.5,211.4,0.7
			"/>
		<path id="path229_67_" class="st0" d="M350.7,79.8c0.8,1.6-4,5.2-5.3,6.3c-1.3,1.1-6.1,5.8-7.9,7.3c-1.8,1.5-4.5,5.9-4.3,6.4
			c0.2,0.5,3.4-0.7,5.8-1.9c2.4-1.1,7.1-6,7.5-3.4c0.4,2.5-4.7,5.4-8.2,7.3s-11.7,5.1-14.1,7.9c-2.6-1.4-8.5-7.1-10.3-7.9
			c2.2-3.5,7.6-11.4,8.6-13.5s3-6.9,4-8.7c1-1.7,2.3-6.6,4.2-6.5s-1.3,5.7-2.2,7.4c-0.8,1.7-3.5,7.7-2.3,7.5
			c1.2-0.3,4.9-7.4,6.5-9.8c1.5-2.4,3-7.3,5.3-7.2c2.3,0-0.8,5.2-2.3,8s-5.1,8.3-4,8.5s5.3-5.4,7-7.3c1.8-1.8,4.9-7.4,6.8-6.2
			c1.9,1.2-2.9,5.7-4.7,7.8c-1.8,2-5.4,6.8-4.7,7.5c0.7,0.7,5.4-3.3,7.8-5.5C346.3,81.6,349.9,78.2,350.7,79.8"/>
		<path id="path229_65_" class="st0" d="M275.4,57.4c1.7,0.5,1,6.5,0.8,8.2c-0.1,1.7-0.1,8.5-0.3,10.8c-0.2,2.3,1.1,7.3,1.5,7.6
			c0.5,0.2,1.8-2.9,2.7-5.5c0.9-2.5,0.7-9.2,2.8-7.8c2.1,1.5,0.6,7.1-0.5,10.9s-4.5,12-4.2,15.6c-2.8,0.9-11,1.1-12.8,1.9
			c-1-4-2.9-13.4-3.6-15.6c-0.8-2.2-2.9-7-3.4-8.9s-3.1-6.2-1.7-7.5s3.2,4.9,3.8,6.7c0.6,1.8,3.1,7.9,3.7,6.9
			c0.6-1.1-1.8-8.7-2.5-11.5c-0.6-2.8-3.1-7.2-1.5-8.8c1.6-1.6,3.2,4.2,4.2,7.2s2.4,9.5,3.3,8.8s-0.2-7.6-0.3-10.1
			c-0.1-2.6-1.9-8.7,0.3-9.2c2.2-0.5,2.1,6.1,2.3,8.8c0.2,2.7,1.1,8.6,2.1,8.6s1.4-6.2,1.5-9.5C273.7,61.8,273.7,56.9,275.4,57.4"/>
		<path id="path229_64_" class="st0" d="M306.7,26.2c1.1,1.4-2.9,5.9-4,7.2s-4.9,6.9-6.4,8.7c-1.5,1.8-3.3,6.6-3.1,7.1
			c0.3,0.4,3.2-1.4,5.4-2.9c2.2-1.6,5.8-7.2,6.7-4.8c0.9,2.4-3.6,6.2-6.6,8.7c-3.1,2.5-10.6,7.2-12.4,10.4
			c-2.8-0.9-9.6-5.4-11.6-5.8c1.5-3.9,5.3-12.6,6-14.9c0.6-2.3,1.6-7.3,2.3-9.2c0.7-1.9,1-6.9,2.9-7.2s-0.2,5.8-0.7,7.7
			c-0.5,1.8-2,8.3-0.9,7.8s3.5-8.2,4.5-10.8c1.1-2.7,1.6-7.7,3.9-8.1c2.3-0.4,0.2,5.3-0.7,8.3c-0.9,3.1-3.5,9.1-2.4,9.1
			s4.1-6.3,5.5-8.5c1.4-2.1,3.4-8.2,5.5-7.3c2.1,0.8-1.7,6.2-3.1,8.5c-1.4,2.3-4,7.7-3.2,8.3c0.8,0.6,4.7-4.2,6.7-6.9
			C302.7,28.7,305.6,24.8,306.7,26.2"/>
		<path id="path229_62_" class="st0" d="M257.2,4.8c-1.2,1.3-6.2-2-7.7-2.9S242-2,240-3.1c-2-1.2-7-2.3-7.4-2
			c-0.4,0.3,1.8,2.9,3.7,4.9c1.9,1.9,8,4.7,5.7,5.9s-6.6-2.6-9.6-5.3c-2.9-2.7-8.7-9.4-12.1-10.7c0.5-2.9,3.9-10.3,4-12.3
			c4.1,0.9,13.3,3.4,15.6,3.7s7.5,0.5,9.5,0.9s7,0,7.5,1.8c0.6,1.8-5.8,0.6-7.7,0.4c-1.9-0.2-8.5-0.8-7.8,0.3
			c0.7,1,8.6,2.2,11.4,2.9s7.8,0.4,8.6,2.6c0.7,2.2-5.2,1-8.3,0.5c-3.2-0.5-9.5-2.1-9.3-1s6.9,3.2,9.2,4.2c2.3,1.1,8.6,2.2,8.1,4.4
			s-6.4-0.8-8.9-1.8c-2.5-1-8.2-2.8-8.7-2c-0.5,0.9,4.9,4,7.8,5.6C254.1,1.3,258.5,3.6,257.2,4.8"/>
		<path id="path229_60_" class="st0" d="M314.8,52.8c-1.5-1,1-6.5,1.6-8.1s2.6-8.1,3.4-10.2c0.8-2.2,1.1-7.3,0.8-7.7
			c-0.4-0.3-2.6,2.3-4.2,4.4c-1.6,2.2-3.4,8.6-4.9,6.6c-1.6-2,1.5-7,3.7-10.3c2.2-3.3,7.8-10.1,8.6-13.7c2.9,0,10.8,2.2,12.8,1.9
			c-0.2,4.2-1.2,13.7-1.1,16c0.1,2.3,0.7,7.5,0.6,9.5c0,2,1.1,6.9-0.6,7.7c-1.7,0.8-1.6-5.6-1.7-7.5c-0.1-1.9-0.6-8.5-1.5-7.7
			s-0.8,8.8-1,11.7c-0.2,2.9,0.9,7.8-1.2,8.9c-2,1.1-1.8-5-1.9-8.1c-0.1-3.2,0.5-9.7-0.5-9.4c-1.1,0.4-2,7.3-2.7,9.8
			c-0.7,2.5-0.8,8.8-3,8.7c-2.3-0.1-0.2-6.4,0.4-9c0.6-2.6,1.5-8.5,0.6-8.9c-0.9-0.3-3.2,5.5-4.2,8.6
			C317.8,49.2,316.2,53.8,314.8,52.8"/>
		<path id="path229_59_" class="st0" d="M260.7,139.6c-1.5-1,1-6.5,1.6-8.1s2.6-8.1,3.4-10.2c0.8-2.2,1.1-7.3,0.8-7.7
			c-0.4-0.3-2.6,2.3-4.2,4.4c-1.6,2.2-3.4,8.6-4.9,6.6c-1.6-2,1.5-7,3.7-10.3c2.2-3.3,7.8-10.1,8.6-13.7c2.9,0,10.8,2.2,12.8,1.9
			c-0.2,4.2-1.2,13.7-1.1,16c0.1,2.3,0.7,7.5,0.6,9.5c0,2,1.1,6.9-0.6,7.7c-1.7,0.8-1.6-5.6-1.7-7.5c-0.1-1.9-0.6-8.5-1.5-7.7
			s-0.8,8.8-1,11.7c-0.2,2.9,0.9,7.8-1.2,8.9c-2,1.1-1.8-5-1.9-8.1c-0.1-3.2,0.5-9.7-0.5-9.4c-1.1,0.4-2,7.3-2.7,9.8
			c-0.7,2.5-0.8,8.8-3,8.7c-2.3-0.1-0.2-6.4,0.4-9s1.5-8.5,0.6-8.9c-0.9-0.3-3.2,5.5-4.2,8.6C263.7,136,262.2,140.6,260.7,139.6"/>
		<path id="path229_57_" class="st0" d="M304.3,5.1c-0.3,1.7-6.3,1.8-8,1.9c-1.7,0.1-8.4,0.9-10.7,1.1c-2.3,0.1-7.1,2-7.3,2.4
			c-0.2,0.5,3.1,1.4,5.8,2c2.6,0.6,9.3-0.5,8,1.8c-1.2,2.3-7,1.5-10.9,0.9s-12.4-3-16-2.2c-1.2-2.7-2.5-10.7-3.5-12.5
			c3.9-1.5,12.9-4.5,15-5.6s6.5-3.7,8.4-4.5s5.8-3.8,7.3-2.7c1.5,1.2-4.5,3.7-6.2,4.6c-1.7,0.9-7.5,4-6.4,4.5s8.4-2.9,11.1-3.9
			c2.7-1,6.8-4,8.6-2.6c1.8,1.4-3.8,3.7-6.7,5.1c-2.9,1.4-9.1,3.5-8.3,4.3c0.8,0.8,7.5-1.2,10-1.6c2.5-0.4,8.4-2.9,9.2-0.8
			c0.8,2.1-5.7,2.8-8.4,3.4c-2.6,0.5-8.4,2.2-8.3,3.1c0.1,1,6.3,0.7,9.6,0.3C299.8,3.9,304.6,3.4,304.3,5.1"/>
		<path id="path229_55_" class="st0" d="M228.4,104.6c-1.5-1,1-6.5,1.6-8.1c0.6-1.6,2.6-8.1,3.4-10.2c0.8-2.2,1.1-7.3,0.8-7.7
			c-0.4-0.3-2.6,2.3-4.2,4.4c-1.6,2.2-3.4,8.6-4.9,6.6c-1.6-2,1.5-7,3.7-10.3s7.8-10.1,8.6-13.7c2.9,0,10.8,2.2,12.8,1.9
			c-0.2,4.2-1.2,13.7-1.1,16c0.1,2.3,0.7,7.5,0.6,9.5c0,2,1.1,6.9-0.6,7.7c-1.7,0.8-1.6-5.6-1.7-7.5c-0.1-1.9-0.6-8.5-1.5-7.7
			c-0.9,0.8-0.8,8.8-1,11.7c-0.2,2.9,0.9,7.8-1.2,8.9c-2.1,1.1-1.8-5-1.9-8.1c-0.1-3.2,0.5-9.7-0.5-9.4c-1.1,0.4-2,7.3-2.7,9.8
			s-0.8,8.8-3,8.7c-2.3-0.1-0.2-6.4,0.4-9c0.6-2.6,1.5-8.5,0.6-8.9c-0.9-0.3-3.2,5.5-4.2,8.6C231.3,100.9,229.8,105.6,228.4,104.6"
			/>
		<path id="path229_54_" class="st0" d="M253.6,48.9c-0.8-1.5,3.8-5.3,5.1-6.5c1.3-1.2,6-6,7.7-7.6c1.7-1.5,4.3-6,4.1-6.5
			c-0.2-0.5-3.3,0.8-5.7,2.1c-2.4,1.2-6.9,6.2-7.4,3.7s4.5-5.6,7.9-7.5c3.4-2,11.6-5.5,13.9-8.3c2.6,1.3,8.7,6.8,10.6,7.5
			c-2.1,3.6-7.3,11.6-8.2,13.8c-1,2.1-2.8,7-3.7,8.8c-1,1.8-2.1,6.6-4,6.6s1.1-5.7,1.9-7.5c0.8-1.7,3.3-7.9,2.1-7.5
			c-1.2,0.3-4.7,7.5-6.2,10s-2.8,7.4-5.1,7.4c-2.3,0,0.6-5.2,2-8.1s4.9-8.5,3.7-8.6c-1.1-0.1-5.1,5.6-6.8,7.5
			c-1.7,1.9-4.7,7.5-6.6,6.4c-2-1.1,2.7-5.8,4.4-7.9c1.7-2.1,5.2-7,4.5-7.7c-0.7-0.7-5.3,3.4-7.7,5.8
			C257.9,47,254.5,50.5,253.6,48.9"/>
		<path id="path229_53_" class="st0" d="M340.2,3.3c1.7,0.3,1.9,6.3,2,8s1.1,8.4,1.3,10.7c0.2,2.3,2.1,7.1,2.6,7.3s1.4-3.2,1.9-5.8
			s-0.7-9.2,1.6-8.1c2.3,1.2,1.6,6.9,1.1,10.9c-0.5,3.9-2.8,12.5-1.9,16.1c-2.6,1.3-10.7,2.7-12.4,3.7c-1.6-3.9-4.7-12.9-5.8-14.9
			c-1.1-2.1-3.8-6.5-4.6-8.3c-0.8-1.8-3.9-5.7-2.8-7.2c1.2-1.5,3.8,4.4,4.7,6.1c0.9,1.7,4.2,7.4,4.6,6.3c0.5-1.2-3.1-8.3-4.1-11
			s-4.1-6.7-2.7-8.5c1.4-1.8,3.8,3.7,5.2,6.6c1.4,2.9,3.7,9,4.5,8.2c0.8-0.8-1.3-7.4-1.7-10c-0.4-2.5-3.1-8.3-1-9.2
			c2.1-0.8,2.9,5.7,3.5,8.3s2.3,8.4,3.3,8.2c1-0.1,0.6-6.3,0.1-9.6C339.1,7.9,338.5,3.1,340.2,3.3"/>
		<path id="path229_52_" class="st0" d="M216.1,94.6c-1.7-0.2-2-6.2-2.1-8c-0.2-1.7-1.2-8.4-1.5-10.7c-0.2-2.3-2.2-7.1-2.7-7.2
			s-1.3,3.2-1.8,5.8c-0.5,2.6,0.8,9.2-1.5,8.1s-1.8-6.9-1.3-10.9c0.5-3.9,2.6-12.5,1.7-16.1c2.6-1.3,10.6-2.8,12.4-3.9
			c1.6,3.8,5,12.8,6.1,14.8c1.1,2,3.9,6.4,4.8,8.2c0.8,1.8,4,5.7,2.9,7.1c-1.1,1.5-3.9-4.4-4.8-6c-0.9-1.7-4.3-7.4-4.8-6.2
			c-0.5,1.2,3.2,8.3,4.3,10.9s4.2,6.6,2.9,8.5c-1.4,1.9-3.8-3.6-5.3-6.5c-1.5-2.8-3.9-9-4.6-8.2c-0.8,0.8,1.4,7.4,1.9,9.9
			s3.2,8.2,1.1,9.1c-2.1,0.9-3-5.6-3.7-8.3c-0.6-2.6-2.5-8.3-3.4-8.2c-1,0.1-0.4,6.3,0,9.6C217.2,90,217.9,94.8,216.1,94.6"/>
		<path id="path229_51_" class="st0" d="M320,89.9c-1.6,0.6-4.7-4.5-5.7-6c-1-1.4-5.1-6.8-6.4-8.7c-1.3-1.9-5.3-5.2-5.8-5.1
			s0.3,3.4,1.2,6c0.8,2.6,5.1,7.7,2.5,7.8c-2.6,0.1-4.8-5.3-6.3-8.9c-1.5-3.7-3.7-12.2-6.2-15c1.7-2.4,8-7.6,9-9.3
			c3.3,2.6,10.4,8.9,12.4,10.1c2,1.3,6.5,3.8,8.1,5s6.3,3.1,6,4.9c-0.3,1.9-5.5-2-7.1-3s-7.3-4.4-7.1-3.2c0.2,1.2,6.8,5.7,9,7.6
			c2.2,1.8,6.9,3.8,6.6,6.1c-0.3,2.3-5.1-1.4-7.7-3.2c-2.6-1.8-7.7-6-8-5c-0.3,1.1,4.8,5.8,6.4,7.8s6.8,5.7,5.3,7.5
			c-1.4,1.8-5.4-3.5-7.2-5.5c-1.8-2-6.1-6.1-6.9-5.6c-0.8,0.6,2.6,5.8,4.6,8.4C318.7,85.4,321.6,89.3,320,89.9"/>
		<path id="path229_50_" class="st0" d="M268.4,54.1c0.1,1.8-5.6,3.3-7.3,3.8c-1.7,0.5-7.9,3-10.1,3.7s-6.4,3.7-6.5,4.2
			c0,0.5,3.4,0.6,6.1,0.5s8.8-2.8,8.2-0.3s-6.4,3.2-10.3,3.6c-4,0.4-12.8,0.2-16.1,1.8c-1.9-2.3-5.1-9.8-6.5-11.2
			c3.4-2.4,11.4-7.6,13.2-9.1c1.8-1.5,5.4-5.2,7-6.4c1.6-1.2,4.7-5.2,6.4-4.4c1.7,0.8-3.4,4.8-4.8,6c-1.4,1.2-6.3,5.8-5,6
			c1.2,0.2,7.4-4.9,9.7-6.5c2.4-1.6,5.6-5.6,7.7-4.6c2.1,0.9-2.7,4.5-5.2,6.6c-2.5,2-7.9,5.7-7,6.3c1,0.6,6.9-3,9.3-4
			c2.4-1,7.4-4.9,8.7-3.1c1.3,1.8-4.9,4.2-7.3,5.4c-2.4,1.2-7.6,4.2-7.3,5.1s6.3-0.9,9.4-2.1C263.7,54.1,268.3,52.4,268.4,54.1"/>
		<path id="path229_47_" class="st0" d="M229,101.2c1.7-0.4,4.2,5,5,6.6c0.8,1.5,4.3,7.3,5.3,9.4c1.1,2.1,4.7,5.7,5.2,5.7
			s0-3.4-0.5-6.1c-0.5-2.6-4.2-8.3-1.6-8.1c2.6,0.2,4.2,5.8,5.2,9.6c1,3.8,2.3,12.6,4.5,15.6c-1.9,2.2-8.8,6.6-10,8.3
			c-2.9-3-9.4-10-11.2-11.5s-6-4.5-7.5-5.9s-5.9-3.7-5.4-5.5s5.2,2.6,6.7,3.8c1.5,1.2,6.7,5.2,6.7,4s-6.1-6.5-8.1-8.5
			c-2-2.1-6.4-4.6-5.8-6.8c0.6-2.2,4.9,1.9,7.3,4c2.4,2.1,6.9,6.9,7.3,5.8c0.4-1-4.1-6.4-5.5-8.5c-1.4-2.2-6.1-6.5-4.5-8.1
			c1.6-1.6,4.9,4.1,6.5,6.3c1.6,2.2,5.4,6.8,6.2,6.3c0.9-0.5-2-6-3.6-8.9C229.7,105.8,227.3,101.6,229,101.2"/>
		<path id="path229_24_" class="st1" d="M273.8-14.4c0.2-1.7,6.2-2.2,7.9-2.4c1.7-0.2,8.3-1.5,10.6-1.8c2.3-0.3,7-2.4,7.1-2.9
			s-3.2-1.2-5.9-1.6c-2.7-0.4-9.2,1.1-8.1-1.3c1.1-2.3,6.9-2,10.8-1.6c4,0.3,12.6,2.2,16.2,1.2c1.4,2.6,3.2,10.6,4.3,12.2
			c-3.8,1.7-12.6,5.3-14.6,6.5s-6.3,4.1-8.1,5c-1.8,0.9-5.5,4.2-7.1,3.1c-1.5-1.1,4.2-4,5.9-5c1.6-1,7.2-4.5,6-4.9
			c-1.2-0.4-8.2,3.5-10.8,4.6c-2.6,1.2-6.5,4.4-8.4,3.1c-1.9-1.3,3.5-3.9,6.3-5.5c2.8-1.6,8.8-4.1,8-4.9c-0.8-0.7-7.4,1.7-9.9,2.2
			c-2.5,0.6-8.1,3.5-9.1,1.4c-0.9-2.1,5.5-3.2,8.2-3.9c2.6-0.7,8.2-2.7,8.1-3.7c-0.2-1-6.3-0.2-9.6,0.3
			C278.4-13.5,273.6-12.7,273.8-14.4"/>
		<path id="path229_15_" class="st1" d="M340.1-3.8c1.2-1.3,3.7,2.9,5.4,5.7c1.7,2.8,5.3,7.9,6.1,7.4c0.8-0.5-1.4-6.1-2.6-8.5
			s-4.6-8.1-2.5-8.7c2.2-0.7,3.7,5.5,5,7.8c1.2,2.3,3.8,8.8,4.9,8.9c1.1,0.1-1-6.1-1.6-9.2c-0.7-3.1-2.3-8.9-0.1-8.4
			c2.2,0.6,2.4,5.6,3.2,8.4c0.9,2.7,2.6,10.5,3.7,11.1s0.1-5.9-0.3-7.8c-0.4-1.9-2-8.1-0.1-7.7c1.8,0.4,1.8,5.4,2.3,7.4
			s1.1,7.1,1.6,9.4c0.4,2.3,3.6,11.3,4.8,15.3c-2,0.3-9.2,4.2-12,4.9c-1.6-3.3-8.7-8.6-11.6-11.3c-2.9-2.7-7-6.8-5.9-9.2
			c1.1-2.3,4.3,3.6,6.3,5.3c2.1,1.7,4.8,3.8,5.1,3.3c0.3-0.4-1.2-5.4-2.5-7.3c-1.3-1.9-4.7-7.7-5.7-9.1
			C342.5,2.3,338.9-2.5,340.1-3.8"/>
		<path id="path229_1_" class="st1" d="M346.7,41.7c1.1,1.4-2.9,5.9-4,7.2c-1.1,1.4-4.9,6.9-6.3,8.7c-1.4,1.8-3.3,6.6-3,7.1
			c0.3,0.4,3.2-1.4,5.3-3c2.2-1.6,5.8-7.2,6.7-4.8c0.9,2.4-3.5,6.2-6.6,8.7s-10.5,7.3-12.4,10.5c-2.8-0.9-9.7-5.3-11.6-5.7
			c1.5-3.9,5.3-12.7,5.9-14.9c0.6-2.3,1.6-7.4,2.3-9.3c0.6-1.9,1-6.9,2.8-7.2c1.9-0.3-0.2,5.8-0.7,7.7c-0.5,1.8-2,8.3-0.9,7.8
			s3.4-8.2,4.5-10.8c1.1-2.7,1.5-7.7,3.8-8.1c2.3-0.4,0.2,5.3-0.7,8.3c-0.9,3.1-3.4,9.1-2.3,9.1s4.1-6.3,5.5-8.5s3.4-8.2,5.5-7.4
			s-1.7,6.2-3.1,8.5s-4,7.7-3.2,8.3c0.8,0.6,4.7-4.3,6.6-6.9C342.8,44.3,345.6,40.3,346.7,41.7"/>
		<path id="path229_2_" class="st1" d="M349,35.4c1.7-0.4,4.2,5,5,6.6c0.8,1.5,4.3,7.3,5.3,9.4c1.1,2.1,4.7,5.7,5.2,5.7
			s0-3.4-0.5-6.1c-0.5-2.6-4.2-8.3-1.6-8.1c2.6,0.2,4.2,5.8,5.2,9.6c1,3.8,2.3,12.6,4.5,15.6c-1.9,2.2-8.8,6.6-10,8.3
			c-2.9-3-9.4-10-11.2-11.5c-1.8-1.5-6-4.5-7.5-5.9s-5.9-3.7-5.4-5.5s5.2,2.6,6.7,3.8c1.5,1.2,6.7,5.2,6.7,4s-6.1-6.5-8.1-8.5
			c-2-2.1-6.4-4.6-5.8-6.8c0.6-2.2,4.9,1.9,7.3,4c2.4,2.1,6.9,6.9,7.3,5.8c0.4-1-4.1-6.4-5.5-8.5c-1.4-2.2-6.1-6.5-4.5-8.1
			s4.9,4.1,6.5,6.3c1.6,2.2,5.4,6.8,6.2,6.3c0.9-0.5-2-6-3.6-8.9C349.8,40.1,347.3,35.8,349,35.4"/>
		<path id="path229_3_" class="st1" d="M355.7,99.3c1.1,1.4-2.9,5.9-4,7.2c-1.1,1.4-4.9,6.9-6.3,8.7c-1.4,1.8-3.3,6.6-3,7.1
			c0.3,0.4,3.2-1.4,5.3-3c2.2-1.6,5.8-7.2,6.7-4.8c0.9,2.4-3.5,6.2-6.6,8.7s-10.5,7.3-12.4,10.5c-2.8-0.9-9.7-5.3-11.6-5.7
			c1.5-3.9,5.3-12.7,5.9-14.9c0.6-2.3,1.6-7.4,2.3-9.3c0.6-1.9,1-6.9,2.8-7.2c1.9-0.3-0.2,5.8-0.7,7.7c-0.5,1.8-2,8.3-0.9,7.8
			s3.4-8.2,4.5-10.8c1.1-2.7,1.5-7.7,3.8-8.1c2.3-0.4,0.2,5.3-0.7,8.3c-0.9,3.1-3.4,9.1-2.3,9.1s4.1-6.3,5.5-8.5s3.4-8.2,5.5-7.4
			c2.1,0.8-1.7,6.2-3.1,8.5s-4,7.7-3.2,8.3c0.8,0.6,4.7-4.3,6.6-6.9C351.8,101.9,354.6,98,355.7,99.3"/>
		<path id="path229_4_" class="st1" d="M310.1,115.5c-0.8,1.6-6.5-0.1-8.2-0.5c-1.7-0.4-8.3-1.5-10.6-2.1c-2.2-0.6-7.4-0.2-7.7,0.2
			c-0.3,0.4,2.6,2.3,4.9,3.6c2.3,1.3,9,2.2,7.2,4c-1.8,1.8-7.1-0.6-10.7-2.3c-3.6-1.7-11-6.5-14.7-6.8c-0.4-2.9,0.8-11,0.3-13
			c4.2-0.3,13.7-0.6,16-1c2.3-0.4,7.3-1.6,9.3-1.9c2-0.2,6.7-2,7.7-0.4s-5.4,2.3-7.3,2.6c-1.9,0.3-8.3,1.7-7.4,2.5
			c1,0.8,8.9-0.4,11.7-0.5c2.9-0.2,7.6-1.9,9,0c1.3,1.9-4.7,2.4-7.8,2.9c-3.2,0.5-9.7,0.8-9.2,1.7c0.5,1,7.5,1.1,10,1.4
			c2.5,0.4,8.8-0.4,9,1.9c0.2,2.3-6.3,1-9,0.8c-2.7-0.3-8.7-0.4-8.9,0.6c-0.2,1,5.8,2.5,9.1,3.1C306.1,113,310.9,113.9,310.1,115.5"
			/>
		<path id="path229_5_" class="st1" d="M277.2,138c0.6-1.7,6.5-0.7,8.2-0.5c1.7,0.2,8.5,0.5,10.8,0.7c2.3,0.3,7.4-0.8,7.6-1.2
			c0.2-0.5-2.9-1.9-5.3-2.9c-2.5-1-9.2-1-7.6-3.1c1.6-2,7.1-0.3,10.9,0.9c3.8,1.2,11.8,5,15.5,4.9c0.8,2.8,0.7,11,1.4,12.9
			c-4.1,0.8-13.5,2.3-15.7,3c-2.2,0.7-7.1,2.6-9,3c-2,0.5-6.4,2.8-7.6,1.4c-1.2-1.4,5.1-3,6.9-3.5c1.8-0.6,8.1-2.7,7-3.4
			c-1-0.7-8.7,1.5-11.5,2c-2.8,0.5-7.3,2.8-8.9,1.1c-1.6-1.7,4.3-3,7.4-3.9c3.1-0.9,9.6-2,8.9-2.9c-0.6-0.9-7.6-0.1-10.1-0.1
			c-2.6,0-8.7,1.5-9.2-0.7c-0.4-2.2,6.1-1.8,8.8-1.9c2.7-0.1,8.6-0.7,8.7-1.7s-6.1-1.7-9.4-1.9C281.5,139.9,276.6,139.7,277.2,138"
			/>
		<path id="path229_6_" class="st1" d="M223.1,135.1c0.5-1.7,6.5-0.9,8.2-0.7c1.7,0.1,8.5,0.2,10.8,0.4c2.3,0.2,7.3-0.9,7.6-1.4
			c0.2-0.5-2.9-1.9-5.4-2.8s-9.2-0.8-7.7-2.9s7.1-0.5,10.9,0.6s11.9,4.7,15.6,4.4c0.8,2.8,1,11,1.7,12.9c-4.1,0.9-13.4,2.7-15.7,3.4
			c-2.2,0.8-7,2.8-8.9,3.3c-1.9,0.5-6.3,3-7.5,1.6c-1.3-1.4,5-3.1,6.8-3.7s8-3,6.9-3.6c-1.1-0.6-8.7,1.7-11.5,2.3
			c-2.8,0.6-7.3,3-8.9,1.3c-1.6-1.7,4.2-3.1,7.3-4.1c3-1,9.5-2.2,8.8-3.1s-7.6,0.1-10.1,0.2c-2.6,0-8.7,1.7-9.2-0.5s6.1-2,8.8-2.2
			c2.7-0.2,8.6-1,8.7-1.9c0-1-6.2-1.5-9.5-1.6C227.5,136.9,222.6,136.7,223.1,135.1"/>
		<path id="path229_7_" class="st1" d="M208.8,65.6c1.7,0.5,1,6.5,0.8,8.2c-0.1,1.7-0.1,8.5-0.3,10.8s1.1,7.3,1.5,7.6
			c0.5,0.2,1.8-2.9,2.7-5.5c0.9-2.5,0.7-9.2,2.8-7.8c2.1,1.5,0.6,7.1-0.5,10.9c-1.1,3.8-4.5,12-4.2,15.6c-2.8,0.9-11,1.1-12.8,1.9
			c-1-4-2.9-13.4-3.6-15.6c-0.8-2.2-2.9-7-3.4-8.9s-3.1-6.2-1.7-7.5c1.4-1.3,3.2,4.9,3.8,6.7c0.6,1.8,3.1,7.9,3.7,6.9
			c0.6-1.1-1.8-8.7-2.5-11.5c-0.6-2.8-3.1-7.2-1.5-8.8c1.6-1.6,3.2,4.2,4.2,7.2s2.4,9.5,3.3,8.8c0.9-0.7-0.2-7.6-0.3-10.1
			c-0.1-2.6-1.9-8.7,0.3-9.2c2.2-0.5,2.1,6.1,2.3,8.8c0.2,2.7,1.1,8.6,2.1,8.6s1.4-6.2,1.5-9.5C207,70,207.1,65.1,208.8,65.6"/>
		<path id="path229_8_" class="st1" d="M313.5,51.3c1.1,1.4-2.9,5.9-4,7.2c-1.1,1.3-4.9,6.9-6.4,8.7c-1.5,1.8-3.3,6.6-3.1,7.1
			c0.3,0.4,3.2-1.4,5.4-2.9c2.2-1.6,5.8-7.2,6.7-4.8c0.9,2.4-3.6,6.2-6.6,8.7c-3.1,2.5-10.6,7.2-12.4,10.4
			c-2.8-0.9-9.6-5.4-11.6-5.8c1.5-3.9,5.3-12.6,6-14.9c0.6-2.3,1.6-7.3,2.3-9.2c0.7-1.9,1-6.9,2.9-7.2c1.9-0.3-0.2,5.8-0.7,7.7
			c-0.5,1.8-2,8.3-0.9,7.8s3.5-8.2,4.5-10.8c1.1-2.7,1.6-7.7,3.9-8.1c2.3-0.4,0.2,5.3-0.7,8.3c-0.9,3.1-3.5,9.1-2.4,9.1
			s4.1-6.3,5.5-8.5c1.4-2.1,3.4-8.2,5.5-7.3c2.1,0.8-1.7,6.2-3.1,8.5s-4,7.7-3.2,8.3c0.8,0.6,4.7-4.2,6.7-6.9
			C309.6,53.8,312.4,49.9,313.5,51.3"/>
		<path id="path229_9_" class="st1" d="M233.6,9.3c-0.8,1.6-6.5-0.1-8.2-0.5s-8.3-1.5-10.6-2.1c-2.2-0.6-7.4-0.2-7.7,0.2
			c-0.3,0.4,2.6,2.3,4.9,3.6s9,2.2,7.2,4s-7.1-0.6-10.7-2.3c-3.6-1.7-11-6.5-14.7-6.8c-0.4-2.9,0.8-11,0.3-13c4.2-0.3,13.7-0.6,16-1
			s7.3-1.6,9.3-1.9c2-0.2,6.7-2,7.7-0.4s-5.4,2.3-7.3,2.6c-1.9,0.3-8.3,1.7-7.4,2.5c1,0.8,8.9-0.4,11.7-0.5c2.9-0.2,7.6-1.9,9,0
			c1.3,1.9-4.7,2.4-7.8,2.9c-3.2,0.5-9.7,0.8-9.2,1.7c0.5,1,7.5,1.1,10,1.4c2.5,0.4,8.8-0.4,9,1.9c0.2,2.3-6.3,1-9,0.8
			c-2.7-0.3-8.7-0.4-8.9,0.6c-0.2,1,5.8,2.5,9.1,3.1C229.6,6.9,234.4,7.8,233.6,9.3"/>
		<path id="path229_10_" class="st1" d="M249,44.6c1.7,0.5,1,6.5,0.8,8.2c-0.1,1.7-0.1,8.5-0.3,10.8s1.1,7.3,1.5,7.6
			c0.5,0.2,1.8-2.9,2.7-5.5c0.9-2.5,0.7-9.2,2.8-7.8c2.1,1.5,0.6,7.1-0.5,10.9s-4.5,12-4.2,15.6c-2.8,0.9-11,1.1-12.8,1.9
			c-1-4-2.9-13.4-3.6-15.6c-0.8-2.2-2.9-7-3.4-8.9s-3.1-6.2-1.7-7.5c1.4-1.3,3.2,4.9,3.8,6.7c0.6,1.8,3.1,7.9,3.7,6.9
			c0.6-1.1-1.8-8.7-2.5-11.5c-0.6-2.8-3.1-7.2-1.5-8.8c1.6-1.6,3.2,4.2,4.2,7.2s2.4,9.5,3.3,8.8c0.9-0.7-0.2-7.6-0.3-10.1
			c-0.1-2.6-1.9-8.7,0.3-9.2c2.2-0.5,2.1,6.1,2.3,8.8c0.2,2.7,1.1,8.6,2.1,8.6s1.4-6.2,1.5-9.5C247.2,48.9,247.3,44,249,44.6"/>
		<path id="path229_11_" class="st1" d="M299.6,13c-1.5-0.9,0.8-6.5,1.3-8.1c0.6-1.6,2.3-8.1,3.1-10.3c0.8-2.2,0.9-7.3,0.5-7.7
			c-0.4-0.3-2.5,2.4-4,4.6c-1.5,2.2-3.1,8.7-4.7,6.8c-1.6-2,1.3-7,3.3-10.4s7.5-10.4,8.2-14c2.9-0.1,10.9,1.8,12.9,1.5
			c-0.1,4.2-0.8,13.7-0.6,16c0.2,2.3,0.9,7.5,1,9.5c0,2,1.3,6.8-0.3,7.7s-1.8-5.6-1.9-7.5s-0.9-8.5-1.8-7.6s-0.5,8.9-0.6,11.7
			c-0.1,2.9,1.1,7.8-0.9,8.9c-2,1.1-2-4.9-2.1-8.1c-0.2-3.2,0.2-9.8-0.9-9.3c-1,0.4-1.8,7.4-2.4,9.9c-0.6,2.5-0.5,8.8-2.7,8.8
			c-2.3-0.1-0.4-6.4,0.1-9c0.5-2.7,1.2-8.6,0.3-8.9c-0.9-0.3-3,5.6-3.9,8.8C302.4,9.2,301.1,13.9,299.6,13"/>
		<path id="path229_12_" class="st1" d="M184.6,20.8c1.6-0.7,4.9,4.3,5.9,5.7s5.4,6.5,6.8,8.4c1.4,1.9,5.5,4.9,6,4.8
			c0.5-0.1-0.5-3.4-1.5-5.9s-5.5-7.5-2.9-7.7c2.6-0.2,5.1,5,6.7,8.6c1.6,3.6,4.3,12.1,6.9,14.7c-1.6,2.5-7.6,7.9-8.5,9.8
			c-3.4-2.4-10.9-8.4-12.9-9.5c-2-1.2-6.7-3.5-8.4-4.6s-6.4-2.8-6.2-4.6c0.2-1.9,5.6,1.7,7.2,2.7c1.6,1,7.5,4.1,7.3,2.8
			c-0.2-1.2-7-5.4-9.3-7.1c-2.3-1.7-7-3.5-6.8-5.8c0.2-2.3,5.2,1.1,7.9,2.8s7.9,5.7,8.2,4.6c0.2-1.1-5.1-5.6-6.8-7.5
			c-1.7-1.9-7-5.4-5.7-7.2s5.5,3.3,7.4,5.2c1.9,1.9,6.4,5.8,7.2,5.2c0.8-0.6-2.9-5.6-5-8.2C186,25.3,182.9,21.5,184.6,20.8"/>
		<path id="path229_13_" class="st1" d="M198.9,5c1.5,0.9-0.6,6.5-1.1,8.2s-2.1,8.2-2.8,10.4s-0.7,7.4-0.3,7.7s2.5-2.4,3.9-4.7
			c1.5-2.3,2.8-8.8,4.5-6.9c1.7,1.9-1.1,7.1-3.1,10.5c-2,3.5-7.3,10.5-7.8,14.2c-2.9,0.2-10.9-1.5-12.9-1.2c0-4.2,0.4-13.7,0.2-16
			c-0.2-2.3-1.1-7.4-1.2-9.5c-0.1-2-1.5-6.8,0.1-7.7c1.6-0.9,1.9,5.5,2.1,7.4c0.2,1.9,1.1,8.4,2,7.6c0.9-0.9,0.3-8.9,0.3-11.7
			c0-2.9-1.3-7.8,0.7-8.9c2-1.2,2.1,4.8,2.3,8s0.1,9.8,1.1,9.3c1-0.4,1.6-7.4,2.1-9.9s0.3-8.9,2.5-8.9c2.3,0,0.6,6.4,0.2,9
			c-0.4,2.7-1,8.6,0,8.9c0.9,0.3,2.9-5.7,3.7-8.8C196.1,8.8,197.3,4.1,198.9,5"/>
		<path id="path229_14_" class="st1" d="M241,98.4c-1.2-1.3,2.6-6,3.6-7.4s4.6-7.1,5.9-9c1.4-1.9,3-6.8,2.7-7.2
			c-0.3-0.4-3.1,1.5-5.2,3.2c-2.1,1.7-5.4,7.5-6.4,5.1s3.2-6.4,6.2-9c2.9-2.7,10.2-7.8,11.8-11.1c2.8,0.7,9.9,4.8,11.9,5.1
			c-1.3,4-4.6,12.9-5.1,15.2c-0.5,2.3-1.2,7.4-1.8,9.4c-0.6,1.9-0.7,6.9-2.5,7.3c-1.8,0.4-0.1-5.9,0.3-7.7c0.4-1.9,1.6-8.4,0.5-7.8
			s-3,8.3-3.9,11.1c-0.9,2.7-1.2,7.8-3.4,8.3c-2.3,0.5-0.5-5.3,0.3-8.4c0.7-3.1,3-9.3,1.8-9.2c-1.1,0.1-3.8,6.5-5.1,8.8
			c-1.3,2.2-3,8.3-5.1,7.6c-2.2-0.7,1.4-6.3,2.7-8.7c1.2-2.4,3.6-7.9,2.8-8.4c-0.8-0.5-4.5,4.5-6.3,7.3
			C244.8,95.6,242.2,99.7,241,98.4"/>
		<path id="path229_16_" class="st1" d="M260.6,8c-0.9,1.5-6.5-0.6-8.2-1.1s-8.2-2.1-10.4-2.8c-2.2-0.7-7.4-0.7-7.7-0.3
			s2.4,2.5,4.7,3.9c2.3,1.5,8.8,2.8,6.9,4.5c-1.9,1.7-7.1-1.1-10.5-3c-3.5-2-10.6-7.2-14.2-7.8c-0.2-2.9,1.5-10.9,1.2-12.9
			c4.2,0,13.7,0.4,16,0.1c2.3-0.3,7.4-1.1,9.5-1.2c2-0.1,6.8-1.5,7.7,0.1s-5.5,1.9-7.4,2.1c-1.9,0.2-8.4,1.1-7.5,2
			c0.9,0.9,8.9,0.2,11.7,0.3c2.9,0,7.7-1.3,8.9,0.7c1.2,2-4.8,2.1-8,2.4c-3.2,0.3-9.8,0.1-9.3,1.1c0.4,1,7.4,1.6,9.9,2.1
			s8.9,0.2,8.9,2.5s-6.4,0.6-9,0.2c-2.7-0.4-8.6-1-8.9,0c-0.3,0.9,5.7,2.9,8.9,3.7C256.8,5.2,261.5,6.5,260.6,8"/>
		<path id="path229_17_" class="st1" d="M324.9-19c1.3-1.1,6,2.6,7.4,3.6s7.1,4.6,9,5.9c1.9,1.4,6.8,3,7.2,2.7s-1.5-3.1-3.2-5.2
			c-1.7-2.1-7.5-5.5-5.1-6.5s6.4,3.2,9,6.2c2.7,2.9,7.7,10.2,11,11.9c-0.7,2.8-4.9,9.9-5.2,11.9c-4-1.3-12.9-4.7-15.2-5.2
			c-2.3-0.5-7.4-1.3-9.4-1.8c-1.9-0.6-6.9-0.7-7.3-2.5c-0.4-1.8,5.9-0.1,7.7,0.3c1.9,0.4,8.4,1.6,7.8,0.5s-8.3-3-11-4
			c-2.7-0.9-7.8-1.2-8.3-3.4c-0.5-2.3,5.3-0.5,8.4,0.3s9.3,3,9.2,1.9s-6.5-3.8-8.7-5.1c-2.2-1.3-8.3-3-7.6-5.2
			c0.7-2.2,6.2,1.4,8.6,2.7c2.4,1.3,7.9,3.6,8.4,2.8s-4.5-4.5-7.2-6.3C327.7-15.2,323.6-17.9,324.9-19"/>
		<path id="path229_18_" class="st1" d="M361.5,65.1c1.5,1-0.9,6.5-1.5,8.1s-2.5,8.1-3.3,10.3c-0.8,2.2-1.1,7.3-0.7,7.7
			c0.4,0.3,2.6-2.3,4.1-4.5c1.6-2.2,3.2-8.7,4.9-6.7c1.6,2-1.4,7-3.5,10.4s-7.7,10.2-8.5,13.8c-2.9,0.1-10.8-2-12.8-1.8
			c0.2-4.2,1-13.7,0.9-16s-0.8-7.5-0.8-9.5s-1.2-6.9,0.5-7.7c1.7-0.9,1.6,5.6,1.7,7.5c0.1,1.9,0.7,8.5,1.6,7.6s0.7-8.8,0.8-11.7
			c0.2-2.9-0.9-7.8,1.1-8.9s1.9,4.9,2,8.1s-0.4,9.8,0.7,9.4c1-0.4,1.9-7.3,2.6-9.8c0.6-2.5,0.7-8.8,2.9-8.7c2.3,0.1,0.3,6.4-0.3,9
			s-1.4,8.6-0.4,8.9c0.9,0.3,3.1-5.5,4.1-8.7C358.6,68.7,360,64.1,361.5,65.1"/>
		<path id="path229_19_" class="st1" d="M331.2,34.7c0.5-1.7,6.5-1,8.2-0.8c1.7,0.1,8.5,0.1,10.8,0.3c2.3,0.2,7.3-1,7.6-1.5
			c0.2-0.5-2.9-1.8-5.5-2.7c-2.5-0.9-9.2-0.7-7.8-2.8c1.5-2.1,7.1-0.6,10.9,0.5s12,4.6,15.6,4.3c0.9,2.8,1.1,11,1.9,12.8
			c-4,1-13.4,2.8-15.6,3.6c-2.2,0.8-7,2.8-8.9,3.4c-1.9,0.5-6.2,3.1-7.5,1.7c-1.3-1.4,4.9-3.1,6.7-3.8c1.8-0.6,8-3.1,6.9-3.7
			s-8.7,1.8-11.5,2.5c-2.8,0.6-7.2,3.1-8.8,1.5c-1.6-1.7,4.2-3.2,7.2-4.2s9.5-2.4,8.8-3.3c-0.7-0.9-7.6,0.2-10.1,0.3
			c-2.6,0.1-8.7,1.8-9.2-0.4c-0.5-2.2,6.1-2.1,8.8-2.3c2.7-0.2,8.6-1.1,8.6-2.1s-6.2-1.5-9.5-1.5C335.5,36.4,330.6,36.3,331.2,34.7"
			/>
		<path id="path229_20_" class="st1" d="M310.5,107.4c1.6-0.7,4.9,4.4,5.9,5.8s5.3,6.6,6.7,8.5c1.3,1.9,5.5,5,6,4.8
			c0.5-0.1-0.5-3.4-1.4-5.9s-5.4-7.5-2.8-7.7c2.6-0.2,5,5.1,6.6,8.7s4.2,12.1,6.7,14.7c-1.6,2.5-7.7,7.9-8.7,9.7
			c-3.3-2.5-10.8-8.5-12.8-9.7s-6.6-3.5-8.3-4.7c-1.7-1.1-6.4-2.8-6.1-4.7c0.2-1.9,5.6,1.8,7.2,2.7c1.6,1,7.4,4.2,7.2,2.9
			c-0.2-1.2-7-5.5-9.2-7.2c-2.3-1.7-7-3.6-6.8-5.9c0.2-2.3,5.1,1.2,7.8,2.9c2.7,1.7,7.9,5.8,8.1,4.7c0.3-1.1-5-5.7-6.7-7.6
			c-1.7-1.9-7-5.5-5.6-7.3s5.5,3.3,7.4,5.3c1.9,1.9,6.3,5.9,7.1,5.3c0.8-0.6-2.8-5.7-4.9-8.2C311.9,111.9,308.8,108.1,310.5,107.4"
			/>
		<path id="path229_21_" class="st1" d="M287.3,155.9c-1.2,1.3-6.3-1.7-7.8-2.6c-1.5-0.8-7.7-3.5-9.7-4.6s-7.1-2-7.5-1.7
			s1.9,2.8,3.9,4.7c2,1.8,8.2,4.4,6,5.7c-2.2,1.3-6.8-2.3-9.8-4.9c-3.1-2.5-9.1-9-12.6-10.2c0.3-2.9,3.4-10.5,3.5-12.5
			c4.1,0.7,13.4,2.8,15.7,3c2.3,0.2,7.5,0.2,9.5,0.5s7-0.3,7.6,1.5s-5.8,0.9-7.7,0.7c-1.9-0.1-8.5-0.4-7.8,0.6
			c0.7,1,8.7,1.8,11.5,2.4c2.8,0.5,7.9,0.1,8.7,2.2c0.8,2.2-5.1,1.2-8.3,0.9c-3.2-0.3-9.6-1.7-9.4-0.6c0.3,1.1,7,2.9,9.4,3.8
			c2.4,1,8.7,1.8,8.3,4s-6.4-0.5-8.9-1.4s-8.3-2.5-8.7-1.6s5.1,3.8,8.1,5.2C284,152.5,288.4,154.6,287.3,155.9"/>
		<path id="path229_22_" class="st1" d="M210.5,96.9c1.8-0.2,3.3,5.6,3.9,7.3c0.5,1.6,3.1,7.9,3.8,10.1s3.8,6.4,4.3,6.4
			s0.6-3.4,0.4-6.1c-0.1-2.7-2.9-8.8-0.4-8.2c2.5,0.6,3.3,6.3,3.7,10.3c0.4,3.9,0.3,12.8,2,16.1c-2.2,1.9-9.7,5.2-11.1,6.6
			c-2.5-3.4-7.7-11.3-9.3-13.1c-1.6-1.7-5.3-5.4-6.5-6.9c-1.2-1.6-5.2-4.6-4.5-6.3c0.8-1.7,4.8,3.4,6.1,4.8c1.3,1.4,5.9,6.2,6,4.9
			c0.2-1.2-5-7.3-6.7-9.7c-1.7-2.3-5.6-5.5-4.7-7.6c0.9-2.1,4.5,2.7,6.6,5.1c2.1,2.4,5.8,7.9,6.4,6.9c0.6-1-3.1-6.9-4.1-9.3
			c-1-2.3-5-7.3-3.2-8.6c1.8-1.3,4.2,4.8,5.5,7.2c1.2,2.4,4.3,7.5,5.2,7.2s-1-6.3-2.2-9.3C210.5,101.6,208.8,97.1,210.5,96.9"/>
		<path id="path229_23_" class="st1" d="M199,35.1c1.7,0.5,1,6.5,0.8,8.2c-0.1,1.7-0.1,8.5-0.3,10.8s1.1,7.3,1.5,7.6
			c0.5,0.2,1.8-2.9,2.7-5.5c0.9-2.5,0.7-9.2,2.8-7.8c2.1,1.5,0.6,7.1-0.5,10.9c-1.1,3.8-4.5,12-4.2,15.6c-2.8,0.9-11,1.1-12.8,1.9
			c-1-4-2.9-13.4-3.6-15.6c-0.8-2.2-2.9-7-3.4-8.9s-3.1-6.2-1.7-7.5s3.2,4.9,3.8,6.7c0.6,1.8,3.1,7.9,3.7,6.9
			c0.6-1.1-1.8-8.7-2.5-11.5c-0.6-2.8-3.1-7.2-1.5-8.8c1.6-1.6,3.2,4.2,4.2,7.2s2.4,9.5,3.3,8.8c0.9-0.7-0.2-7.6-0.3-10.1
			c-0.1-2.6-1.9-8.7,0.3-9.2c2.2-0.5,2.1,6.1,2.3,8.8c0.2,2.7,1.1,8.6,2.1,8.6s1.4-6.2,1.5-9.5C197.2,39.5,197.3,34.6,199,35.1"/>
		<path id="path229_26_" class="st1" d="M348.9,72.6c0.8,1.6-4,5.2-5.3,6.3c-1.3,1.1-6.1,5.8-7.9,7.3s-4.5,5.9-4.3,6.4
			c0.2,0.5,3.4-0.7,5.8-1.9c2.4-1.1,7.1-6,7.5-3.4c0.4,2.5-4.7,5.4-8.2,7.3s-11.7,5.1-14.1,7.9c-2.6-1.4-8.5-7.1-10.3-7.9
			c2.2-3.5,7.6-11.4,8.6-13.5s3-6.9,4-8.7c1-1.7,2.3-6.6,4.2-6.5s-1.3,5.7-2.2,7.4c-0.8,1.7-3.5,7.7-2.3,7.4
			c1.2-0.3,4.9-7.4,6.5-9.8c1.5-2.4,3-7.3,5.3-7.2c2.3,0-0.8,5.2-2.3,8s-5.1,8.3-4,8.5s5.3-5.4,7-7.3c1.8-1.8,4.9-7.4,6.8-6.2
			c1.9,1.2-2.9,5.7-4.7,7.8c-1.8,2-5.4,6.8-4.7,7.5c0.7,0.7,5.4-3.3,7.8-5.5C344.5,74.4,348.1,71.1,348.9,72.6"/>
		<path id="path229_27_" class="st1" d="M322.5-1.2c1.4-1,3.1,3.6,4.2,6.7c1.1,3.1,3.6,8.8,4.5,8.5s-0.1-6.2-0.8-8.8
			c-0.7-2.6-2.9-8.8-0.6-9s2.5,6.1,3.3,8.6c0.8,2.5,1.9,9.3,3,9.7s0.3-6.2,0.3-9.4s-0.5-9.2,1.6-8.2s1.2,6,1.5,8.8
			c0.3,2.8,0.4,10.8,1.3,11.6s1.3-5.8,1.3-7.7s-0.3-8.4,1.4-7.6c1.7,0.8,0.7,5.7,0.8,7.7s-0.3,7.2-0.4,9.5c0,2.3,1.2,11.8,1.6,15.9
			c-2-0.2-9.8,2.3-12.8,2.3c-0.9-3.6-6.8-10.2-9-13.4c-2.3-3.3-5.5-8.1-4-10.2c1.5-2.1,3.5,4.3,5.1,6.5c1.7,2.1,4,4.7,4.3,4.3
			c0.4-0.4-0.1-5.5-1-7.6s-3.1-8.5-3.7-10.1C323.6,5.2,321-0.2,322.5-1.2"/>
		<path id="path229_28_" class="st1" d="M217.8,0c1.7,0.5,1,6.5,0.8,8.2c-0.1,1.7-0.1,8.5-0.3,10.8s1.1,7.3,1.5,7.6
			c0.5,0.2,1.8-2.9,2.7-5.5c0.9-2.5,0.7-9.2,2.8-7.8c2.1,1.5,0.6,7.1-0.5,10.9c-1.1,3.8-4.5,12-4.2,15.6c-2.8,0.9-11,1.1-12.8,1.9
			c-1-4-2.9-13.4-3.6-15.6c-0.8-2.2-2.9-7-3.4-8.9s-3.1-6.2-1.7-7.5c1.4-1.3,3.2,4.9,3.8,6.7c0.6,1.8,3.1,7.9,3.7,6.9
			c0.6-1.1-1.8-8.7-2.5-11.5C203.5,9,201,4.6,202.6,3c1.6-1.6,3.2,4.2,4.2,7.2s2.4,9.5,3.3,8.8c0.9-0.7-0.2-7.6-0.3-10.1
			c-0.1-2.6-1.9-8.7,0.3-9.2c2.2-0.5,2.1,6.1,2.3,8.8c0.2,2.7,1.1,8.6,2.1,8.6s1.4-6.2,1.5-9.5C216,4.4,216.1-0.5,217.8,0"/>
		<path id="path229_29_" class="st1" d="M329.7,13.7c1.1,1.4-2.9,5.9-4,7.2s-4.9,6.9-6.4,8.7s-3.3,6.6-3.1,7.1
			c0.3,0.4,3.2-1.4,5.4-2.9c2.2-1.6,5.8-7.2,6.7-4.8s-3.6,6.2-6.6,8.7c-3.1,2.5-10.6,7.2-12.4,10.4c-2.8-0.9-9.6-5.4-11.6-5.8
			c1.5-3.9,5.3-12.6,6-14.9c0.6-2.3,1.6-7.3,2.3-9.2c0.7-1.9,1-6.9,2.9-7.2s-0.2,5.8-0.7,7.7c-0.5,1.8-2,8.3-0.9,7.8
			s3.5-8.2,4.5-10.8c1.1-2.7,1.6-7.7,3.9-8.1c2.3-0.4,0.2,5.3-0.7,8.3c-0.9,3.1-3.5,9.1-2.4,9.1s4.1-6.3,5.5-8.5
			c1.4-2.1,3.4-8.2,5.5-7.3c2.1,0.8-1.7,6.2-3.1,8.5c-1.4,2.3-4,7.7-3.2,8.3c0.8,0.6,4.7-4.2,6.7-6.9
			C325.7,16.2,328.6,12.3,329.7,13.7"/>
		<path id="path229_30_" class="st1" d="M341.4,67.2c-0.8,1.6-6.5-0.1-8.2-0.5c-1.7-0.4-8.3-1.5-10.6-2.1c-2.2-0.6-7.4-0.2-7.7,0.2
			c-0.3,0.4,2.6,2.3,4.9,3.6c2.3,1.3,9,2.2,7.2,4c-1.8,1.8-7.1-0.6-10.7-2.3c-3.6-1.7-11-6.5-14.7-6.8c-0.4-2.9,0.8-11,0.3-13
			c4.2-0.3,13.7-0.6,16-1c2.3-0.4,7.3-1.6,9.3-1.9c2-0.2,6.7-2,7.7-0.4s-5.4,2.3-7.3,2.6c-1.9,0.3-8.3,1.7-7.4,2.5
			c1,0.8,8.9-0.4,11.7-0.5c2.9-0.2,7.6-1.9,9,0c1.3,1.9-4.7,2.4-7.8,2.9c-3.2,0.5-9.7,0.8-9.2,1.7c0.5,1,7.5,1.1,10,1.4
			c2.5,0.4,8.8-0.4,9,1.9c0.2,2.3-6.3,1-9,0.8c-2.7-0.3-8.7-0.4-8.9,0.6c-0.2,1,5.8,2.5,9.1,3.1C337.4,64.7,342.2,65.7,341.4,67.2"
			/>
		<path id="path229_31_" class="st1" d="M306.7,0.7c1.1,1.4-2.9,5.9-4,7.2s-4.9,6.9-6.4,8.7s-3.3,6.6-3.1,7.1
			c0.3,0.4,3.2-1.4,5.4-2.9c2.2-1.6,5.8-7.2,6.7-4.8s-3.6,6.2-6.6,8.7c-3.1,2.5-10.6,7.2-12.4,10.4c-2.8-0.9-9.6-5.4-11.6-5.8
			c1.5-3.9,5.3-12.6,6-14.9c0.6-2.3,1.6-7.3,2.3-9.2c0.7-1.9,1-6.9,2.9-7.2s-0.2,5.8-0.7,7.7c-0.5,1.8-2,8.3-0.9,7.8
			s3.5-8.2,4.5-10.8c1.1-2.7,1.6-7.7,3.9-8.1c2.3-0.4,0.2,5.3-0.7,8.3c-0.9,3.1-3.5,9.1-2.4,9.1s4.1-6.3,5.5-8.5
			c1.4-2.1,3.4-8.2,5.5-7.3c2.1,0.8-1.7,6.2-3.1,8.5c-1.4,2.3-4,7.7-3.2,8.3c0.8,0.6,4.7-4.2,6.7-6.9C302.7,3.3,305.6-0.7,306.7,0.7
			"/>
		<path id="path229_32_" class="st1" d="M249.8,73.3c0.5,1.7-4.7,4.5-6.2,5.4s-7,4.8-9,6s-5.4,5.1-5.3,5.6c0.1,0.5,3.4-0.2,6-0.9
			c2.6-0.7,7.9-4.8,7.9-2.2c0,2.6-5.5,4.6-9.2,5.9c-3.8,1.3-12.4,3.2-15.2,5.5c-2.3-1.8-7.2-8.3-8.9-9.4c2.7-3.1,9.3-10,10.7-12
			c1.3-1.9,4.1-6.3,5.3-7.9c1.3-1.6,3.3-6.1,5.2-5.7c1.8,0.4-2.2,5.4-3.3,7c-1.1,1.5-4.7,7.1-3.5,7s6-6.5,7.9-8.6
			c1.9-2.1,4.1-6.7,6.4-6.3c2.3,0.4-1.6,5-3.5,7.6c-1.9,2.6-6.4,7.4-5.3,7.7c1.1,0.3,6.1-4.5,8.1-6.1c2.1-1.5,6-6.5,7.7-5
			s-3.7,5.2-5.8,6.9c-2.1,1.7-6.4,5.8-5.9,6.7c0.5,0.8,5.9-2.4,8.6-4.2C245.2,74.4,249.3,71.7,249.8,73.3"/>
		<path id="path229_33_" class="st1" d="M262.5,50.3c-1.5-1,1-6.5,1.6-8.1s2.6-8.1,3.4-10.2c0.8-2.2,1.1-7.3,0.8-7.7
			c-0.4-0.3-2.6,2.3-4.2,4.4c-1.6,2.2-3.4,8.6-4.9,6.6c-1.6-2,1.5-7,3.7-10.3c2.2-3.3,7.8-10.1,8.6-13.7c2.9,0,10.8,2.2,12.8,1.9
			c-0.2,4.2-1.2,13.7-1.1,16s0.7,7.5,0.6,9.5c0,2,1.1,6.9-0.6,7.7c-1.7,0.8-1.6-5.6-1.7-7.5s-0.6-8.5-1.5-7.7
			c-0.9,0.8-0.8,8.8-1,11.7c-0.2,2.9,0.9,7.8-1.2,8.9c-2.1,1.1-1.8-5-1.9-8.1c-0.1-3.2,0.5-9.7-0.5-9.4c-1.1,0.4-2,7.3-2.7,9.8
			c-0.7,2.5-0.8,8.8-3,8.7c-2.3-0.1-0.2-6.4,0.4-9c0.6-2.6,1.5-8.5,0.6-8.9c-0.9-0.3-3.2,5.5-4.2,8.6
			C265.4,46.6,263.9,51.3,262.5,50.3"/>
		<path id="path229_34_" class="st1" d="M230.2,39c-1.5-1,1-6.5,1.6-8.1c0.6-1.6,2.6-8.1,3.4-10.2c0.8-2.2,1.1-7.3,0.8-7.7
			c-0.4-0.3-2.6,2.3-4.2,4.4c-1.6,2.2-3.4,8.6-4.9,6.6c-1.6-2,1.5-7,3.7-10.3s7.8-10.1,8.6-13.7c2.9,0,10.8,2.2,12.8,1.9
			c-0.2,4.2-1.2,13.7-1.1,16c0.1,2.3,0.7,7.5,0.6,9.5c0,2,1.1,6.9-0.6,7.7s-1.6-5.6-1.7-7.5c-0.1-1.9-0.6-8.5-1.5-7.7
			c-0.9,0.8-0.8,8.8-1,11.7s0.9,7.8-1.2,8.9c-2.1,1.1-1.8-5-1.9-8.1c-0.1-3.2,0.5-9.7-0.5-9.4c-1.1,0.4-2,7.3-2.7,9.8
			s-0.8,8.8-3,8.7c-2.3-0.1-0.2-6.4,0.4-9c0.6-2.6,1.5-8.5,0.6-8.9c-0.9-0.3-3.2,5.5-4.2,8.6C233.2,35.3,231.7,40,230.2,39"/>
		<path id="path229_35_" class="st1" d="M231.9,120.9c-0.5-1.7,4.8-4.4,6.3-5.3s7.1-4.6,9.1-5.8c2-1.2,5.5-5,5.4-5.5
			c-0.1-0.5-3.4,0.1-6,0.8c-2.6,0.7-8,4.6-8,2s5.5-4.5,9.3-5.7s12.5-2.9,15.3-5.3c2.3,1.8,7.1,8.5,8.8,9.6
			c-2.8,3.1-9.5,9.9-10.9,11.8s-4.2,6.3-5.5,7.8c-1.3,1.5-3.4,6-5.3,5.6c-1.8-0.4,2.3-5.4,3.4-6.9c1.1-1.5,4.9-7,3.6-6.9
			c-1.2,0.1-6.2,6.4-8.1,8.5c-2,2.1-4.2,6.6-6.5,6.2c-2.3-0.5,1.7-5,3.7-7.5s6.5-7.3,5.5-7.6c-1.1-0.4-6.1,4.4-8.2,5.9
			c-2.1,1.5-6.1,6.4-7.8,4.9c-1.7-1.5,3.8-5.1,6-6.8c2.1-1.7,6.5-5.7,6-6.5s-5.9,2.3-8.7,4.1C236.5,119.9,232.4,122.6,231.9,120.9"
			/>
		<path id="path229_36_" class="st1" d="M235.8-2.1c-0.3,1.7-6.3,1.8-8,1.9c-1.7,0.1-8.4,0.9-10.7,1.1c-2.3,0.1-7.1,2-7.3,2.4
			c-0.2,0.5,3.1,1.4,5.8,2c2.6,0.6,9.3-0.5,8,1.8c-1.2,2.3-7,1.5-10.9,0.9c-3.9-0.6-12.4-3-16-2.2c-1.2-2.7-2.5-10.7-3.5-12.5
			c3.9-1.5,12.9-4.5,15-5.6c2.1-1.1,6.5-3.7,8.4-4.5c1.9-0.8,5.8-3.8,7.3-2.7c1.5,1.2-4.5,3.7-6.2,4.6c-1.7,0.9-7.5,4-6.4,4.5
			c1.1,0.5,8.4-2.9,11.1-3.9s6.8-4,8.6-2.6c1.8,1.4-3.8,3.7-6.7,5.1c-2.9,1.4-9.1,3.5-8.3,4.3c0.8,0.8,7.5-1.2,10-1.6
			c2.5-0.4,8.4-2.9,9.2-0.8c0.8,2.1-5.7,2.8-8.4,3.4c-2.6,0.5-8.4,2.2-8.3,3.1c0.1,1,6.3,0.7,9.6,0.3C231.3-3.3,236.1-3.8,235.8-2.1
			"/>
		<path id="path229_37_" class="st1" d="M291.7,109.8c-1.2-1.3,2.6-6,3.6-7.4s4.6-7.1,5.9-9c1.4-1.9,3-6.8,2.7-7.2
			c-0.3-0.4-3.1,1.5-5.2,3.2s-5.4,7.5-6.4,5.1s3.2-6.4,6.2-9c2.9-2.7,10.2-7.8,11.8-11.1c2.8,0.7,9.9,4.8,11.9,5.1
			c-1.3,4-4.6,12.9-5.1,15.2c-0.5,2.3-1.2,7.4-1.8,9.4c-0.6,1.9-0.7,6.9-2.5,7.3c-1.8,0.4-0.1-5.9,0.3-7.7c0.4-1.9,1.6-8.4,0.5-7.8
			s-3,8.3-3.9,11.1c-0.9,2.7-1.2,7.8-3.4,8.3c-2.3,0.5-0.5-5.3,0.3-8.4c0.7-3.1,3-9.3,1.8-9.2c-1.1,0.1-3.8,6.5-5.1,8.8
			c-1.3,2.2-3,8.3-5.1,7.6c-2.2-0.7,1.4-6.3,2.7-8.7c1.2-2.4,3.6-7.9,2.8-8.4c-0.8-0.5-4.5,4.5-6.3,7.3
			C295.5,107,292.9,111.1,291.7,109.8"/>
		<path id="path229_38_" class="st1" d="M261.2,119.6c-1.5-1,1-6.5,1.6-8.1s2.6-8.1,3.4-10.2c0.8-2.2,1.1-7.3,0.8-7.7
			c-0.4-0.3-2.6,2.3-4.2,4.4c-1.6,2.2-3.4,8.6-4.9,6.6c-1.6-2,1.5-7,3.7-10.3c2.2-3.3,7.8-10.1,8.6-13.7c2.9,0,10.8,2.2,12.8,1.9
			c-0.2,4.2-1.2,13.7-1.1,16c0.1,2.3,0.7,7.5,0.6,9.5c0,2,1.1,6.9-0.6,7.7c-1.7,0.8-1.6-5.6-1.7-7.5c-0.1-1.9-0.6-8.5-1.5-7.7
			s-0.8,8.8-1,11.7c-0.2,2.9,0.9,7.8-1.2,8.9c-2,1.1-1.8-5-1.9-8.1c-0.1-3.2,0.5-9.7-0.5-9.4c-1.1,0.4-2,7.3-2.7,9.8
			c-0.7,2.5-0.8,8.8-3,8.7c-2.3-0.1-0.2-6.4,0.4-9s1.5-8.5,0.6-8.9c-0.9-0.3-3.2,5.5-4.2,8.6C264.2,115.9,262.6,120.6,261.2,119.6"
			/>
		<path id="path229_39_" class="st1" d="M273.2,48.8c-0.8-1.5,3.8-5.3,5.1-6.5c1.3-1.2,6-6,7.7-7.6c1.7-1.5,4.3-6,4.1-6.5
			c-0.2-0.5-3.3,0.8-5.7,2.1c-2.4,1.2-6.9,6.2-7.4,3.7s4.5-5.5,7.9-7.5s11.6-5.5,13.9-8.3c2.6,1.3,8.7,6.8,10.6,7.5
			c-2.1,3.6-7.3,11.6-8.2,13.8c-1,2.1-2.8,7-3.7,8.8c-1,1.8-2.1,6.6-4,6.6s1.1-5.7,1.9-7.5c0.8-1.7,3.3-7.9,2.1-7.5
			c-1.2,0.3-4.7,7.5-6.2,10s-2.8,7.4-5.1,7.4c-2.3,0,0.6-5.2,2-8.1s4.9-8.5,3.7-8.6c-1.1-0.1-5.1,5.6-6.8,7.5
			c-1.7,1.9-4.7,7.5-6.6,6.4c-2-1.1,2.7-5.8,4.4-7.9c1.7-2.1,5.2-7,4.5-7.7c-0.7-0.7-5.3,3.4-7.7,5.8
			C277.5,46.9,274.1,50.3,273.2,48.8"/>
		<path id="path229_40_" class="st1" d="M225,34.6c1.7,0.3,1.9,6.3,2,8c0.1,1.7,1.1,8.4,1.3,10.7c0.2,2.3,2.1,7.1,2.6,7.3
			c0.5,0.2,1.4-3.2,1.9-5.8c0.5-2.6-0.7-9.2,1.6-8.1c2.3,1.2,1.6,6.9,1.1,10.9c-0.5,3.9-2.8,12.5-1.9,16.1
			c-2.6,1.3-10.7,2.7-12.4,3.7c-1.6-3.9-4.7-12.9-5.8-14.9c-1.1-2.1-3.8-6.5-4.6-8.3s-3.9-5.7-2.8-7.2c1.2-1.5,3.8,4.4,4.7,6.1
			c0.9,1.7,4.2,7.4,4.6,6.3c0.5-1.2-3.1-8.3-4.1-11s-4.1-6.7-2.7-8.5c1.4-1.8,3.8,3.7,5.2,6.6c1.4,2.9,3.7,9,4.5,8.2
			s-1.3-7.4-1.7-10c-0.4-2.5-3.1-8.3-1-9.2c2.1-0.8,2.9,5.7,3.5,8.3c0.6,2.6,2.3,8.4,3.3,8.3s0.6-6.3,0.1-9.6
			C223.8,39.2,223.2,34.4,225,34.6"/>
		<path id="path229_41_" class="st1" d="M261.6,49.1c-1.7-0.2-2-6.2-2.1-8c-0.2-1.7-1.2-8.4-1.5-10.7c-0.2-2.3-2.2-7.1-2.7-7.2
			c-0.5-0.1-1.3,3.2-1.8,5.8s0.8,9.2-1.5,8.1c-2.3-1.1-1.8-6.9-1.3-10.9c0.5-3.9,2.6-12.5,1.7-16.1c2.6-1.3,10.6-2.9,12.4-3.9
			c1.6,3.8,5,12.8,6.1,14.8s3.9,6.4,4.8,8.2c0.8,1.8,4,5.7,2.9,7.1c-1.1,1.5-3.9-4.4-4.8-6c-0.9-1.7-4.3-7.4-4.8-6.2
			s3.2,8.3,4.3,10.9c1.1,2.7,4.2,6.6,2.9,8.5c-1.4,1.9-3.8-3.6-5.3-6.5c-1.5-2.8-3.9-9-4.6-8.2c-0.8,0.8,1.4,7.4,1.9,9.9
			c0.5,2.5,3.2,8.2,1.1,9.1s-3-5.6-3.7-8.3c-0.6-2.6-2.5-8.3-3.4-8.2c-1,0.1-0.4,6.3,0,9.6C262.6,44.6,263.3,49.4,261.6,49.1"/>
		<path id="path229_42_" class="st1" d="M287,89.9c-1.6,0.6-4.7-4.5-5.7-6c-1-1.4-5.1-6.8-6.4-8.7c-1.3-1.9-5.3-5.2-5.8-5.1
			s0.3,3.4,1.2,6c0.8,2.6,5.1,7.7,2.5,7.8c-2.6,0.1-4.8-5.3-6.3-8.9c-1.5-3.7-3.7-12.2-6.2-15c1.7-2.4,8-7.6,9-9.3
			c3.3,2.6,10.4,8.9,12.4,10.1c2,1.3,6.5,3.8,8.1,5s6.3,3.1,6,4.9c-0.3,1.9-5.5-2-7.1-3s-7.3-4.4-7.1-3.2c0.2,1.2,6.8,5.7,9,7.6
			c2.2,1.8,6.9,3.8,6.6,6.1c-0.3,2.3-5.1-1.4-7.7-3.2c-2.6-1.8-7.7-6-8-5c-0.3,1.1,4.8,5.8,6.4,7.8s6.8,5.7,5.3,7.5
			c-1.4,1.8-5.4-3.5-7.2-5.5c-1.8-2-6.1-6.1-6.9-5.6c-0.8,0.6,2.6,5.8,4.6,8.4C285.7,85.4,288.6,89.3,287,89.9"/>
		<path id="path229_43_" class="st1" d="M270.1,119.4c0.5-1.7,6.5-0.9,8.2-0.7c1.7,0.1,8.5,0.2,10.8,0.4c2.3,0.2,7.3-0.9,7.6-1.4
			c0.2-0.5-2.9-1.9-5.4-2.8s-9.2-0.8-7.7-2.9s7.1-0.5,10.9,0.6c3.8,1.1,11.9,4.7,15.6,4.4c0.8,2.8,1,11,1.7,12.9
			c-4.1,0.9-13.4,2.7-15.7,3.4c-2.2,0.8-7,2.8-8.9,3.3s-6.3,3-7.5,1.6c-1.3-1.4,5-3.1,6.8-3.7c1.8-0.6,8-3,6.9-3.6
			s-8.7,1.7-11.5,2.3c-2.8,0.6-7.3,3-8.9,1.3c-1.6-1.7,4.2-3.1,7.3-4.1c3-1,9.5-2.2,8.8-3.1c-0.7-0.9-7.6,0.1-10.1,0.2
			c-2.6,0-8.7,1.7-9.2-0.5s6.1-2,8.8-2.2c2.7-0.2,8.6-1,8.7-1.9c0-1-6.2-1.5-9.5-1.6C274.4,121.3,269.6,121.1,270.1,119.4"/>
		<path id="path229_44_" class="st1" d="M329.7,89.7c1.7,0.3,1.7,6.3,1.8,8s0.9,8.4,1,10.7c0.1,2.3,1.9,7.1,2.4,7.3
			c0.5,0.2,1.5-3.1,2-5.8c0.6-2.6-0.4-9.3,1.8-8c2.3,1.2,1.5,7,0.8,10.9c-0.6,3.9-3.1,12.4-2.3,16c-2.7,1.2-10.8,2.4-12.5,3.4
			c-1.5-3.9-4.4-13-5.5-15.1c-1-2.1-3.7-6.6-4.4-8.4c-0.8-1.9-3.8-5.8-2.6-7.3c1.2-1.4,3.7,4.5,4.6,6.2c0.8,1.7,4,7.5,4.5,6.4
			s-2.9-8.4-3.8-11.1c-1-2.7-4-6.8-2.5-8.6c1.4-1.8,3.7,3.8,5,6.7c1.4,2.9,3.5,9.1,4.3,8.3c0.8-0.8-1.1-7.5-1.5-10s-2.9-8.4-0.8-9.2
			c2.1-0.8,2.8,5.8,3.3,8.4c0.5,2.7,2.1,8.4,3.1,8.3s0.7-6.3,0.4-9.6C328.5,94.2,328,89.4,329.7,89.7"/>
		<path id="path229_45_" class="st1" d="M272.1,25.9c1.1,1.4-2.9,5.9-4,7.2c-1.1,1.3-4.9,6.9-6.4,8.7c-1.5,1.8-3.3,6.6-3.1,7.1
			c0.3,0.4,3.2-1.4,5.4-2.9c2.2-1.6,5.8-7.2,6.7-4.8c0.9,2.4-3.6,6.2-6.6,8.7c-3.1,2.5-10.6,7.2-12.4,10.4
			c-2.8-0.9-9.6-5.4-11.6-5.8c1.5-3.9,5.3-12.6,6-14.9c0.6-2.3,1.6-7.3,2.3-9.2c0.7-1.9,1-6.9,2.9-7.2c1.9-0.3-0.2,5.8-0.7,7.7
			c-0.5,1.8-2,8.3-0.9,7.8c1.1-0.5,3.5-8.2,4.5-10.8c1.1-2.7,1.6-7.7,3.9-8.1c2.3-0.4,0.2,5.3-0.7,8.3c-0.9,3.1-3.5,9.1-2.4,9.1
			s4.1-6.3,5.5-8.5c1.4-2.1,3.4-8.2,5.5-7.3c2.1,0.8-1.7,6.2-3.1,8.5s-4,7.7-3.2,8.3c0.8,0.6,4.7-4.2,6.7-6.9
			C268.1,28.4,271,24.5,272.1,25.9"/>
		<path id="path229_46_" class="st1" d="M224.1,78.2c1.7-0.4,4.2,5,5,6.6c0.8,1.5,4.3,7.3,5.3,9.4c1.1,2.1,4.7,5.7,5.2,5.7
			s0-3.4-0.5-6.1c-0.5-2.6-4.2-8.3-1.6-8.1c2.6,0.2,4.2,5.8,5.2,9.6c1,3.8,2.3,12.6,4.5,15.6c-1.9,2.2-8.8,6.6-10,8.3
			c-2.9-3-9.4-10-11.2-11.5c-1.8-1.5-6-4.5-7.5-5.9s-5.9-3.7-5.4-5.5s5.2,2.6,6.7,3.8c1.5,1.2,6.7,5.2,6.7,4s-6.1-6.5-8.1-8.5
			c-2-2.1-6.4-4.6-5.8-6.8c0.6-2.2,4.9,1.9,7.3,4c2.4,2.1,6.9,6.9,7.3,5.8c0.4-1-4.1-6.4-5.5-8.5c-1.4-2.2-6.1-6.5-4.5-8.1
			c1.6-1.6,4.9,4.1,6.5,6.3c1.6,2.2,5.4,6.8,6.2,6.3c0.9-0.5-2-6-3.6-8.9C224.8,82.8,222.4,78.6,224.1,78.2"/>
		<path class="st2" d="M274.4-2.3v-34.2c0,0,3.5-3.8,3.5-6.8s-4.4-4.5-6.2-3.7c-1.8,0.9-5.3,1.4-5,3.7c0.3,2.3,2.3,2.5,2.3,5.8
			s0,37.6,0,37.6L274.4-2.3z"/>
		<path class="st3" d="M242.7-44.8c0,0-0.1-7.6,4.4-5.8s20.5,12.5,21.9,18.4s-9.7,4-11.6,3C255.5-30.2,243.2-38.1,242.7-44.8z"/>
	</g>
	<g>
		<text transform="matrix(1.3654 0 0 1 398.6367 35.5518)" class="st4 st5 st6">Plano ISD</text>
		<text transform="matrix(1.3654 0 0 1 398.6367 76.1523)" class="st4 st7 st6">EDUCATION</text>
		<text transform="matrix(1.3654 0 0 1 398.6367 116.752)" class="st4 st7 st6">FOUNDATION</text>
	</g>
</g>
</svg>
