<?xml version="1.0" encoding="utf-8"?>
<!-- Generator: Adobe Illustrator 19.0.0, SVG Export Plug-In . SVG Version: 6.00 Build 0)  -->
<svg version="1.1" id="Layer_1" xmlns="http://www.w3.org/2000/svg" xmlns:xlink="http://www.w3.org/1999/xlink" x="0px" y="0px"
	 viewBox="107.7 120.6 504.3 118.7" style="enable-background:new 107.7 120.6 504.3 118.7;" xml:space="preserve">
<style type="text/css">
	.st0{fill:#D0CCCC;}
	.st1{fill:#D0CDCC;}
	.st2{fill:#E3E1E1;}
	.st3{fill:#231F20;}
	.st4{fill:#D94627;}
	.st5{fill:#C26847;}
	.st6{fill:#FFFFFF;}
</style>
<g>
	<path class="st0" d="M501.8,121c0-0.1,0-0.2,0-0.3c5.6,0,11.3,0,16.9,0c0,0.2,0.1,0.4-0.2,0.5c-0.5,0.1-0.9,0.1-1.4,0.1
		c-4.5,0-9,0-13.5,0C503,121.3,502.4,121.4,501.8,121z"/>
	<path class="st0" d="M289.6,120.9c0-0.1,0-0.2,0-0.3c5.6,0,11.1,0,16.7,0c0,0.2,0,0.4-0.2,0.5c-0.5,0.1-0.9,0.1-1.4,0.1
		c-4.4,0-8.8,0-13.1,0C290.9,121.3,290.2,121.4,289.6,120.9z"/>
	<path class="st1" d="M475.1,120.9c0-0.1,0-0.2,0-0.3c5.6,0,11.1,0,16.7,0c0,0.1,0,0.2-0.1,0.3c-0.6,0.3-1.2,0.3-1.9,0.3
		c-4.3,0-8.6,0-12.9,0C476.3,121.3,475.7,121.4,475.1,120.9z"/>
	<path class="st2" d="M151.9,120.9c0-0.1,0-0.1,0-0.2c1.9,0,3.8,0,5.6,0c0,0.1,0,0.1,0,0.2c-1.3,0.9-2.7,0.3-4,0.4
		C153,121.4,152.4,121.4,151.9,120.9z"/>
	<path class="st3" d="M289.6,120.9c5.2,0,10.4,0,15.6,0c0.3,0,0.7-0.2,0.9,0.3c-4.7,10.2-8.9,20.6-14,30.9c2.5-2.2,4.8-4.1,7-6.1
		c4.1-3.5,8.1-7,12.2-10.6c0.5-0.4,1-0.7,1.7-0.7c10,0,19.9,0,29.9,0c0.2,0,0.4,0,0.7,0c-1.5,8.9-2.9,17.7-4.3,26.6
		c0.5,0,0.6-0.5,0.8-0.8c6.6-8.3,13.2-16.7,19.8-25c0.5-0.6,1-0.9,1.8-0.9c4.7,0,9.5,0,14.2,0c0.8,0,1.2,0,1,1.1
		c-1.4,8.1-2.6,16.2-3.9,24.3c-0.1,0.3,0,0.6,0,1c0.5-0.2,0.7-0.7,1-1c6.4-8.2,12.9-16.4,19.3-24.6c0.4-0.5,0.7-0.8,1.4-0.8
		c5.9,0,11.7,0,17.8,0c-1,1.2-1.9,2.2-2.8,3.3c-10.1,11.9-20.3,23.8-30.4,35.7c-0.5,0.6-1,0.9-1.8,0.9c-5.6,0-11.3,0-16.9,0
		c-1,0-1.2-0.2-1-1.2c1.5-8.8,2.9-17.6,4.3-26.4c-0.5-0.1-0.7,0.4-0.9,0.6c-7,8.6-14,17.3-21,26c-0.6,0.7-1.1,1-2,1
		c-5.5,0-10.9-0.1-16.4,0c-1.1,0-1.1-0.3-1-1.2c1.4-8.9,2.9-17.8,4.3-26.6c0.5-2.9,1-5.9,1.4-8.8c0.1-0.4,0.2-0.9-0.1-1.5
		c-1.4,1.1-2.8,2.2-4.2,3.3c-5.3,4.1-10.4,8.5-15.9,12.3c-0.8,0.6-1.7,1.1-2.6,1.6c-0.5,0.3-0.5,0.5-0.3,1
		c2.9,6.1,5.4,12.5,8.1,18.7c0.4,0.9,0.4,1.2-0.7,1.2c-5-0.1-9.9,0-14.9,0c-0.8,0-1.2-0.2-1.4-1c-1.8-5.7-3.6-11.5-5.5-17.5
		c-0.9,2.1-1.8,4.1-2.6,6c-1.7,3.8-3.4,7.6-5,11.5c-0.3,0.7-0.7,1-1.5,1c-4.8-0.1-9.6,0-14.4,0c-0.8,0-1.2,0-0.8-1
		C274.2,156.1,281.9,138.5,289.6,120.9z"/>
	<path class="st3" d="M151.9,120.9c1.9,0,3.8,0,5.6,0c2.9,0.1,5.7,0.3,8.5,0.8c7.8,1.4,12.1,8.1,9.2,16.4
		c-2.3,6.6-7.4,10.2-14.1,11.6c-1.4,0.3-2.9,0.4-4.4,0.6c1,0.2,1.9,0.4,2.8,0.7c4.9,1.4,6.9,5.1,5,9.9c-1.5,4.1-3.5,8-5.1,12
		c-0.6,1.4-1.3,2-2.9,1.9c-4.4-0.1-8.9,0-13.3,0c-1.4,0-1.4,0-0.8-1.4c1.4-3.1,2.8-6.2,4.1-9.3c2.2-5.4,0.1-8.7-5.7-8.9
		c-2.3-0.1-4.6,0.1-6.9,0c-0.8,0-1.1,0.3-1.4,1c-2.5,5.9-5.1,11.7-7.6,17.6c-0.3,0.7-0.7,1.1-1.6,1.1c-4.9-0.1-9.7,0-14.6,0
		c-0.4,0-0.9,0.3-1-0.4c3.4-7.6,6.7-15.2,10.1-22.7c4.3-9.8,8.7-19.7,13-29.5c0.3-0.8,0.7-1,1.6-1
		C139,120.9,145.4,120.9,151.9,120.9z"/>
	<path class="st3" d="M536.4,198.6c-1.3,2.8-2.6,5.4-3.9,8l0.1,0.1c1-0.9,1.9-1.9,3-2.7c6.7-5.1,14.1-7.3,22.4-5.4
		c4,0.9,6.8,3.3,7.4,7.6c0.3,1.9-0.2,3.8-0.8,5.6c-2.7,7.5-6.3,14.6-9.4,21.9c-0.5,1.3-1.2,2.5-1.7,3.9c-0.3,0.7-0.6,0.9-1.3,0.9
		c-4.8,0-9.6,0-14.4,0c-1.1,0-1.1-0.3-0.7-1.1c3-6.6,5.9-13.3,8.8-20c0.4-0.8,0.7-1.6,0.9-2.5c0.8-2.6-0.2-4.4-2.9-5.1
		c-4.9-1.2-10.8,1.4-13.6,6.1c-2.2,3.6-3.6,7.6-5.4,11.4c-1.6,3.4-3.1,6.8-4.6,10.2c-0.3,0.7-0.6,1-1.4,1c-4.8,0-9.6,0-14.4,0
		c-0.8,0-1-0.1-0.7-1c5.6-12.7,11.1-25.4,16.7-38.1c0.2-0.5,0.4-0.8,1.1-0.8C526.7,198.6,531.5,198.6,536.4,198.6z"/>
	<path class="st3" d="M205.5,133.7c4.2,0,8.2,0.4,12.2,2c7,2.8,10,8.5,8.5,15.9s-5.8,12.8-11.7,17.1c-7.7,5.6-16.4,7.5-25.7,6.6
		c-2.6-0.2-5.1-0.7-7.5-1.6c-7.8-2.9-10.7-8.9-8.9-16.8c1.9-8.4,7.4-14.1,14.6-18.4C192.7,135.2,198.9,133.7,205.5,133.7z"/>
	<path class="st3" d="M407,197.4c3.2,0.1,6.4,0.5,9.4,1.4c8.1,2.6,11.6,8.6,9.8,16.9c-1.5,7.1-5.8,12.3-11.5,16.5
		c-7.7,5.7-16.5,7.5-25.9,6.6c-3.4-0.3-6.7-1-9.8-2.6c-5.5-2.8-7.6-7.7-6.9-13.5c1-8,5.4-13.8,11.6-18.5
		C390.7,199.2,398.5,197.1,407,197.4z"/>
	<path class="st3" d="M369.1,227c-1.6,3.5-3.1,6.9-4.5,10.3c-0.2,0.4-0.4,0.6-0.8,0.7c-8.1,0.8-16.1,1.1-23.8-2
		c-6.8-2.7-10.9-7.6-11.3-15.1c-0.3-5.6,1.1-10.8,4-15.6c5-8.2,12.1-13.8,20.9-17.4c9.3-3.8,19.1-4.8,29.1-4
		c1.6,0.1,3.2,0.4,4.8,0.5c0.6,0.1,0.8,0.2,0.5,0.9c-1.9,3.4-3.7,6.9-5.5,10.4c-0.3,0.5-0.5,0.5-1,0.4c-5.6-0.8-11-0.7-16.5,1
		c-7.5,2.3-13.3,6.5-16.7,13.8c-1.4,3-1.7,6.1-0.9,9.2c1.1,4.4,5.3,7.3,10.5,7.5c3.3,0.1,6.7,0,10-0.4
		C368.1,227.1,368.5,227.1,369.1,227z"/>
	<path class="st3" d="M446.6,165.4c-1.4,2.9-2.6,5.7-3.9,8.5c-0.2,0.4-0.5,0.4-0.8,0.4c-6.7,1.1-13.4,1.5-20.1,1.1
		c-3-0.2-6-0.5-8.9-1.7c-4.9-2-8.7-5.1-9.7-10.6c-0.8-4.4,0.5-8.5,2.6-12.2c5-8.5,12.5-13.8,21.9-16.3c6-1.6,12.2-1.7,18.2,0
		c4.8,1.3,8.4,4,9.4,9.2c0.4,2.3,0.2,4.5-0.7,6.7c-0.8,2.1-2,4.2-3.3,6.1c-0.6,0.8-1.2,1-2.1,1.1c-9.4,0.1-18.9,0.2-28.3,0.4
		c-1.7,0-1.8,0.1-1.9,1.8c-0.2,2.6,0.9,4.4,3.1,5.7c2.6,1.5,5.6,1.8,8.5,1.9c5,0.1,10-0.4,14.8-1.7
		C445.8,165.5,446.1,165.5,446.6,165.4z"/>
	<path class="st3" d="M580.8,239.3c-6.1,0-12.2-0.7-18.2-1.8c-1.1-0.2-1.3-0.5-0.8-1.5c1.1-2.2,2.2-4.5,3.1-6.8
		c0.3-0.8,0.7-1,1.5-0.8c3.5,0.9,7,1.8,10.6,2.1c2.1,0.1,4.1,0,6.1-0.7c2.3-0.8,3.4-2.7,2.9-4.7c-0.3-1.3-1.3-2.1-2.4-2.6
		c-1.4-0.7-2.9-1.4-4.4-2.1c-1.2-0.6-2.4-1.1-3.5-1.8c-4.9-3-5.9-8.5-2.4-13.1c2.9-3.8,6.9-5.8,11.3-6.9c4.4-1.1,9-1,13.5-0.7
		c4.3,0.3,8.6,1,12.9,2c1,0.2,1.3,0.5,0.8,1.6c-1,2.1-1.9,4.2-2.8,6.3c-0.3,0.8-0.7,1.1-1.6,0.8c-2.9-0.9-5.9-1.6-9-1.9
		c-2.1-0.3-4.3-0.1-6.3,0.4c-0.9,0.2-1.8,0.7-2.4,1.3c-1.6,1.5-1.5,3.7,0.1,5.2c0.8,0.7,1.7,1.2,2.6,1.6c2.2,1.1,4.5,2,6.6,3.3
		c4.9,2.9,6,8.6,2.6,13.1c-3.3,4.3-7.8,6.3-13,7.2C586.1,239.3,583.5,239.4,580.8,239.3z"/>
	<path class="st3" d="M276,135.1c-1.5,3.1-2.9,6.1-4.3,9.1c-0.4,0.8-0.9,0.5-1.4,0.4c-6.1-1-12-0.6-17.4,2.8
		c-3.7,2.3-6.3,5.6-6.9,10c-0.5,4,1.3,6.6,5.1,7.9c2.9,1,5.9,0.8,8.9,0.4c0.7-0.1,1.6-0.5,2.1,0c0.4,0.5-0.3,1.2-0.6,1.8
		c-0.9,2.1-1.8,4.2-2.8,6.3c-0.3,0.6-0.6,0.9-1.3,0.9c-4.8,0.5-9.5,0.8-14.3,0.2c-5-0.6-9.5-2.2-12.4-6.7c-2.5-4-2.4-8.3-1-12.6
		c2.7-8.4,8.4-14.1,16.2-17.8C255.6,133.3,265.6,132.7,276,135.1z"/>
	<path class="st3" d="M490.5,184.9c-0.8,2.4-1.9,4.6-2.9,6.9c-6.6,15.1-13.3,30.2-19.9,45.3c-0.4,1-0.9,1.4-2,1.4
		c-4.8-0.1-9.6,0-14.4,0c-0.8,0-1-0.1-0.6-0.9c7.7-17.5,15.4-35,23.1-52.4c0-0.1,0.1-0.2,0.2-0.3c0.6-0.3,1.2-0.3,1.8-0.3
		c4.4,0,8.7,0,13,0C489.4,184.6,490,184.5,490.5,184.9z"/>
	<path class="st3" d="M463.7,184.9c-1.9,4.5-3.8,9-5.8,13.5c-5.7,13-11.4,26-17.1,39c-0.4,0.9-0.8,1.2-1.8,1.2
		c-4.8-0.1-9.6-0.1-14.3,0c-1,0-1.1-0.2-0.7-1.1c7.6-17.3,15.2-34.5,22.8-51.8c0.1-0.3,0.3-0.5,0.5-0.7c0.6-0.3,1.2-0.3,1.7-0.3
		c4.3,0,8.6,0,12.9,0C462.5,184.6,463.2,184.5,463.7,184.9z"/>
	<path class="st3" d="M501.8,121c5.3,0,10.7,0,16.1,0c0.2,0,0.5-0.1,0.6,0.3c-7.6,17.4-15.3,34.8-22.9,52.1
		c-0.2,0.4-0.4,0.8-0.6,1.3c-0.5,0.3-1.1,0.3-1.7,0.3c-4.4,0-8.7,0-13.1,0c-0.6,0-1.2,0.1-1.7-0.4c1.6-4.1,3.5-8.1,5.2-12.2
		C489.7,148.5,495.8,134.7,501.8,121z"/>
	<path class="st3" d="M475.1,120.9c5.5,0,11.1,0,16.6,0.1c-7.7,17.6-15.3,35.1-23,52.6c-0.1,0.3-0.3,0.6-0.5,0.9
		c-0.4,0.3-0.8,0.3-1.2,0.3c-4.7,0-9.4,0-14.1,0c-0.5,0-0.9,0-1.2-0.5c7.8-17.7,15.5-35.5,23.3-53.2
		C475,121.1,475.1,121,475.1,120.9z"/>
	<path class="st3" d="M511,198.6c0.1,0.8-0.3,1.3-0.6,1.8c-5.4,12.3-10.9,24.7-16.3,37c-0.3,0.8-0.7,1.2-1.7,1.1
		c-5-0.1-10.1,0-15.1,0c-0.1-0.6,0.2-0.9,0.4-1.3c5.5-12.5,11-25,16.4-37.5c0.4-0.8,0.8-1.1,1.7-1.1
		C500.9,198.6,505.9,198.6,511,198.6z"/>
	<path class="st4" d="M508.8,185.2c-2.5,0-5,0-7.6,0c-0.7,0-0.9-0.1-0.6-0.9c1.4-3.1,2.7-6.2,4-9.4c0.2-0.5,0.5-0.6,1-0.6
		c5.1,0,10.2,0,15.4,0c0.7,0,0.8,0.1,0.5,0.8c-1.4,3.1-2.7,6.2-4,9.4c-0.3,0.6-0.6,0.7-1.2,0.7C513.9,185.2,511.3,185.2,508.8,185.2
		z"/>
	<path class="st4" d="M478.5,174.5c5.5,0,11,0.1,16.5,0.1c-1.4,3.5-2.8,7-4.5,10.4c-5.5,0-11-0.1-16.5-0.1
		C475.5,181.4,477,177.9,478.5,174.5z"/>
	<path class="st4" d="M463.7,184.9c-5.5,0-11,0-16.5-0.1c1.3-3.4,2.9-6.8,4.4-10.1c0.3-0.2,0.6-0.1,0.9-0.1c4.8,0,9.7,0,14.5,0
		c0.4,0,1.2-0.4,1,0.6C466.6,178.5,465.1,181.7,463.7,184.9z"/>
	<path class="st5" d="M468,175.2c-0.2-0.8-0.8-0.5-1.3-0.5c-5,0-10.1,0-15.1,0c0-0.1,0.1-0.3,0.1-0.4c0.7,0.2,1.3,0.1,2,0.1
		c4.9,0,9.7,0,14.6,0.1C468.3,174.8,468.2,175,468,175.2z"/>
	<path class="st6" d="M137.1,146c0.5-1.1,0.9-2.1,1.3-3.1c1.8-4,3.6-8,5.3-12c0.3-0.8,0.8-1.1,1.6-1.1c2.8-0.1,5.5-0.2,8.3,0.1
		c4.2,0.5,6.5,3.9,5.4,8c-1.3,4.8-5.1,7.9-10.8,8.1C144.5,146.1,140.9,146,137.1,146z"/>
	<path class="st6" d="M203.2,143.7c4,0.1,6.4,2,6.8,5.7c0.2,1.8-0.2,3.5-0.9,5.1c-2.4,5.6-6.2,9.8-12.6,10.8c-5.5,0.9-9.2-2.6-8.3-8
		c0.9-5.6,6.4-11.8,11.8-13.2C201,143.9,202,143.7,203.2,143.7z"/>
	<path class="st6" d="M388.5,222.4c0.1-7.1,7.2-14.7,14.3-15.1c5.7-0.4,8.6,3.6,7.3,8.5c-1.6,6.3-5.2,11-11.8,12.9
		c-1.7,0.5-3.5,0.5-5.2,0.1C390.1,228.1,388.4,225.7,388.5,222.4z"/>
	<path class="st6" d="M421.4,151.6c2.6-5.3,6.2-9.1,12.2-9.8c0.8-0.1,1.7,0,2.5,0.1c5.3,1,5.4,5.3,3.9,8.9c-0.3,0.6-0.8,0.4-1.2,0.4
		c-4.9,0-9.7,0.1-14.6,0.1C423.4,151.5,422.5,151.6,421.4,151.6z"/>
</g>
</svg>
