<?xml version="1.0" encoding="utf-8"?>
<!-- Generator: Adobe Illustrator 19.0.0, SVG Export Plug-In . SVG Version: 6.00 Build 0)  -->
<svg version="1.1" id="Layer_1" xmlns="http://www.w3.org/2000/svg" xmlns:xlink="http://www.w3.org/1999/xlink" x="0px" y="0px"
	 viewBox="78.7 70.3 188.2 115.1" style="enable-background:new 78.7 70.3 188.2 115.1;" xml:space="preserve">
<path d="M141.7,73.7c-1.5,0-2.5-2.3-4.8-3.3s-8.7,4.3-10.8,4.2c-2.2-0.2-4.2-4.8-6-0.5s-4.5,0.8-6.5-0.7S103,75,102,77.2
	s-4,4.7-5.7,5.2s-1.2,2-1,3s0.3,4.7,0.5,6.1s3.3,2.1,4.3,0.9s5.5-2,5.8,2.7s-0.8,5.5-3,4.3s-5.5-4.3-6.8-4.3s-3,2.5-5.2,2.8
	s-4,3-4.2,4.8s1.7,3,2.5,3.7s2.3,3.5,1.2,3.7s-3.5-2.5-4.8-2.5s-0.8,1.8-2.2,3.8s3.2,3.2,4.7,3.5s-1.7,2.5-3.3,1.5
	c-1.7-1-1.3-1-3.3,0s-0.8,1.8-1.7,6c-0.8,4.2,0.7,3.8,0.8,3.7c0.2-0.2,3.8-1.8,3.8,0s-3,1.7-4.7,2.2s-0.8,5.5,0,6.8s2.3,4.5,2.2,5.5
	s0.8,3.8,2.5,5.2c1.7,1.3,5.7-2.3,5-3.8s1-2,2.5-2.7s1.3,3.7,0.5,4s-0.5,2.5,0.8,2s2.2,2.2,3.5,2.3c1.3,0.2,4.2-2.8,6-0.5
	s2,1.7,5.5-0.5s3,0.2,4.5,1.2s6-3.3,7.8-4.2s0.5,2.3,2.3,0.8s1.2-0.5,4,0s0.8-6,2.8-6.9s1.5-0.8-1-3.6s-0.5-2.8-0.5-2.8
	c0.3-1.2,10,4.7,9.3,12.2S121.6,159,121.6,159h19.8C141.7,158.8,143.2,73.7,141.7,73.7z M89.7,136c-1,0.2-4,1.2-2.8,0
	c0,0,2.5-3,3.7-2.5S90.7,135.8,89.7,136z M96.2,129.5c-0.3,0.5-2.8,2.5-3,0.8c0,0-0.8-2.7,0.7-3.3c1.5-0.7,3.2-1.5,3.8-1
	S96.5,129,96.2,129.5z M134.5,103.2c1.5,1.5,0,4.3,0,4.3s-4.4-3.3-4.6-5.2C129.8,100.5,133,101.7,134.5,103.2z M133,113.2
	c0,0-2.4-1.8-3-2C129.3,111,135.4,110.8,133,113.2z M124.8,134.3c-0.7,0.5-2,2.2-2,2.2c-1,1.2-4.7-3.1-3.3-4.1
	C120.8,131.5,125.5,133.8,124.8,134.3z M124,119.2c-1.5,0.2-2.3-0.3-0.8-1.3c0,0,1.5-1.8,4.7-1.5c3.3,0.3,2.7-2.5,5.1-0.7
	c2.5,1.8,1.6,5.5-1,5.3C129.3,120.8,125.5,119,124,119.2z M128,124.7c0,0-0.7-1.8,1.3-1.7c2,0.2,8.8,4.2,8.8,9.3
	C138.2,135,134.2,126.2,128,124.7z M140.7,94.8c-1,2.2-2.4,2.2-3.3,1.3c-0.9-0.8-1.4-2.2-1.4-2.2s-4-3.7-0.8-3.3
	C138.3,91,141.7,92.7,140.7,94.8z"/>
<path d="M170.7,125.4l-0.4,0.3l-0.5,0.8l-1.6,0.6l-0.7,0.5c-0.2,0.1-0.3,0.1-0.5,0.1l0,0l-1.1-0.2l-2.6-0.1l-1.8-0.2l-1.8,0.1
	l-0.7-0.1h-0.3l-0.2,0.9l0.1,0.5v0.6v0.2l-0.2,0.9v0.7l-0.1,0.6l0.1,0.5c-0.3,0-0.5,0.1-0.6,0.2c-0.1,0.1-0.1,0.3-0.1,0.6
	c0.4,0.1,0.7,0.2,0.7,0.4l-0.1,1.4v0.9c0,0.4-0.3,0.8-0.8,1.3c0.1,0.1,0.1,0.2,0.2,0.3c0.1,0.1,0.1,0.1,0.2,0.2
	c0.1,0,0.2,0.1,0.3,0.1l0.1,0.2c-0.2,0.1-0.3,0.2-0.3,0.3c-0.1,0.1-0.1,0.3-0.1,0.5l0.5,0.5v1v0.8c0,0.2-0.1,0.4-0.3,0.6l0.2,0.5
	l-0.1,0.5l0.2,0.7l-0.1,0.6v0.5v0.8c-0.5,0.2-0.7,0.5-0.7,0.9c0,0.3,0.2,0.6,0.7,0.8l0.3,3.3l-0.3,0.2l-0.4,0.2l-1,0.9h-0.4h-0.3
	l-0.2,0.3c-0.2-0.1-0.3-0.2-0.4-0.2l-0.2,0.1l-0.2-0.5c0-0.1,0-0.1,0-0.2v-0.1l0.2-0.9l-0.2-1l0.2-1.5l0.1-2.3l0.2-1.7v-0.5l0.4-0.5
	l-0.5-1.8l0.2-1.3l-0.1-1.6l-0.1-1.1l0,0c0-0.2,0.1-0.7,0.4-1.4l-0.1-0.4c-0.3-0.7-0.4-1.2-0.4-1.5l0,0v-0.6l-0.2-1V131l-0.3-1.4
	l-0.1-0.5l0.6-1.2c0.3-0.2,0.4-0.3,0.4-0.5c0-0.1,0-0.2,0-0.3l-1.1-0.2h-0.4H154l-0.9-0.4l-1.8,0.2l-2.7-0.3l-2.9,0.2l-0.5-0.1
	c-0.3,0.4-0.6,0.6-0.9,0.6h-0.1l-0.6-0.1l-0.6-0.1c0-0.4,0.1-0.7,0.1-0.8c0.1-0.2,0.2-0.3,0.5-0.5l1.4-1.1c0.4-0.2,1-0.3,1.7-0.3
	h0.5c0.2,0.4,0.4,0.6,0.6,0.6c0.3,0,0.6-0.1,0.9-0.5l0.9,0.1l1.7,0.6l1.4-0.1l1.1,0.3l2.3,0.1l1,0.5h0.5v-0.2h0.5
	c0.8,0.1,1.3,0.1,1.5,0.2c0.2,0,0.4,0.2,0.6,0.3l0.7,0.2l0.4-0.3h0.6l0.8-0.4h1.4l1-0.2c0.4,0.1,0.7,0.2,1,0.2
	c1.3,0,2.5-0.3,3.7-0.9l0.2,0.1L170.7,125.4z"/>
<path d="M187.5,145.4c0,0.1,0,0.2-0.1,0.3l-0.3,0.5l-0.6,1.1h-0.6l-0.4,0.3c-0.1,0.1-0.2,0.1-0.4,0.2l-2.4,0.5l-0.4,0.1l-0.8-0.1
	l-1.2,0.1l-1.4-0.1h-0.4c-0.2-0.1-0.3-0.2-0.4-0.3l-1.3-0.5l-0.4-0.4l-0.9-0.6l-0.7-0.9l-0.3-0.2c0.1-0.2,0.2-0.4,0.2-0.6
	c0-0.1,0-0.1-0.1-0.2l-0.4-0.6l-0.1-0.8v-0.6c0-0.2,0-0.5,0.1-0.8c0.1-0.5,0.3-0.8,0.4-0.9l0.5-0.6l0.3-0.6l0.6-0.6l0.7-0.9l0.6-0.3
	l0.9-0.6l0.6-0.4l0.2-0.1l0.4-0.1l1.2-0.4l0.9-0.1l0.6-0.2h0.3c0.4,0,0.8,0.2,1.1,0.7c0.2,0,0.3-0.1,0.4-0.3l0.4,0.3l0.5,0.3
	l1.1,1.1c0.1,0.2,0.2,0.3,0.3,0.5c0.1,0.1,0.1,0.3,0.2,0.4c0.1,0.1,0.1,0.3,0.2,0.5c0.1,0.2,0.1,0.4,0.3,0.8l0.1,0.3l-0.1,0.1
	l-0.5-0.1l-0.6,0.2l-0.4-0.1l-0.5,0.1l-0.9-0.1l-0.9,0.1l-0.9-0.2h-1.5H180l-1.8,0.2h-0.6l-0.9,0.3l-0.3,0.1l-0.1,0.3
	c0,0.2,0,0.4-0.1,0.4c0,0.1-0.1,0.2-0.3,0.3v0.3c0.3,0.2,0.4,0.4,0.5,0.4l0.3,1.3l0.2,0.3c-0.1,0.1-0.1,0.2-0.1,0.2s0,0,0,0.1
	l0.5,0.2l0.1,0.3c0.1,0.3,0.2,0.5,0.3,0.6l0.7,0.3l0.2,0.5c0.1,0.1,0.3,0.1,0.6,0.1l0.2,0.3l0.4,0.1l1.1,0.4l0.9-0.2l2.5-0.4
	l0.5-0.3l0.8-0.5l0.7-0.9c0.1-0.1,0.3-0.2,0.4-0.2C187.4,145,187.5,145.1,187.5,145.4z M184.4,139.2c0-0.1-0.2-0.4-0.5-0.9l-0.9-0.7
	l-0.3-0.3h-0.4l-1-0.1l-0.2,0.1l-0.6,0.3l-0.7,0.2l-0.9,0.3l-0.4,0.1l-0.4,0.6c-0.3,0.2-0.4,0.3-0.4,0.3l-0.1,0.2l1.6,0.1h0.2
	l0.3-0.1l0.3,0.1l0.8,0.2l0,0l0.9-0.2l0.3-0.1l0.2,0.3h0.3l1.2-0.2l0.5,0.1C184.3,139.5,184.4,139.4,184.4,139.2z"/>
<path d="M201.2,147.2c0,0.1-0.1,0.2-0.3,0.4l-0.3,0.3c-0.2,0.2-0.4,0.4-0.6,0.5c-0.2,0.1-0.4,0.2-0.6,0.2c-0.1,0-0.3-0.2-0.5-0.5
	l-1.5-1.6c-0.1-0.1-0.2-0.4-0.5-1.1h-0.4l-0.5-0.5c-0.3-0.3-0.4-0.5-0.5-0.6s-0.2-0.2-0.4-0.3l-0.3-0.2c-0.1-0.3-0.2-0.6-0.5-0.9
	l-0.4,0.2l-0.2,0.5l-0.5,0.4l-0.5,0.6c-0.2,0.3-0.4,0.5-0.6,0.6l-0.4,0.2l-0.3,0.4l-0.9,1.5c-0.2,0.3-0.5,0.5-0.9,0.6l-0.1,0.5h-0.4
	c-0.5,0-0.7-0.2-0.7-0.5c0-0.2,0.1-0.4,0.3-0.5l1.8-1.7l0.4-0.3l0.8-1l1.4-1.4l0.5-0.5l-0.3-0.4l-0.7-0.7l-0.2-0.7l-0.5-0.2
	l-0.6-0.7l-0.7-0.5l-0.1-0.6c-0.1-0.2-0.2-0.3-0.3-0.3s-0.2,0-0.3,0.1l-0.2-0.2c-0.4-0.3-0.7-0.5-0.8-0.7s-0.3-0.3-0.4-0.5l0.3-0.3
	c0.3-0.3,0.5-0.5,0.7-0.5c0.2-0.1,0.5-0.2,0.9-0.2l0.1-0.1h0.1l0.2,0.2l0.5,0.6l0.6,0.8c0.2,0.1,0.3,0.3,0.3,0.4v0.1
	c0.2,0.2,0.3,0.4,0.4,0.4c0.1,0.1,0.2,0.1,0.4,0.1l0.5,0.6c0.5,0.5,0.8,0.8,0.8,0.9v0.4l0,0c0,0.1,0.1,0.2,0.2,0.3
	c0.1,0.1,0.2,0.2,0.3,0.2c0.2,0,0.4-0.2,0.6-0.5l0.3-0.4c0.3,0,0.4,0,0.5-0.1s0.2-0.2,0.3-0.5l-0.1-0.2l0.2-0.2
	c0.5-0.4,0.7-0.6,0.8-0.8l0.1-0.6l0.4-0.5l0.6-0.8l0.4-0.3c0.3-0.2,0.5-0.3,0.7-0.3s0.3,0.1,0.3,0.3c0,0.1,0,0.2-0.1,0.3l-0.7,0.9
	l-0.5,0.7l-0.6,0.7l-1.2,1.4l-1.2,1.3l-0.1,0.4c0.2,0,0.4,0.1,0.5,0.1s0.2,0.2,0.3,0.3l0.3,0.1l0.3,0.3l0.9,1
	c0.2,0.2,0.4,0.4,0.7,0.6c0.3,0.2,0.5,0.4,0.5,0.5s0,0.1-0.1,0.2l0.1,0.1c0.2,0,0.4,0.1,0.5,0.2c0.2,0,0.4,0,0.4,0.1
	c0.1,0,0.2,0.2,0.3,0.3c0.1,0.2,0.3,0.3,0.5,0.5C201,146.7,201.2,147,201.2,147.2z"/>
<path d="M214.4,147.2l-0.1,0.3l-0.2,0.3l-0.4,0.1l-0.5,0.3l-0.5,0.2c-0.3,0.1-0.5,0.2-0.6,0.2s-0.1,0-0.2-0.1
	c-0.1-0.1-0.1-0.1-0.1-0.2c0-0.1,0-0.3,0.1-0.6c0-0.1,0.1-0.2,0.1-0.5l-0.3,0.2l-1.2,0.4c-0.2,0.1-0.5,0.2-0.7,0.2l0,0h-0.5
	l-0.6,0.3l-0.4,0.1l-1.2,0.3l-0.5-0.1l-0.4,0.1l-0.3,0.1h-0.4l-0.9-0.2l-0.6-0.1c-0.4-0.1-0.8-0.2-1-0.4c-0.3-0.2-0.5-0.5-0.7-0.9
	l-0.4-0.1l-0.1-0.3v-0.2l-0.2-0.6l0.5-1l0.2-0.4c0.1-0.1,0.2-0.3,0.5-0.5l1-0.8l0.4-0.2l0.7-0.3c0,0,0,0,0.1,0h0.1
	c0.2-0.4,0.5-0.6,1-0.6l0.1-0.1h0.3c0.1-0.1,0.2-0.2,0.3-0.3s0.3-0.1,0.6-0.2l1.6-0.3l0.5,0.1l0.6-0.1l1.1-0.1
	c0.4-0.1,0.6-0.3,0.6-0.5v-0.1l-0.1-0.6l0.1-0.9c0-0.2-0.1-0.3-0.2-0.4c-0.1-0.1-0.3-0.1-0.5-0.2l-0.2-0.3c-0.2-0.3-0.4-0.5-0.5-0.6
	s-0.4-0.2-0.7-0.2l-0.8-0.2h-0.7l-0.4,0.1c-0.1,0-0.1-0.1-0.2-0.1c0-0.1-0.1-0.1-0.1-0.2l-0.4,0.2l-0.4,0.4l-1.3,0.6
	c-0.3,0.1-0.5,0.3-0.5,0.4l-0.2,0.3c-0.1,0.1-0.2,0.2-0.4,0.2L204,139l-0.4-0.2l-0.4-0.1c-0.1,0-0.3-0.1-0.4-0.2
	c-0.1-0.1-0.2-0.2-0.2-0.3s0-0.1,0-0.1l0.2-0.2l0.4-0.3l0.5-0.1l0.7-0.4l0.9-0.3l0.2-0.1l0.6-0.3l0.5,0.1l1.6-0.3h0.7h0.5l0.5,0.2
	l1.6,0.3l0.2,0.1v0.2l-0.2,0.1c0.1,0.3,0.2,0.5,0.3,0.5l0,0l0,0l0.4-0.2h0.1c0.1,0,0.1,0,0.2,0.1l0.3,0.5l0.3,0.2v0.3l-0.1,0.7
	c0,0.3,0.1,0.5,0.4,0.8l0.2,2l-0.4,0.5l0.4,0.5v0.2l-0.1,1.2l0.1,0.9v0.2v0.3l-0.2,0.1c0,0.2,0,0.4,0,0.4c0,0.1,0,0.2,0.1,0.3
	s0.1,0.3,0.2,0.4L214.4,147.2z M212.3,144.9c-0.1-0.1-0.2-0.2-0.3-0.3l0.1-0.5l-0.1-1.2l0.2-0.4l-0.4-0.2l-0.2,0.1l-1.2-0.1h-0.6
	l-0.4-0.3l-0.3,0.2h-0.7l-0.5,0.2l-0.3-0.2l-0.4,0.2l-2,0.9l-0.4,0.3l-0.3,0.5l-0.5,0.3c-0.1,0.1-0.1,0.1-0.1,0.2c0,0,0,0,0,0.1
	l0.1,0.2v0.1l0.3,1.2L204,147l0.2,0.3l0.4-0.4c0.1,0.1,0.2,0.2,0.3,0.3s0.2,0.1,0.4,0.2c0.2,0,0.3,0.1,0.6,0.2l0.3,0.4l0.9,0.1
	l0.3-0.3l0.3,0.1l0.2-0.1l0.1-0.1c0.2,0.1,0.3,0.1,0.4,0.1c0.3,0,0.6-0.1,1-0.4c0,0,0.1,0,0.1-0.1c0,0,0.1-0.1,0.2-0.1
	c0.8,0,1.3-0.2,1.6-0.5l0.3-0.3l0.6-0.5v-0.2v-0.2c0.1,0,0.2-0.1,0.3-0.2S212.3,145.1,212.3,144.9z"/>
<path d="M227.6,144.2c0,0.4-0.1,0.6-0.2,0.9c-0.1,0.2-0.3,0.4-0.5,0.4c0,0-0.1,0-0.3-0.1l-0.2,0.3l-0.2,0.6l-0.6,0.6l-0.3,0.4h-0.4
	l-1.2,0.6l-0.6,0.1l-1,0.3l-0.8-0.1l-1.2,0.3c-0.1,0-0.5-0.1-1.3-0.3c-0.4-0.1-0.6-0.2-0.7-0.2l-0.5-0.3l-0.6-0.4
	c-0.3-0.2-0.5-0.4-0.7-0.7s-0.3-0.5-0.3-0.8c0-0.1,0.2-0.3,0.4-0.6s0.6-0.4,1-0.6l0.3,0.4l0.3,1.2l0.5,0.3l0.8,0.6l0.4,0.1l0.7,0.3
	h0.5l0.3,0.1l0.6-0.2l1.1-0.1l0.5-0.3l0.5-0.2c0.3-0.2,0.6-0.6,0.9-1.2c0.3-0.6,0.5-1.1,0.5-1.6c0-0.2-0.1-0.3-0.2-0.5l-0.5-0.7
	l-0.1-0.3l-0.3-0.2l-0.2,0.2h-0.3l-0.7-0.1h-0.8H222l-0.4-0.5c-0.2,0.2-0.3,0.3-0.4,0.4c-0.1,0.1-0.3,0.1-0.7,0.2l-0.5,0.1l-0.3-0.1
	h-0.3l-0.3-0.3l-0.4,0.1l-0.4-0.2l-0.6-0.2c-0.2-0.1-0.4-0.2-0.6-0.5c-0.2-0.3-0.2-0.5-0.2-0.8c0-0.4,0.1-0.9,0.4-1.4
	c0.3-0.5,0.7-0.9,1.3-1.3c0.4-0.3,0.9-0.6,1.5-0.9s1.1-0.5,1.6-0.7s0.9-0.3,1.2-0.3c0.1,0,0.4,0.1,1,0.3l0.4,0.1
	c0.6-0.1,1-0.2,1.2-0.2s0.4,0,0.6,0.1c0.1,0.1,0.2,0.2,0.2,0.3s-0.1,0.3-0.4,0.5c-0.3,0.2-0.6,0.4-0.9,0.6l-0.4,0.2h-0.3h-0.7
	l-0.5-0.1l-0.2-0.5h-0.2l-0.2,0.2h-0.4h-0.4l-0.5,0.1l-0.4-0.1l-0.2,0.2l-0.8,0.5c-0.6,0.5-0.9,1-0.9,1.4c0,0.3,0.1,0.5,0.3,0.6
	l0.9,0.4l0.3,0.1v0.3l0.4,0.2l0.4-0.4h0.2l2.2-0.2l1.1,0.2l0.5-0.1l0.6,0.4l0.9,0.5c0.2,0.1,0.3,0.4,0.5,0.8l0.1,0.4
	C227.5,143.4,227.6,143.9,227.6,144.2z"/>
<path d="M112.4,162.9c0,0.2-0.1,0.4-0.1,0.4c0,0.1-0.2,0.3-0.6,0.8l-0.6,0.7c-0.2,0.3-0.4,0.4-0.6,0.4h-0.1l-1.1-0.2l-1.4,0.1
	l-0.5-0.3l-0.8,0.1l-1.7-0.2h-0.6l-0.5,0.1l-0.3-0.4l-0.4,0.1l-0.7,0.5l-0.6,0.1L101,165l-1.1-0.3l0,0c0,0,0,0-0.1,0l-1,0.2
	l-1.5-0.2l-1,0.2l-0.5,0.1c0,0.3-0.1,0.8-0.2,1.3s-0.1,1-0.1,1.5v0.7l0.1,1.7v1.1c0,0.2,0,0.3,0,0.4l-0.5,1.9l0.1,0.3
	c0.3,0.1,0.4,0.2,0.4,0.4l-0.2,0.6v0.4l0.2,0.1l0.1,0.2l-0.3,0.8l0.1,0.7l-0.1,0.9l0.3,1.4v2.3v1.3c0,0.2-0.1,0.4-0.2,0.5
	s-0.3,0.3-0.7,0.5l-0.3,0.2v-0.1c-0.4,0.1-0.7,0.2-0.8,0.4l-0.3,0.3c0,0-0.1,0-0.1,0.1c0,0-0.1,0-0.2,0.1c-0.1,0-0.2,0-0.3,0.1
	l-0.4,0.1l-0.1-1c0-0.3,0-0.6,0.1-0.7c0.1-0.1,0.2-0.3,0.4-0.4v-0.3c0-0.1,0-0.3,0.1-0.6l-0.3-0.7l0.1-0.4l0.3-3.7l0.1-0.4l-0.2-0.8
	l0.3-1.3v-0.2V174l-0.2-0.1v-0.2l-0.1-0.1l0.1-0.5l-0.1-0.7v-0.5c0-0.2,0.1-0.3,0.2-0.4v-1.1l-0.3-0.2l0.1-3
	c0.1-0.1,0.2-0.4,0.2-0.6v-0.3c-0.2-0.2-0.3-0.4-0.4-0.6c-0.1-0.2-0.1-0.5-0.1-0.9v-0.7c0.2-0.4,0.3-0.7,0.3-1v-0.4l-0.4,0.1
	l-0.1-0.5l0.2-0.9c0.1-0.3,0.1-0.6,0.1-1s0-0.6-0.1-0.8c-0.1-0.1-0.3-0.3-0.5-0.3l0.1-0.9l-0.5-0.3c0-0.4,0.1-0.6,0.2-0.7L93,157
	l1.5-0.6l1.7,0.1c0.6,0.1,1,0.1,1.3,0.3c0.5,0.2,0.8,0.3,0.9,0.3l0,0l0.8-0.2l0.5,0.3h0.7l1,0.2l0.7-0.1h2.7l4.1-0.7h0.5
	c0,0.4-0.1,0.7-0.4,1c-0.6,0.8-1.3,1.3-1.9,1.3h-0.2h-4.3l-0.7-0.2h-2.1l-0.4-0.2c-0.2-0.1-0.4-0.1-0.7-0.1l-0.1,0.1l-0.1,0.2H98
	l-1.8-0.2c-0.3,0-0.5,0.1-0.9,0.2l0.3,0.2l-0.3,0.2l0.1,0.9c-0.2,0.2-0.4,0.4-0.4,0.6c0,0.2,0.1,0.4,0.3,0.8l0.2,0.5l-0.2,1.1h0.5
	l0.1,0.2l0.2-0.1l0.5,0.2l1.1,0.1l0.6,0.4l0.2-0.2l0.1-0.2l0.7,0.1h2c0.4,0,1.1,0.1,1.9,0.3l0.3-0.3h0.3l4-0.1l0.9,0.2l1.2-0.5h0.7
	l1.1-0.3L112.4,162.9z"/>
<path d="M117.4,178.4l-0.1,0.7v0.5c0,0.1-0.1,0.2-0.2,0.3l0.1,0.3l-0.3,0.1l-0.9,0.5l-0.3,0.1l-0.4,0.3h-0.1h-0.1
	c-0.2,0-0.3-0.1-0.3-0.2v-0.3l-0.1-0.6l0.2-1.4l0.1-1.8c0-0.4,0.1-0.8,0.3-1.1l-0.2-0.4c-0.1-0.3-0.2-0.4-0.2-0.5s0.1-0.4,0.3-0.8
	c0.1-0.1,0.1-0.3,0.1-0.4c0-0.1-0.1-0.2-0.4-0.3l0.1-0.2l-0.1-0.1v-0.2v-0.2l0.2-0.9v-2.3l0.3-1.1c0-0.1-0.1-0.3-0.3-0.5v-0.6
	l-0.1-2.4c0-0.2,0.1-0.5,0.3-0.9l0.2-0.3c-0.3-0.1-0.5-0.3-0.5-0.4c0,0,0-0.1,0.1-0.5l-0.3-0.2v-0.5l-0.1-0.6v-0.1l0.2-0.7l-0.2-0.9
	l0.1-0.5l-0.3-1.5v-0.1v-0.1l0.1-0.4l0.1-0.5l1.2-0.6l0.5-0.4l0.2-0.1l0.2,0.3v0.6l0.1,0.4v0.2v0.3l-0.1,1v0.1v0.5
	c0,0.2,0,0.3-0.1,0.3l-0.3,0.7v0.3c0.2,0,0.3,0,0.3,0.1c0,0,0.1,0.2,0.1,0.4v0.3c0,0.2-0.1,0.3-0.3,0.4v0.3v0.3v0.1l0.2,0.4
	l-0.1,2.5v1.8l-0.4,0.7l0.2,1l-0.3,0.6c0,0.1,0.1,0.2,0.2,0.3l0.2,0.2l0.1,4.3l-0.3,0.4c0,0.2,0,0.3,0,0.5c0,0.3,0,0.6-0.1,0.9
	l0.1,0.3h0.4v0.5L117.4,178.4z"/>
<path d="M134.4,174.1l-0.3-0.1l0.1,0.3l-0.3,0.2c0,0.2,0.1,0.3,0.1,0.3s0.1,0.1,0.2,0.2v0.3c0,1-0.4,2-1.1,3.1
	c-0.2,0.2-0.4,0.5-0.6,0.8c-0.2,0.3-0.4,0.5-0.5,0.5l-0.4,0.1l-2.5,1.2l-1.4,0.1l-1,0.3h-1.2l-0.4,0.1l-1.2-0.2h-0.5l-0.3-0.3
	l-0.7-0.1l-0.3-0.2c-0.3-0.2-0.5-0.4-0.8-0.6c-0.2-0.2-0.3-0.3-0.4-0.3s-0.1-0.1-0.1-0.2l-0.3-0.6l-0.4-0.3l-0.3-0.8l-0.1-0.3
	l0.1-0.1c0-0.1,0-0.2,0.1-0.3c0,0,0.1-0.1,0.2-0.1l-0.1-0.2l-0.4-0.3v-0.5c0-0.4,0-0.8,0.1-1.1c0.1-0.4,0.2-0.8,0.5-1.3
	c0.3-0.8,0.6-1.2,0.8-1.3l0.5-0.4l0.3-0.5c0.1-0.2,0.2-0.3,0.4-0.4l1.2-0.7l0.7-0.6l0.8-0.3l1.5-0.5l1.2-0.1h1
	c0.5,0,0.8,0.1,0.8,0.4c0.1,0.1,0.2,0.2,0.3,0.2s0.3-0.1,0.4-0.4l0.3,0.1l0.9,0.3l0.4,0.3l0.5,0.3l0.5,0.8c0.1,0.2,0.4,0.3,0.8,0.3
	c0.3,0.3,0.4,0.6,0.5,0.9c0.1,0.3,0.2,0.9,0.3,1.7L134.4,174.1z M132.5,174.4l-0.5-1.5l-0.1-0.7l-0.1-0.3h-0.1c-0.1,0-0.1,0-0.2,0
	c0,0-0.1-0.1-0.2-0.1l-0.6-0.8l-0.2-0.3l-1.1-0.5c-0.1-0.2-0.2-0.3-0.3-0.4c-0.1-0.1-0.2-0.1-0.3-0.1s-0.3,0-0.5,0.1
	c-0.2-0.1-0.4-0.2-0.5-0.2l-0.4,0.1h-0.6l-0.9,0.3l-0.2-0.2l-0.2,0.2l-0.9,0.5L123,172l-0.3,0.3c-0.1,0.4-0.3,1-0.6,1.5l-0.2,0.3
	v0.1c0,0.2,0,0.3-0.1,0.4c-0.1,0.1-0.2,0.1-0.4,0.1c0,0.1-0.1,0.2-0.1,0.2l0,0l0,0l0.4,0.5l0.1,0.3c-0.3,0.2-0.4,0.4-0.4,0.5
	l0.1,0.2c0.1-0.1,0.2-0.1,0.2-0.1c0.1,0,0.1,0,0.2,0.1l0.3,1l0.7,1.1l-0.1,0.7c0.1,0.1,0.1,0.1,0.2,0.1s0.2-0.1,0.3-0.2l0.3,0.1
	l1.6,1l1.6,0.2l0.9,0.1l1-0.2l0.7-0.2l0.9-0.9l0.6-0.2l0.3-0.3l0.7-1.5l0.4-0.3c0.1-0.1,0.2-0.2,0.2-0.3v-0.1l-0.2-0.6L132.5,174.4z
	"/>
<path d="M150.6,174.1l-0.3-0.1l0.1,0.3l-0.3,0.2c0,0.2,0.1,0.3,0.1,0.3s0.1,0.1,0.2,0.2v0.3c0,1-0.4,2-1.1,3.1
	c-0.2,0.2-0.4,0.5-0.6,0.8c-0.2,0.3-0.4,0.5-0.5,0.5l-0.4,0.1l-2.5,1.2l-1.3,0l-1,0.3h-1.2l-0.4,0.1l-1.2-0.2h-0.5l-0.3-0.3
	l-0.7-0.1l-0.3-0.2c-0.3-0.2-0.5-0.4-0.8-0.6c-0.2-0.2-0.3-0.3-0.4-0.3c-0.1,0-0.1-0.1-0.1-0.2l-0.3-0.6l-0.4-0.3l-0.3-0.8l-0.1-0.3
	l0.1-0.1c0-0.1,0-0.2,0.1-0.3c0,0,0.1-0.1,0.2-0.1l-0.1-0.2l-0.4-0.3V176c0-0.4,0-0.8,0.1-1.1c0.1-0.4,0.2-0.8,0.5-1.3
	c0.3-0.8,0.6-1.2,0.8-1.3l0.5-0.4l0.3-0.5c0.1-0.2,0.2-0.3,0.4-0.4l1.2-0.7l0.7-0.6l0.8-0.3l1.5-0.5l1.2-0.1h1
	c0.5,0,0.8,0.1,0.8,0.4c0.1,0.1,0.2,0.2,0.3,0.2s0.3-0.1,0.4-0.4l0.3,0.1l0.9,0.3l0.4,0.3l0.5,0.3l0.5,0.8c0.1,0.2,0.4,0.3,0.8,0.3
	c0.3,0.3,0.4,0.6,0.5,0.9c0.1,0.3,0.2,0.9,0.3,1.7V174.1z M148.7,174.4l-0.5-1.5l-0.1-0.7L148,172h-0.1c-0.1,0-0.1,0-0.2,0
	c0,0-0.1-0.1-0.2-0.1l-0.6-0.8l-0.2-0.3l-1.1-0.5c-0.1-0.2-0.2-0.3-0.3-0.4c-0.1-0.1-0.2-0.1-0.3-0.1s-0.3,0-0.5,0.1
	c-0.2-0.1-0.4-0.2-0.5-0.2l-0.4,0.1H143l-1,0.2l-0.2-0.2l-0.2,0.2l-0.9,0.5l-1.6,1.4l-0.3,0.3c-0.1,0.4-0.3,1-0.6,1.5L138,174v0.1
	c0,0.2,0,0.3-0.1,0.4c-0.1,0.1-0.2,0.1-0.4,0.1c0,0.1-0.1,0.2-0.1,0.2l0,0l0,0l0.4,0.5l0.1,0.3c-0.3,0.2-0.4,0.4-0.4,0.5l0.1,0.2
	c0.1-0.1,0.2-0.1,0.2-0.1c0.1,0,0.1,0,0.2,0.1l0.3,1l0.7,1.1l-0.1,0.7c0.1,0.1,0.1,0.1,0.2,0.1c0.1,0,0.2-0.1,0.3-0.2l0.3,0.1l1.6,1
	l1.6,0.2l0.9,0.1l1-0.2l0.7-0.2l0.9-0.9l0.6-0.2l0.3-0.3l0.7-1.5l0.4-0.3c0.1-0.1,0.2-0.2,0.2-0.3v-0.1l-0.2-0.6L148.7,174.4z"/>
<path d="M162.2,169.7c0,0,0,0.1-0.1,0.1l-0.8,0.6l-0.4,0.4l-0.2,0.1l-0.4-0.2l-0.2-0.2h-0.8l-0.8-0.3l-0.3-0.1
	c-0.1,0.2-0.2,0.3-0.4,0.4c-0.1,0-0.4,0.1-0.8,0.1l-0.4,0.2l-0.3-0.1l-0.3,0.2l-1.1,0.8c-0.2,0.2-0.3,0.7-0.3,1.3v1l-0.3,0.2
	c0.2,0.3,0.3,0.6,0.3,0.9h0.2v0.4l0.1,1.7v0.9l-0.1,0.8c-0.3,0.2-0.4,0.3-0.4,0.4c0,0,0,0.1,0.1,0.2l0.4-0.1v0.1l0.1,0.5v0.1
	c0,0.1-0.1,0.3-0.2,0.4c-0.1,0.1-0.3,0.2-0.4,0.2l-0.5,0.1l-0.8,0.4l-0.3-0.2l0.1-0.3l0.2-0.8l-0.1-1l0.1-0.1h0.3v-0.2v-0.2
	l-0.2-0.4v-0.5l-0.1-0.5l0,0v-0.4v-0.4l0.1-0.1c0,0,0.1-0.1,0.2-0.2c0.1-0.1,0.1-0.2,0.2-0.4l0.1-0.3v-0.1c-0.4,0-0.6-0.1-0.6-0.3
	l0.1-1l-0.1-1c0-0.1,0.1-0.2,0.2-0.3V172l-0.2-0.2l-0.1-0.3v-0.7l-0.3-0.6c0.1-0.3,0.2-0.6,0.4-0.8l0.8-0.4l0.5-0.3
	c0.2,0.1,0.4,0.2,0.5,0.3s0.1,0.3,0.1,0.5v0.1v0.4c0,0.3,0.1,0.5,0.2,0.5h0.1l0.7-0.4l0.7-0.3l1.1-0.6l0.4-0.2l0.3,0.1l0.6-0.2
	c0.3-0.1,0.6-0.2,0.8-0.2l0.6,0.1c0.2,0.2,0.3,0.4,0.4,0.4l0,0l0,0l0.3-0.2c0.1,0,0.1-0.1,0.2-0.1c0.2,0,0.4,0.1,0.6,0.4
	C162.2,169.4,162.2,169.6,162.2,169.7z"/>
<path d="M213.9,174.1l-0.3-0.1l0.1,0.3l-0.3,0.2c0,0.2,0.1,0.3,0.1,0.3s0.1,0.1,0.2,0.2v0.3c0,1-0.4,2-1.1,3.1
	c-0.2,0.2-0.4,0.5-0.6,0.8c-0.2,0.3-0.4,0.5-0.5,0.5l-0.4,0.1l-2.5,1.2l-1.4,0.1l-1,0.3H205l-0.4,0.1l-1.2-0.2h-0.5l-0.3-0.3
	l-0.7-0.1l-0.3-0.2c-0.3-0.2-0.5-0.4-0.8-0.6c-0.2-0.2-0.3-0.3-0.4-0.3c-0.1,0-0.1-0.1-0.1-0.2L200,179l-0.4-0.3l-0.3-0.8l-0.1-0.3
	l0.1-0.1c0-0.1,0-0.2,0.1-0.3c0,0,0.1-0.1,0.2-0.1l-0.1-0.2l-0.4-0.3v-0.5c0-0.4,0-0.8,0.1-1.1c0.1-0.4,0.2-0.8,0.5-1.3
	c0.3-0.8,0.6-1.2,0.8-1.3l0.5-0.4l0.3-0.5c0.1-0.2,0.2-0.3,0.4-0.4l1.2-0.7l0.7-0.6l0.8-0.3l1.5-0.5l1.2-0.1h1
	c0.5,0,0.8,0.1,0.8,0.4c0.1,0.1,0.2,0.2,0.3,0.2s0.3-0.1,0.4-0.4l0.3,0.1l0.9,0.3l0.4,0.3l0.5,0.3l0.5,0.8c0.1,0.2,0.4,0.3,0.8,0.3
	c0.3,0.3,0.4,0.6,0.5,0.9c0.1,0.3,0.2,0.9,0.3,1.7L213.9,174.1z M212,174.4l-0.5-1.5l-0.1-0.7l-0.1-0.3h-0.1c-0.1,0-0.1,0-0.2,0
	c0,0-0.1-0.1-0.2-0.1l-0.6-0.8l-0.2-0.3l-1.1-0.5c-0.1-0.2-0.2-0.3-0.3-0.4c-0.1-0.1-0.2-0.1-0.3-0.1s-0.3,0-0.5,0.1
	c-0.2-0.1-0.4-0.2-0.5-0.2l-0.4,0.1h-0.6l-0.9,0.3l-0.2-0.2L205,170l-0.9,0.5l-1.6,1.4l-0.3,0.3c-0.1,0.4-0.3,1-0.6,1.5l-0.2,0.3
	v0.1c0,0.2,0,0.3-0.1,0.4c-0.1,0.1-0.2,0.1-0.4,0.1c0,0.1-0.1,0.2-0.1,0.2l0,0l0,0l0.4,0.5l0.1,0.3c-0.3,0.2-0.4,0.4-0.4,0.5
	l0.1,0.2c0.1-0.1,0.2-0.1,0.2-0.1c0.1,0,0.1,0,0.2,0.1l0.3,1l0.7,1.1l-0.1,0.7c0.1,0.1,0.1,0.1,0.2,0.1c0.1,0,0.2-0.1,0.3-0.2
	l0.3,0.1l1.6,1l1.6,0.2l0.9,0.1l1-0.2l0.7-0.2l0.9-0.9l0.6-0.2l0.3-0.3l0.7-1.5l0.4-0.3c0.1-0.1,0.2-0.2,0.2-0.3v-0.1l-0.2-0.6
	L212,174.4z"/>
<path d="M228.3,180c-0.1,0.2-0.2,0.4-0.4,0.5l-1.5,0.7c-0.3-0.2-0.4-0.4-0.4-0.8v-0.8l-0.2-0.1l-0.9,0.4l-1.2,0.6l-0.5,0.2l-1.6,0.3
	l-0.5,0.2H221c-0.1,0-0.1,0-0.2,0l-0.5-0.2l-0.6,0.2l-0.5-0.5l-1.1,0.2c-0.1,0-0.3-0.1-0.5-0.2c-0.2-0.1-0.4-0.2-0.5-0.4
	c-0.4-0.4-0.6-0.9-0.6-1.3c0-0.1,0.1-0.3,0.3-0.4l-0.4-0.2v-0.5v-0.7c0-0.2,0-0.4,0.1-0.5l0.3-0.5l-0.3-0.7v-0.8v-0.9
	c0-0.1,0.1-0.4,0.3-0.9v-0.2l-0.3,0.1l-0.2-0.2v-0.3v-1.6c0-0.2,0-0.4-0.1-0.6l-0.1-0.2l0,0l0,0c0-0.1,0.1-0.3,0.3-0.4l0.2-0.1
	l1-0.4c0.3-0.1,0.5-0.2,0.6-0.2s0.3,0.1,0.4,0.4l0.1,0.3c-0.2,0.5-0.3,0.9-0.3,1.4l0.1,0.8v0.3l-0.2,0.6c0,0.2,0,0.4,0,0.5
	s0,0.2,0,0.2c0,0.1,0,0.3,0.1,0.4l0.2,0.4l-0.3,1l0.1,0.3l-0.1,0.6l-0.1,0.8c0,0.1,0,0.1,0,0.2l0.2,0.3l0.1,1.4
	c0.1,0.3,0.2,0.4,0.3,0.5c0.2,0.1,0.5,0.2,1.1,0.4l1,0.3c0.2,0,0.5,0.1,0.9,0.1c0.3,0,0.5,0,0.7-0.1l0.8-0.3l0.8,0.2
	c0.1,0,0.2-0.2,0.3-0.4l0.4-0.2l0.6-0.8l0.5-0.4c0.1-0.2,0.2-0.4,0.2-0.7l0.1-1.3l0.1-0.3l-0.3-0.3v-0.5l0.1-2.1l-0.1-0.7l-0.1-0.8
	c0-0.1,0.1-0.3,0.2-0.4l-0.1-0.2h-0.2l-0.1-0.4v-0.1l0.1-0.4v-0.3l0.2,0.1l1.5-0.5l0,0l0,0c0.1,0,0.2,0.1,0.2,0.2
	c0.1,0.2,0.1,0.4,0.1,0.6l-0.1,2.7l-0.2,2.1l-0.4-0.1c-0.1,0.2-0.2,0.4-0.2,0.5l0.1,0.3c0.1,0,0.2-0.1,0.2-0.1c0.1,0,0.1,0,0.2,0.1
	c0.1,0,0.1,0.1,0.1,0.2l-0.1,2.5l0.3,0.5l0.1,1.3c0,0.1,0.1,0.1,0.2,0.2C228.1,179.7,228.2,179.8,228.3,180z"/>
<path d="M240.7,169.7c0,0,0,0.1-0.1,0.1l-0.8,0.6l-0.4,0.4l-0.2,0.1l-0.4-0.2l-0.2-0.2h-0.8l-0.8-0.3l-0.3-0.1
	c-0.1,0.2-0.2,0.3-0.4,0.4c-0.1,0-0.4,0.1-0.8,0.1l-0.4,0.2l-0.3-0.1l-0.3,0.2l-1.1,0.8c-0.2,0.2-0.3,0.7-0.3,1.3v1l-0.3,0.2
	c0.2,0.3,0.3,0.6,0.3,0.9h0.2v0.4l0.1,1.7v0.9l-0.1,0.8c-0.3,0.2-0.4,0.3-0.4,0.4c0,0,0,0.1,0.1,0.2l0.4-0.1v0.1l0.1,0.5v0.1
	c0,0.1-0.1,0.3-0.2,0.4c-0.1,0.1-0.3,0.2-0.4,0.2l-0.5,0.1l-0.8,0.4l-0.3-0.2l0.1-0.3l0.2-0.8l-0.1-1l0.1-0.1h0.3v-0.2v-0.2
	l-0.2-0.4v-0.5l-0.1-0.5l0,0v-0.4v-0.4l0.1-0.1c0,0,0.1-0.1,0.2-0.2c0.1-0.1,0.1-0.2,0.2-0.4l0.1-0.3v-0.1c-0.4,0-0.6-0.1-0.6-0.3
	l0.1-1l-0.1-1c0-0.1,0.1-0.2,0.2-0.3V172l-0.2-0.2l-0.1-0.3v-0.7l-0.3-0.6c0.1-0.3,0.2-0.6,0.4-0.8l0.8-0.4l0.5-0.3
	c0.2,0.1,0.4,0.2,0.5,0.3s0.1,0.3,0.1,0.5v0.1v0.4c0,0.3,0.1,0.5,0.2,0.5h0.1l0.7-0.4l0.7-0.3l1.1-0.6l0.4-0.2l0.3,0.1l0.6-0.2
	c0.3-0.1,0.6-0.2,0.8-0.2l0.6,0.1c0.2,0.2,0.3,0.4,0.4,0.4l0,0l0,0l0.3-0.2c0.1,0,0.1-0.1,0.2-0.1c0.2,0,0.4,0.1,0.6,0.4
	C240.6,169.4,240.7,169.6,240.7,169.7z"/>
<path d="M252.7,178.3c0,0.1,0,0.1,0,0.1l-0.2,0.7l0,0c0,0,0,0,0,0.1l-0.6,0.7l-0.3,0.1l-0.5,0.3l-0.2,0.1l-0.6,0.3h-0.1h-0.8
	c-0.2,0-0.4,0.1-0.6,0.2l-0.7,0.4l-1.1,0.1l-1.1-0.1l-0.2-0.2l-0.8-0.1l-0.9-0.2l-1.2-0.3l-0.6-0.5l-0.5-0.5l0.2-0.5
	c-0.2,0.1-0.3,0.1-0.5,0.1h-0.1l-0.2-0.3l-0.3-0.6l-0.2-0.2l-0.1-0.8l0.1-0.4l-0.1-0.2l-0.3-0.3l0.2-0.7l-0.1-1.2l0.5-0.8l0.6-1.2
	l0.7-0.6l1.3-1.3l0.4-0.3l0.5-0.4l0.2-0.1l0.5-0.4l1.7-0.5l0.4-0.1l0,0l0,0l0.7,0.3l0.7-0.2l1.3,0.2l1.1-0.2c0.1,0,0.3,0.1,0.4,0.2
	c-0.1,0.3-0.1,0.5-0.2,0.6c-0.1,0.1-0.3,0.2-0.5,0.3v0.3l-0.5,0.3l-0.4,0.2h-0.1l-0.4-0.1l-0.4,0.1l-2-0.3c-0.1,0-0.2,0-0.3,0
	s-0.2,0-0.3,0l-1.1,0.2h-0.4c-0.3,0.1-0.6,0.3-0.9,0.7l-0.6,0.2l-0.3,0.5l-0.4,0.1c0,0.1,0.1,0.1,0.1,0.2l-0.5,1.1l-0.1,0.5v0.8
	c0,0.4,0,0.7,0.1,1s0.1,0.5,0.3,0.8l-0.1,0.3c-0.1,0.1-0.1,0.2-0.1,0.3s0,0.1,0.1,0.2c0.3,0.1,0.4,0.1,0.4,0.1
	c0.1,0.1,0.2,0.2,0.4,0.5l0.4,0.5c0,0,0,0.1,0.1,0.1c0,0,0,0.1,0.1,0.2h0.3l0.2,0.2l0.9,0.6l0.4,0.3l0.4,0.1l0.4,0.1h0.6l1.5,0.2
	c0,0,0,0,0.1,0s0.5-0.1,0.9-0.4l0.3,0.1l0.9-0.6c0.2,0,0.5-0.1,0.7-0.3s0.5-0.4,0.9-0.8c0.1-0.1,0.2-0.2,0.3-0.2s0.1,0,0.2,0.1
	C252.7,178.1,252.7,178.2,252.7,178.3z"/>
<path d="M266.9,178.1c0,0.1,0,0.2-0.1,0.3l-0.3,0.5l-0.6,1.1h-0.6l-0.4,0.3c-0.1,0.1-0.2,0.1-0.4,0.2l-2.4,0.5l-0.4,0.1l-0.8-0.1
	l-1.2,0.1l-1.4-0.1H258c-0.2-0.1-0.3-0.2-0.4-0.3l-1.3-0.5l-0.4-0.4l-0.9-0.6l-0.7-0.9l-0.3-0.2c0.1-0.2,0.2-0.4,0.2-0.6
	c0-0.1,0-0.1-0.1-0.2l-0.4-0.6l-0.1-0.8v-0.6c0-0.2,0-0.5,0.1-0.8c0.1-0.5,0.3-0.8,0.4-0.9l0.5-0.6l0.3-0.6l0.6-0.6l0.7-0.9l0.6-0.3
	l0.9-0.6l0.6-0.4l0.2-0.1l0.4-0.1l1.2-0.4l0.9-0.1l0.6-0.2h0.3c0.4,0,0.8,0.2,1.1,0.7c0.2,0,0.3-0.1,0.4-0.3l0.4,0.3l0.5,0.3
	l1.1,1.1c0.1,0.2,0.2,0.3,0.3,0.5c0.1,0.1,0.2,0.3,0.2,0.4c0.1,0.1,0.1,0.3,0.2,0.5s0.1,0.4,0.3,0.8l0.1,0.3l-0.1,0.1l-0.5-0.1
	l-0.6,0.2l-0.4-0.1l-0.5,0.1l-0.9-0.1l-0.9,0.1l-0.9-0.2h-1.5h-0.7l-1.8,0.2h-0.6l-0.9,0.3l-0.3,0.1l-0.1,0.3c0,0.2,0,0.4-0.1,0.4
	c0,0.1-0.1,0.2-0.3,0.3v0.3c0.3,0.2,0.4,0.4,0.5,0.4l0.3,1.3l0.2,0.3c-0.1,0.1-0.1,0.2-0.1,0.2s0,0,0,0.1l0.5,0.2l0.1,0.3
	c0.1,0.3,0.2,0.5,0.3,0.6l0.7,0.3l0.2,0.5c0.1,0.1,0.3,0.1,0.6,0.1l0.2,0.3l0.4,0.1l1.1,0.4l0.9-0.2l2.5-0.4l0.5-0.3l0.8-0.5
	l0.7-0.9c0.1-0.1,0.3-0.2,0.4-0.2C266.7,177.7,266.9,177.8,266.9,178.1z M263.8,171.9c0-0.1-0.2-0.4-0.5-0.9l-0.9-0.7l-0.3-0.3h-0.4
	l-1-0.1l-0.2,0.1l-0.6,0.3l-0.7,0.2l-0.9,0.3l-0.4,0.1l-0.4,0.6c-0.3,0.2-0.4,0.3-0.4,0.3L257,172l1.6,0.1h0.2l0.3-0.1l0.3,0.1
	l0.8,0.2l0,0l0.9-0.2l0.3-0.1l0.2,0.3h0.3l1.2-0.2l0.5,0.1C263.7,172.1,263.8,172,263.8,171.9z"/>
<g>
	<path d="M196.5,174.8c0,0.3-0.1,0.7-0.2,1.2h-0.8l-0.3,0.1l0.1,0.6c0.3,0.2,0.5,0.4,0.5,0.8c0,0.6-0.1,0.9-0.2,1.1l-1.1,1.4
		l-0.4,0.6l-0.8,0.8l-0.8,0.8l-0.4,0.2l-3.2,2.1l-1.6,0.5c-0.4,0.2-0.7,0.2-0.9,0.2c-0.1,0-0.2,0-0.4-0.1c-0.4,0.2-0.9,0.3-1.4,0.3
		h-1h-1.9l-0.7-0.2l-2.4-0.2l-1.4-0.8l-0.6,0.1l0.2,0.2l-0.6-0.1l-0.6-0.1l-1.6-1.2l-1.1-0.1l-1.1-0.7c-0.5-0.3-0.7-0.6-0.7-0.7
		c0-0.3,0.1-0.6,0.3-1s0.5-0.8,0.8-1.1c0.4-0.5,0.8-0.7,1.3-0.8l0.3,1.5c0.3,0.1,0.5,0.3,0.6,0.4c0.1,0.1,0.2,0.3,0.2,0.6l0.5-0.1
		l0.4,0.3l0.3,0.5l1.4,0.4l1.4,0.6l2.8,0.6c0.5,0.3,0.8,0.5,0.8,0.5c0.2,0,0.3-0.1,0.3-0.4h0.3l2.6,0.2l0.8-0.4l0.5,0.2l0.8-0.2
		l0.9-0.3c0.5-0.2,0.8-0.4,1-0.7l0.6-0.8l0.7-0.8c0.1-0.2,0.2-0.5,0.3-1c0.5,0,0.8-0.2,0.8-0.5l-0.1-0.4v-0.5l0.3-0.4l0.6-1.9h0.2
		l-0.1-1.2l-0.4-1.1l-0.2-0.5h-0.6l-1.5-0.9l-1.8-0.7l-0.4-0.5l-0.6-0.3l-0.4,0.2l-0.1,0.2l-2.8-0.1l-0.6-0.8l-0.5,0.6l-0.5-0.1
		l-1.2-0.2c-0.8-0.2-1.4-0.3-1.8-0.4c-0.4-0.1-0.8-0.3-1.1-0.5v-0.5l-0.7-0.3c0,0-0.1,0-0.3,0.1c-0.5-0.4-0.8-0.7-1-0.9
		c-0.1-0.2-0.3-0.6-0.5-1.3h0.2l-0.4-0.5l-0.1-0.7l-0.1-0.7v-0.2l0.3-0.8l0.2-0.5l0.2-0.6l0.7-0.5c0.3-0.2,0.5-0.6,0.5-1.2l0.4-0.3
		l2.2-1.7l1-0.6l1.6-0.8l2.2-0.7l0.5-0.2l0.5-0.1l1.3-0.1l0.6-0.2l2.1,0.2h0.9l0.6,0.2l1,0.2c0.7,0.2,1,0.4,1,0.7c0,0.1,0,0.2,0,0.3
		c-0.3,0.1-0.4,0.2-0.4,0.2l-0.5,0.5c-0.3,0.2-0.9,0.5-1.6,0.7l-0.4-0.2l-1.1-0.8l-0.6-0.1l-1.7-0.3h-1h-1.1l-2,1l-1.4,0.7l-1,0.8
		l-0.5,0.5l-0.9,1.6l-0.8,0.6l-0.2,0.5l0.6,0.3c-0.1,0.1-0.1,0.3-0.1,0.5c0,0.1,0.1,0.4,0.2,0.7l-0.8,0.4l0.2,0.5l0.4,0.2l0.8,0.1
		l0.8,0.7l1.7,0.8l0.5,0.4l1.4-0.1l1.3,0.1l0.1,0.3l0.5-0.1l0.7-0.1c0.1,0,0.2,0,0.3,0l1.1,0.2l0.6,0.1c0.1,0.6,0.3,1,0.5,1h0.1
		c0,0,0,0,0.1,0l0.9-0.6l1.1,0.1h0.8c0.4,0,0.9,0.2,1.3,0.5l1,0.9c0,0,0,0,0.1,0c0,0,0.1,0,0.2,0c0.1,0,0.2,0,0.2,0l0,0
		c0.2,0,0.7,0.5,1.4,1.4l0.3,0.4l0.1,0.6L196.5,174.8z"/>
</g>
</svg>
