<?xml version="1.0" encoding="utf-8"?>
<!-- Generator: Adobe Illustrator 21.0.0, SVG Export Plug-In . SVG Version: 6.00 Build 0)  -->
<svg version="1.1" id="Layer_1" xmlns="http://www.w3.org/2000/svg" xmlns:xlink="http://www.w3.org/1999/xlink" x="0px" y="0px"
	 viewBox="0 0 640.2 216.7" style="enable-background:new 0 0 640.2 216.7;" xml:space="preserve">
<style type="text/css">
	.st0{fill-rule:evenodd;clip-rule:evenodd;fill:#BF4835;}
	.st1{fill-rule:evenodd;clip-rule:evenodd;fill:#050607;}
</style>
<g>
	<path class="st0" d="M108.3,26.6c10.8,0,23.6,1,27.6,3v13.8c0,13.8,7.9,15.8,7.9,15.8v12.8c0,8.9-2,14.8-2,14.8
		c-3.9,1-13.8,3.9-24.6,11.8c-7.9,5.9-14.8,14.8-14.8,23.6c0,5.9,1,9.9,3,13.8c0,0-3.9,2-10.8,2c-8.9-1-18.7-7.9-24.6-18.7
		C62,105.4,58.1,88.6,49.2,88.6c-8.9,0-8.9,8.9-15.8,8.9c-7.9,0-12.8-12.8-14.8-18.7C13.8,69.9,2,67,1,53.2h37.4V0h35.5v22.7
		c1,1,3.9,2,7.9,3l-3.9,17.7H67L63,59.1h10.8l-3.9,19.7c0,3-1,9.9,0,12.8c2,7.9,6.9,10.8,13.8,10.8c9.8,0,18.7-4.9,18.7-4.9
		l3.9-12.8h-6.9c-2,0-3.9,0-3-4.9l4.9-20.7h10.8l3.9-15.8h-10.8L108.3,26.6z"/>
	<polygon class="st0" points="86.7,32.5 100.5,32.5 89.6,83.7 75.8,83.7 	"/>
	<path class="st0" d="M96.5,13.8c3.9,0,7.9,3,7.9,7.9c0,3.9-3.9,6.9-7.9,6.9c-3.9,0-7.9-3-7.9-6.9C88.6,16.7,92.6,13.8,96.5,13.8"/>
	<path class="st1" d="M439.3,76.8c7.9,0,12.8,1,13.8,2c2,0,1-1,2-2h1l4.9,13.8l-2,1c-3-3.9-8.9-7.9-18.7-7.9c-3.9,0-11.8,1-11.8,6.9
		c0,11.8,36.4,4.9,36.4,28.6c0,10.8-8.9,18.7-25.6,18.7c-5.9,0-10.8-1-15.8-3c-1,0-2,1-2,2l-2,1l-5.9-17.7l2-1
		c4.9,5.9,11.8,10.8,23.6,10.8c9.8,0,12.8-3.9,12.8-7.9c0-13.8-35.5-4.9-35.5-28.6C416.6,82.7,427.5,76.8,439.3,76.8"/>
	<path class="st1" d="M234.4,136.9v-2c3.9-1,5.9-2,5.9-7.9V86.7c0-5.9-2-6.9-5.9-7.9v-2h46.3l4.9,12.8l-2,1
		c-3.9-4.9-7.9-5.9-14.8-5.9h-10.8c-3.9,0-4.9,1-4.9,3.9v12.8h15.8c5.9,0,6.9-1,7.9-3.9h2v15.8h-2c-1-3-2-3.9-7.9-3.9h-15.8v15.8
		c0,3.9,1,3.9,4.9,3.9h13.8c5.9,0,10.8,0,15.8-5.9l1,1l-3.9,12.8H234.4z"/>
	<path class="st1" d="M219.6,127.1c0,5.9,2,6.9,4.9,7.9v2H199v-2c3-1,5.9-2,5.9-7.9V69.9c0-3-2-3-5.9-3c-12.8,0-17.7,0-22.7,4.9h-1
		l4.9-13.8h64l4.9,13.8h-2c-3.9-4.9-9.9-4.9-22.7-4.9c-3.9,0-4.9,0-4.9,3V127.1z"/>
	<path class="st1" d="M314.2,107.4l-16.7-21.7c-3-4.9-4.9-5.9-8.9-6.9v-2h27.6v2c-3,0-4.9,3-2,6.9l7.9,11.8l9.8-12.8
		c2-3,2-5.9-2-5.9v-2h22.7v2c-3.9,1-6.9,2-10.8,5.9L328,104.4l16.7,23.6c2,3,3.9,4.9,3.9,4.9s3-1,6.9-10.8l18.7-45.3h11.8l21.7,51.2
		c1,3,3.9,5.9,6.9,6.9v2h-25.6v-2c2,0,5.9-1,3-6.9l-3-7.9h-24.6l-3,7.9c-3,5.9,2,6.9,3,6.9v2H326v-2c2,0,6.9-2,3-6.9l-9.9-12.8
		l-9.8,13.8c-3,3.9,0,5.9,2,5.9v2h-22.7v-2c3.9-1,7.9-3,10.8-7.9L314.2,107.4z M377.2,88.6l-9.9,23.6h18.7L377.2,88.6z"/>
	<path class="st1" d="M5.9,145.8c0-5.9-3-6.9-5.9-7.9v-1h25.6v1c-2,1-4.9,2-4.9,7.9v60.1c0,5.9,3,6.9,4.9,7.9v2H0v-2
		c3-1,5.9-2,5.9-7.9V145.8z"/>
	<path class="st1" d="M87.7,215.7h-2l-40.4-42.4v32.5c0,5.9,3,6.9,4.9,7.9v2H32.5v-2c3-1,4.9-2,4.9-7.9v-40.4c0-5.9-2-6.9-4.9-7.9
		v-2h16.7l30.5,33.5v-23.6c0-5.9-2-6.9-4.9-7.9v-2h18.7v2c-3,1-5.9,2-5.9,7.9V215.7z"/>
	<path class="st1" d="M321.1,195c0,17.7-15.8,21.7-25.6,21.7c-10.8,0-26.6-3.9-26.6-20.7v-30.5c0-5.9-3-7.9-5.9-7.9v-2h24.6v2
		c-3,0-5.9,2-5.9,7.9V195c0,9.9,5.9,13.8,15.8,13.8c8.9,0,15.8-3.9,15.8-13.8v-29.5c0-5.9-3-6.9-5.9-7.9v-2H326v2
		c-3,1-4.9,2-4.9,7.9V195z"/>
	<path class="st1" d="M167.4,167.4c0-3.9,0-3.9-3-3.9c-9.8,0-11.8,0-17.7,6.9l-1-1l3.9-13.8H199l4.9,13.8l-2,1
		c-4.9-6.9-6.9-6.9-16.7-6.9c-3,0-3.9,0-3.9,3.9v38.4c0,5.9,2,6.9,5.9,7.9v2h-24.6v-2c3.9-1,4.9-2,4.9-7.9V167.4z"/>
	<path class="st1" d="M122.1,154.6c6.9,0,11.8,2,12.8,2c2,1,2-1,2-1l2-1l3.9,14.8h-2c-3-3-7.9-6.9-17.7-6.9c-4.9,0-12.8,1-12.8,6.9
		c0,10.8,37.4,4.9,37.4,28.6c0,10.8-8.9,17.7-25.6,17.7c-6.9,0-11.8-1-16.7-2c-1,0-1,1-2,1c0,1-2,1-2,1L95.5,199l2-1
		c4.9,5.9,11.8,10.8,23.6,10.8c9.8,0,12.8-3.9,12.8-7.9c0-13.8-35.5-4.9-35.5-28.6C98.5,161.5,110.3,154.6,122.1,154.6"/>
	<path class="st1" d="M400.9,205.9c0,5.9,3,6.9,5.9,7.9v2h-24.6v-2c3-1,5.9-2,5.9-7.9v-28.6l-21.7,39.4h-2l-21.7-40.4v29.6
		c0,5.9,3,6.9,5.9,7.9v2H330v-2c2-1,4.9-2,4.9-7.9v-40.4c0-5.9-3-6.9-4.9-7.9v-2h18.7l19.7,39.4l21.7-39.4h16.7v2
		c-3,1-5.9,2-5.9,7.9V205.9z"/>
	<path class="st1" d="M525,215.7h-2l-40.4-42.4v32.5c0,5.9,3,6.9,4.9,7.9v2h-18.7v-2c3-1,5.9-2,5.9-7.9v-40.4c0-5.9-2-6.9-5.9-7.9
		v-2h17.7l30.5,33.5v-23.6c0-5.9-3-6.9-5.9-7.9v-2h18.7v2c-2,1-4.9,2-4.9,7.9V215.7z"/>
	<path class="st1" d="M413.7,215.7v-2c3-1,4.9-3,4.9-7.9v-40.4c0-5.9-2-6.9-4.9-7.9v-2H460l3.9,12.8l-1,1c-3.9-4.9-8.9-5.9-14.8-5.9
		h-11.8c-3,0-3.9,1-3.9,3.9v12.8h14.8c5.9,0,7.9-2,7.9-3.9h2v15.8h-2c0-3-2-3.9-7.9-3.9h-14.8v15.8c0,3,1,3.9,3.9,3.9h13.8
		c5.9,0,11.8,0,15.8-5.9l2,1l-4.9,12.8H413.7z"/>
	<path class="st1" d="M552.6,167.4c0-3.9-1-3.9-3-3.9c-10.8,0-11.8,0-17.7,6.9l-1-1l3.9-13.8h49.2l4.9,13.8l-2,1
		c-4.9-6.9-6.9-6.9-16.7-6.9c-3,0-3.9,0-3.9,3.9v38.4c0,5.9,2,6.9,5.9,7.9v2h-24.6v-2c3-1,4.9-2,4.9-7.9V167.4z"/>
	<path class="st1" d="M614.6,154.6c6.9,0,11.8,2,13.8,2c1,1,1-1,1-1c1,0,2-1,2-1l3.9,14.8h-1c-3-3-8.9-6.9-18.7-6.9
		c-4.9,0-11.8,1-11.8,6.9c0,10.8,36.4,4.9,36.4,28.6c0,10.8-8.9,17.7-25.6,17.7c-6.9,0-11.8-1-16.7-2c-1,0-1,1-1,1c-1,1-2,1-2,1
		L588,199l2-1c4.9,5.9,12.8,10.8,23.6,10.8c9.9,0,12.8-3.9,12.8-7.9c0-13.8-35.5-4.9-35.5-28.6C591,161.5,602.8,154.6,614.6,154.6"
		/>
	<path class="st1" d="M236.4,155.6c12.8,0,22.7,4.9,22.7,15.8c0,11.8-10.8,13.8-16.7,14.8c15.8,5.9,16.7,26.6,26.6,26.6v1
		c-2,1-3.9,2-8.9,2c-21.7,0-16.7-26.6-30.5-26.6h-6.9v16.7c0,5.9,2,6.9,4.9,7.9v2h-23.6v-2c3-1,4.9-2,4.9-7.9v-40.4
		c0-5.9-2-6.9-4.9-7.9v-2H236.4z M222.6,182.2h7.9c6.9,0,14.8-3,14.8-9.8c0-3.9-3-9.9-11.8-9.9h-6.9c-3,0-3.9,1-3.9,4.9V182.2z"/>
</g>
</svg>
