<?xml version="1.0" encoding="utf-8"?>
<!-- Generator: Adobe Illustrator 19.0.0, SVG Export Plug-In . SVG Version: 6.00 Build 0)  -->
<svg version="1.1" id="Layer_1" xmlns="http://www.w3.org/2000/svg" xmlns:xlink="http://www.w3.org/1999/xlink" x="0px" y="0px"
	 viewBox="0 0 296.8 88.4" style="enable-background:new 0 0 296.8 88.4;" xml:space="preserve">
<style type="text/css">
	.st0{fill:url(#SVGID_1_);}
	.st1{fill:url(#SVGID_2_);}
	.st2{fill:url(#SVGID_3_);}
	.st3{fill:#939598;}
	.st4{fill:#262262;}
</style>
<linearGradient id="SVGID_1_" gradientUnits="userSpaceOnUse" x1="8.3963" y1="8.4798" x2="32.6874" y2="32.7709">
	<stop  offset="0" style="stop-color:#8DC63F"/>
	<stop  offset="1" style="stop-color:#39B54A"/>
</linearGradient>
<polygon class="st0" points="14.5,0.6 27,13.1 33.1,7 33.1,33.1 6.8,33.1 12,28 0,16 "/>
<linearGradient id="SVGID_2_" gradientUnits="userSpaceOnUse" x1="8.6356" y1="61.8854" x2="33.1146" y2="37.4064">
	<stop  offset="0" style="stop-color:#27AAE1"/>
	<stop  offset="1" style="stop-color:#1C75BC"/>
</linearGradient>
<polygon class="st1" points="0.6,55.9 13.1,43.4 7,37.3 33.1,37.3 33.1,63.6 28,58.4 16,70.4 "/>
<linearGradient id="SVGID_3_" gradientUnits="userSpaceOnUse" x1="61.6773" y1="8.6767" x2="37.4049" y2="32.9492">
	<stop  offset="0" style="stop-color:#F7941E"/>
	<stop  offset="1" style="stop-color:#F15A29"/>
</linearGradient>
<polygon class="st2" points="69.8,14.5 57.3,27 63.4,33.1 37.3,33.1 37.3,6.8 42.5,12 54.5,0 "/>
<g>
	<path class="st3" d="M108.8,85.5v-10h1.3v10H108.8z"/>
	<path class="st3" d="M112.3,85.5v-7.3h1.1v1c0.5-0.8,1.3-1.2,2.3-1.2c0.4,0,0.8,0.1,1.2,0.2c0.4,0.2,0.6,0.4,0.8,0.6
		s0.3,0.6,0.4,0.9c0,0.2,0.1,0.6,0.1,1.2v4.5H117v-4.4c0-0.5,0-0.9-0.1-1.1c-0.1-0.2-0.3-0.4-0.5-0.6c-0.2-0.1-0.5-0.2-0.9-0.2
		c-0.5,0-1,0.2-1.4,0.5s-0.6,1-0.6,1.9v4H112.3z"/>
	<path class="st3" d="M122.1,85.5l-2.8-7.3h1.3l1.6,4.3c0.2,0.5,0.3,1,0.5,1.5c0.1-0.4,0.3-0.8,0.5-1.4l1.6-4.4h1.3l-2.7,7.3H122.1z
		"/>
	<path class="st3" d="M132.1,83.1l1.3,0.2c-0.2,0.7-0.6,1.3-1.1,1.7s-1.2,0.6-2.1,0.6c-1.1,0-1.9-0.3-2.5-1
		c-0.6-0.7-0.9-1.6-0.9-2.8c0-1.2,0.3-2.2,0.9-2.8c0.6-0.7,1.4-1,2.4-1c1,0,1.8,0.3,2.4,1s0.9,1.6,0.9,2.8c0,0.1,0,0.2,0,0.3H128
		c0,0.8,0.3,1.4,0.7,1.8s0.9,0.6,1.5,0.6c0.5,0,0.8-0.1,1.2-0.4S131.9,83.7,132.1,83.1z M128,81.2h4.1c-0.1-0.6-0.2-1.1-0.5-1.4
		c-0.4-0.5-0.9-0.7-1.5-0.7c-0.6,0-1,0.2-1.4,0.6S128.1,80.5,128,81.2z"/>
	<path class="st3" d="M134.4,83.3l1.2-0.2c0.1,0.5,0.3,0.9,0.6,1.1s0.7,0.4,1.3,0.4c0.6,0,1-0.1,1.3-0.3c0.3-0.2,0.4-0.5,0.4-0.8
		c0-0.3-0.1-0.5-0.4-0.7c-0.2-0.1-0.6-0.2-1.3-0.4c-0.9-0.2-1.5-0.4-1.9-0.6c-0.3-0.2-0.6-0.4-0.8-0.7c-0.2-0.3-0.3-0.6-0.3-1
		c0-0.3,0.1-0.6,0.2-0.9c0.1-0.3,0.3-0.5,0.6-0.7c0.2-0.1,0.5-0.3,0.8-0.4c0.3-0.1,0.7-0.1,1.1-0.1c0.6,0,1.1,0.1,1.5,0.2
		s0.7,0.4,1,0.7c0.2,0.3,0.3,0.7,0.4,1.1l-1.2,0.2c-0.1-0.4-0.2-0.7-0.5-0.9s-0.6-0.3-1.1-0.3c-0.6,0-1,0.1-1.2,0.3
		s-0.4,0.4-0.4,0.7c0,0.2,0.1,0.3,0.2,0.4c0.1,0.1,0.3,0.2,0.5,0.3c0.1,0,0.5,0.2,1.1,0.3c0.9,0.2,1.5,0.4,1.8,0.6
		c0.3,0.1,0.6,0.4,0.8,0.6s0.3,0.6,0.3,1.1c0,0.4-0.1,0.8-0.4,1.2c-0.2,0.4-0.6,0.6-1,0.8c-0.5,0.2-1,0.3-1.5,0.3
		c-0.9,0-1.7-0.2-2.2-0.6S134.5,84.1,134.4,83.3z"/>
	<path class="st3" d="M144.6,84.4l0.2,1.1c-0.3,0.1-0.7,0.1-0.9,0.1c-0.4,0-0.8-0.1-1-0.2s-0.4-0.3-0.5-0.6
		c-0.1-0.2-0.2-0.7-0.2-1.5v-4.2h-0.9v-1h0.9v-1.8l1.2-0.7v2.5h1.2v1h-1.2v4.2c0,0.4,0,0.6,0.1,0.7s0.1,0.2,0.2,0.2s0.2,0.1,0.4,0.1
		C144.2,84.4,144.3,84.4,144.6,84.4z"/>
	<path class="st3" d="M145.8,76.9v-1.4h1.2v1.4H145.8z M145.8,85.5v-7.3h1.2v7.3H145.8z"/>
	<path class="st3" d="M148.9,85.5v-7.3h1.1v1c0.5-0.8,1.3-1.2,2.3-1.2c0.4,0,0.8,0.1,1.2,0.2c0.4,0.2,0.6,0.4,0.8,0.6
		c0.2,0.3,0.3,0.6,0.4,0.9c0,0.2,0.1,0.6,0.1,1.2v4.5h-1.2v-4.4c0-0.5,0-0.9-0.1-1.1c-0.1-0.2-0.3-0.4-0.5-0.6
		c-0.2-0.1-0.5-0.2-0.9-0.2c-0.5,0-1,0.2-1.4,0.5s-0.6,1-0.6,1.9v4H148.9z"/>
	<path class="st3" d="M156.4,86.1l1.2,0.2c0.1,0.4,0.2,0.6,0.4,0.8c0.3,0.2,0.7,0.3,1.3,0.3c0.6,0,1-0.1,1.3-0.3
		c0.3-0.2,0.5-0.5,0.6-1c0.1-0.3,0.1-0.8,0.1-1.6c-0.5,0.6-1.2,1-2,1c-1,0-1.8-0.4-2.3-1.1s-0.8-1.6-0.8-2.6c0-0.7,0.1-1.3,0.4-1.9
		c0.3-0.6,0.6-1,1.1-1.4c0.5-0.3,1-0.5,1.7-0.5c0.9,0,1.6,0.3,2.1,1v-0.9h1.1v6.3c0,1.1-0.1,1.9-0.3,2.4c-0.2,0.5-0.6,0.8-1.1,1.1
		s-1.1,0.4-1.8,0.4c-0.9,0-1.6-0.2-2.1-0.6C156.7,87.5,156.4,86.9,156.4,86.1z M157.5,81.7c0,1,0.2,1.6,0.6,2.1
		c0.4,0.4,0.9,0.7,1.4,0.7c0.6,0,1-0.2,1.4-0.7c0.4-0.4,0.6-1.1,0.6-2c0-0.9-0.2-1.6-0.6-2c-0.4-0.5-0.9-0.7-1.4-0.7
		c-0.5,0-1,0.2-1.4,0.7C157.7,80.2,157.5,80.8,157.5,81.7z"/>
	<path class="st3" d="M168.4,76.9v-1.4h1.2v1.4H168.4z M168.4,85.5v-7.3h1.2v7.3H168.4z"/>
	<path class="st3" d="M171.5,85.5v-7.3h1.1v1c0.5-0.8,1.3-1.2,2.3-1.2c0.4,0,0.8,0.1,1.2,0.2c0.4,0.2,0.6,0.4,0.8,0.6
		s0.3,0.6,0.4,0.9c0,0.2,0.1,0.6,0.1,1.2v4.5h-1.2v-4.4c0-0.5,0-0.9-0.1-1.1c-0.1-0.2-0.3-0.4-0.5-0.6c-0.2-0.1-0.5-0.2-0.9-0.2
		c-0.5,0-1,0.2-1.4,0.5c-0.4,0.3-0.6,1-0.6,1.9v4H171.5z"/>
	<path class="st3" d="M183.3,85.5v-10h3.5c0.8,0,1.4,0,1.8,0.1c0.6,0.1,1.1,0.4,1.5,0.7c0.5,0.4,0.9,1,1.2,1.7
		c0.3,0.7,0.4,1.5,0.4,2.4c0,0.8-0.1,1.4-0.3,2s-0.4,1.1-0.7,1.5c-0.3,0.4-0.6,0.7-0.9,0.9c-0.3,0.2-0.7,0.4-1.2,0.5
		c-0.5,0.1-1,0.2-1.6,0.2H183.3z M184.6,84.3h2.1c0.7,0,1.2-0.1,1.6-0.2c0.4-0.1,0.7-0.3,0.9-0.5c0.3-0.3,0.6-0.7,0.7-1.3
		c0.2-0.5,0.3-1.2,0.3-1.9c0-1-0.2-1.9-0.5-2.4c-0.3-0.6-0.8-0.9-1.3-1.1c-0.4-0.1-0.9-0.2-1.7-0.2h-2.1V84.3z"/>
	<path class="st3" d="M198,84.6c-0.5,0.4-0.9,0.7-1.3,0.8c-0.4,0.2-0.9,0.2-1.4,0.2c-0.8,0-1.4-0.2-1.8-0.6
		c-0.4-0.4-0.6-0.9-0.6-1.5c0-0.4,0.1-0.7,0.2-1c0.2-0.3,0.4-0.5,0.6-0.7c0.3-0.2,0.6-0.3,0.9-0.4c0.2-0.1,0.6-0.1,1.1-0.2
		c1-0.1,1.7-0.3,2.2-0.4c0-0.2,0-0.3,0-0.3c0-0.5-0.1-0.9-0.3-1.1c-0.3-0.3-0.8-0.4-1.4-0.4c-0.6,0-1,0.1-1.3,0.3
		c-0.3,0.2-0.5,0.6-0.6,1.1l-1.2-0.2c0.1-0.5,0.3-0.9,0.5-1.2c0.3-0.3,0.6-0.6,1.1-0.7c0.5-0.2,1-0.3,1.6-0.3c0.6,0,1.1,0.1,1.5,0.2
		s0.7,0.3,0.9,0.6c0.2,0.2,0.3,0.5,0.4,0.8c0,0.2,0.1,0.6,0.1,1.1v1.6c0,1.1,0,1.9,0.1,2.2c0.1,0.3,0.2,0.6,0.3,0.9h-1.3
		C198.1,85.2,198,84.9,198,84.6z M197.9,81.8c-0.4,0.2-1.1,0.3-2,0.5c-0.5,0.1-0.9,0.2-1.1,0.2s-0.4,0.2-0.5,0.4
		c-0.1,0.2-0.2,0.4-0.2,0.6c0,0.3,0.1,0.6,0.4,0.8c0.2,0.2,0.6,0.3,1.1,0.3c0.5,0,0.9-0.1,1.3-0.3c0.4-0.2,0.6-0.5,0.8-0.9
		c0.1-0.3,0.2-0.7,0.2-1.2V81.8z"/>
	<path class="st3" d="M201,85.5v-10h1.2v10H201z"/>
	<path class="st3" d="M204.1,85.5v-10h1.2v10H204.1z"/>
	<path class="st3" d="M212,84.6c-0.5,0.4-0.9,0.7-1.3,0.8c-0.4,0.2-0.9,0.2-1.4,0.2c-0.8,0-1.4-0.2-1.8-0.6
		c-0.4-0.4-0.6-0.9-0.6-1.5c0-0.4,0.1-0.7,0.2-1c0.2-0.3,0.4-0.5,0.6-0.7c0.3-0.2,0.6-0.3,0.9-0.4c0.2-0.1,0.6-0.1,1.1-0.2
		c1-0.1,1.7-0.3,2.2-0.4c0-0.2,0-0.3,0-0.3c0-0.5-0.1-0.9-0.3-1.1c-0.3-0.3-0.8-0.4-1.4-0.4c-0.6,0-1,0.1-1.3,0.3
		c-0.3,0.2-0.5,0.6-0.6,1.1l-1.2-0.2c0.1-0.5,0.3-0.9,0.5-1.2c0.3-0.3,0.6-0.6,1.1-0.7c0.5-0.2,1-0.3,1.6-0.3c0.6,0,1.1,0.1,1.5,0.2
		s0.7,0.3,0.9,0.6c0.2,0.2,0.3,0.5,0.4,0.8c0,0.2,0.1,0.6,0.1,1.1v1.6c0,1.1,0,1.9,0.1,2.2c0.1,0.3,0.2,0.6,0.3,0.9h-1.3
		C212.1,85.2,212,84.9,212,84.6z M211.9,81.8c-0.4,0.2-1.1,0.3-2,0.5c-0.5,0.1-0.9,0.2-1.1,0.2s-0.4,0.2-0.5,0.4
		c-0.1,0.2-0.2,0.4-0.2,0.6c0,0.3,0.1,0.6,0.4,0.8c0.2,0.2,0.6,0.3,1.1,0.3c0.5,0,0.9-0.1,1.3-0.3c0.4-0.2,0.6-0.5,0.8-0.9
		c0.1-0.3,0.2-0.7,0.2-1.2V81.8z"/>
	<path class="st3" d="M214.5,83.3l1.2-0.2c0.1,0.5,0.3,0.9,0.6,1.1c0.3,0.3,0.7,0.4,1.3,0.4c0.6,0,1-0.1,1.3-0.3
		c0.3-0.2,0.4-0.5,0.4-0.8c0-0.3-0.1-0.5-0.4-0.7c-0.2-0.1-0.6-0.2-1.3-0.4c-0.9-0.2-1.5-0.4-1.9-0.6c-0.3-0.2-0.6-0.4-0.8-0.7
		c-0.2-0.3-0.3-0.6-0.3-1c0-0.3,0.1-0.6,0.2-0.9c0.1-0.3,0.4-0.5,0.6-0.7c0.2-0.1,0.5-0.3,0.8-0.4c0.3-0.1,0.7-0.1,1.1-0.1
		c0.6,0,1.1,0.1,1.5,0.2c0.4,0.2,0.7,0.4,1,0.7c0.2,0.3,0.3,0.7,0.4,1.1l-1.2,0.2c-0.1-0.4-0.2-0.7-0.5-0.9
		c-0.3-0.2-0.6-0.3-1.1-0.3c-0.6,0-1,0.1-1.2,0.3s-0.4,0.4-0.4,0.7c0,0.2,0,0.3,0.2,0.4c0.1,0.1,0.3,0.2,0.5,0.3
		c0.1,0,0.5,0.2,1.1,0.3c0.9,0.2,1.5,0.4,1.8,0.6c0.3,0.1,0.6,0.4,0.8,0.6s0.3,0.6,0.3,1.1c0,0.4-0.1,0.8-0.4,1.2
		c-0.2,0.4-0.6,0.6-1,0.8c-0.5,0.2-1,0.3-1.5,0.3c-0.9,0-1.7-0.2-2.2-0.6C215,84.7,214.7,84.1,214.5,83.3z"/>
	<path class="st3" d="M226.1,85.5v-10h4.4c0.9,0,1.6,0.1,2,0.3c0.5,0.2,0.8,0.5,1.1,1s0.4,1,0.4,1.5c0,0.7-0.2,1.3-0.7,1.8
		s-1.2,0.8-2.1,0.9c0.4,0.2,0.6,0.3,0.8,0.5c0.4,0.4,0.8,0.8,1.1,1.3l1.7,2.7h-1.7l-1.3-2.1c-0.4-0.6-0.7-1.1-1-1.4
		s-0.5-0.5-0.7-0.7c-0.2-0.1-0.4-0.2-0.6-0.3c-0.2,0-0.4,0-0.7,0h-1.5v4.5H226.1z M227.4,79.9h2.9c0.6,0,1.1-0.1,1.4-0.2
		c0.3-0.1,0.6-0.3,0.8-0.6c0.2-0.3,0.3-0.6,0.3-0.9c0-0.5-0.2-0.9-0.5-1.2c-0.3-0.3-0.9-0.5-1.6-0.5h-3.2V79.9z"/>
	<path class="st3" d="M241,83.1l1.3,0.2c-0.2,0.7-0.6,1.3-1.1,1.7s-1.2,0.6-2.1,0.6c-1.1,0-1.9-0.3-2.5-1c-0.6-0.7-0.9-1.6-0.9-2.8
		c0-1.2,0.3-2.2,0.9-2.8s1.4-1,2.4-1c1,0,1.8,0.3,2.4,1s0.9,1.6,0.9,2.8c0,0.1,0,0.2,0,0.3h-5.4c0,0.8,0.3,1.4,0.7,1.8
		s0.9,0.6,1.5,0.6c0.5,0,0.8-0.1,1.2-0.4S240.8,83.7,241,83.1z M237,81.2h4.1c-0.1-0.6-0.2-1.1-0.5-1.4c-0.4-0.5-0.9-0.7-1.5-0.7
		c-0.6,0-1,0.2-1.4,0.6C237.2,80,237,80.5,237,81.2z"/>
	<path class="st3" d="M248.6,84.6c-0.5,0.4-0.9,0.7-1.3,0.8c-0.4,0.2-0.9,0.2-1.4,0.2c-0.8,0-1.4-0.2-1.8-0.6
		c-0.4-0.4-0.6-0.9-0.6-1.5c0-0.4,0.1-0.7,0.2-1c0.2-0.3,0.4-0.5,0.6-0.7c0.3-0.2,0.6-0.3,0.9-0.4c0.2-0.1,0.6-0.1,1.1-0.2
		c1-0.1,1.7-0.3,2.2-0.4c0-0.2,0-0.3,0-0.3c0-0.5-0.1-0.9-0.3-1.1c-0.3-0.3-0.8-0.4-1.4-0.4c-0.6,0-1,0.1-1.3,0.3
		c-0.3,0.2-0.5,0.6-0.6,1.1l-1.2-0.2c0.1-0.5,0.3-0.9,0.5-1.2c0.3-0.3,0.6-0.6,1.1-0.7c0.5-0.2,1-0.3,1.6-0.3c0.6,0,1.1,0.1,1.5,0.2
		s0.7,0.3,0.9,0.6c0.2,0.2,0.3,0.5,0.4,0.8c0,0.2,0.1,0.6,0.1,1.1v1.6c0,1.1,0,1.9,0.1,2.2c0.1,0.3,0.2,0.6,0.3,0.9h-1.3
		C248.7,85.2,248.6,84.9,248.6,84.6z M248.5,81.8c-0.4,0.2-1.1,0.3-2,0.5c-0.5,0.1-0.9,0.2-1.1,0.2s-0.4,0.2-0.5,0.4
		c-0.1,0.2-0.2,0.4-0.2,0.6c0,0.3,0.1,0.6,0.4,0.8c0.2,0.2,0.6,0.3,1.1,0.3c0.5,0,0.9-0.1,1.3-0.3c0.4-0.2,0.6-0.5,0.8-0.9
		c0.1-0.3,0.2-0.7,0.2-1.2V81.8z"/>
	<path class="st3" d="M251.6,85.5v-10h1.2v10H251.6z"/>
	<path class="st3" d="M258.8,85.5v-10h7.2v1.2h-5.9v3.1h5.5v1.2h-5.5v3.4h6.2v1.2H258.8z"/>
	<path class="st3" d="M267.5,83.3l1.2-0.2c0.1,0.5,0.3,0.9,0.6,1.1c0.3,0.3,0.7,0.4,1.3,0.4c0.6,0,1-0.1,1.3-0.3
		c0.3-0.2,0.4-0.5,0.4-0.8c0-0.3-0.1-0.5-0.4-0.7c-0.2-0.1-0.6-0.2-1.3-0.4c-0.9-0.2-1.5-0.4-1.9-0.6c-0.3-0.2-0.6-0.4-0.8-0.7
		c-0.2-0.3-0.3-0.6-0.3-1c0-0.3,0.1-0.6,0.2-0.9c0.1-0.3,0.4-0.5,0.6-0.7c0.2-0.1,0.5-0.3,0.8-0.4c0.3-0.1,0.7-0.1,1.1-0.1
		c0.6,0,1.1,0.1,1.5,0.2c0.4,0.2,0.7,0.4,1,0.7c0.2,0.3,0.3,0.7,0.4,1.1l-1.2,0.2c-0.1-0.4-0.2-0.7-0.5-0.9
		c-0.3-0.2-0.6-0.3-1.1-0.3c-0.6,0-1,0.1-1.2,0.3s-0.4,0.4-0.4,0.7c0,0.2,0,0.3,0.2,0.4c0.1,0.1,0.3,0.2,0.5,0.3
		c0.1,0,0.5,0.2,1.1,0.3c0.9,0.2,1.5,0.4,1.8,0.6c0.3,0.1,0.6,0.4,0.8,0.6s0.3,0.6,0.3,1.1c0,0.4-0.1,0.8-0.4,1.2
		c-0.2,0.4-0.6,0.6-1,0.8c-0.5,0.2-1,0.3-1.5,0.3c-0.9,0-1.7-0.2-2.2-0.6C267.9,84.7,267.6,84.1,267.5,83.3z"/>
	<path class="st3" d="M277.6,84.4l0.2,1.1c-0.3,0.1-0.7,0.1-0.9,0.1c-0.4,0-0.8-0.1-1-0.2s-0.4-0.3-0.5-0.6
		c-0.1-0.2-0.2-0.7-0.2-1.5v-4.2h-0.9v-1h0.9v-1.8l1.2-0.7v2.5h1.2v1h-1.2v4.2c0,0.4,0,0.6,0.1,0.7c0,0.1,0.1,0.2,0.2,0.2
		c0.1,0.1,0.2,0.1,0.4,0.1C277.2,84.4,277.4,84.4,277.6,84.4z"/>
	<path class="st3" d="M283.6,84.6c-0.5,0.4-0.9,0.7-1.3,0.8c-0.4,0.2-0.9,0.2-1.4,0.2c-0.8,0-1.4-0.2-1.8-0.6
		c-0.4-0.4-0.6-0.9-0.6-1.5c0-0.4,0.1-0.7,0.2-1c0.2-0.3,0.4-0.5,0.6-0.7c0.3-0.2,0.6-0.3,0.9-0.4c0.2-0.1,0.6-0.1,1.1-0.2
		c1-0.1,1.7-0.3,2.2-0.4c0-0.2,0-0.3,0-0.3c0-0.5-0.1-0.9-0.3-1.1c-0.3-0.3-0.8-0.4-1.4-0.4c-0.6,0-1,0.1-1.3,0.3
		c-0.3,0.2-0.5,0.6-0.6,1.1l-1.2-0.2c0.1-0.5,0.3-0.9,0.5-1.2c0.3-0.3,0.6-0.6,1.1-0.7c0.5-0.2,1-0.3,1.6-0.3c0.6,0,1.1,0.1,1.5,0.2
		s0.7,0.3,0.9,0.6c0.2,0.2,0.3,0.5,0.4,0.8c0,0.2,0.1,0.6,0.1,1.1v1.6c0,1.1,0,1.9,0.1,2.2c0.1,0.3,0.2,0.6,0.3,0.9h-1.3
		C283.7,85.2,283.6,84.9,283.6,84.6z M283.5,81.8c-0.4,0.2-1.1,0.3-2,0.5c-0.5,0.1-0.9,0.2-1.1,0.2s-0.4,0.2-0.5,0.4
		c-0.1,0.2-0.2,0.4-0.2,0.6c0,0.3,0.1,0.6,0.4,0.8c0.2,0.2,0.6,0.3,1.1,0.3c0.5,0,0.9-0.1,1.3-0.3c0.4-0.2,0.6-0.5,0.8-0.9
		c0.1-0.3,0.2-0.7,0.2-1.2V81.8z"/>
	<path class="st3" d="M289.3,84.4l0.2,1.1c-0.3,0.1-0.7,0.1-0.9,0.1c-0.4,0-0.8-0.1-1-0.2s-0.4-0.3-0.5-0.6
		c-0.1-0.2-0.2-0.7-0.2-1.5v-4.2h-0.9v-1h0.9v-1.8l1.2-0.7v2.5h1.2v1h-1.2v4.2c0,0.4,0,0.6,0.1,0.7c0,0.1,0.1,0.2,0.2,0.2
		c0.1,0.1,0.2,0.1,0.4,0.1C288.9,84.4,289.1,84.4,289.3,84.4z"/>
	<path class="st3" d="M295.5,83.1l1.3,0.2c-0.2,0.7-0.6,1.3-1.1,1.7s-1.2,0.6-2.1,0.6c-1.1,0-1.9-0.3-2.5-1
		c-0.6-0.7-0.9-1.6-0.9-2.8c0-1.2,0.3-2.2,0.9-2.8s1.4-1,2.4-1c1,0,1.8,0.3,2.4,1s0.9,1.6,0.9,2.8c0,0.1,0,0.2,0,0.3h-5.4
		c0,0.8,0.3,1.4,0.7,1.8s0.9,0.6,1.5,0.6c0.5,0,0.8-0.1,1.2-0.4S295.3,83.7,295.5,83.1z M291.4,81.2h4.1c-0.1-0.6-0.2-1.1-0.5-1.4
		c-0.4-0.5-0.9-0.7-1.5-0.7c-0.6,0-1,0.2-1.4,0.6C291.7,80,291.5,80.5,291.4,81.2z"/>
</g>
<g>
	<path class="st4" d="M37.7,38.4c0-0.3,0.2-0.5,0.5-0.5h18.7c0.3,0,0.5,0.2,0.5,0.5v3.2c0,0.3-0.2,0.5-0.5,0.5h-6.5v18.8
		c0,0.3-0.2,0.5-0.5,0.5h-4.7c-0.3,0-0.5-0.2-0.5-0.5V42.1h-6.5c-0.3,0-0.5-0.2-0.5-0.5V38.4z"/>
	<path class="st4" d="M60.3,38.4c0-0.3,0.2-0.5,0.5-0.5h4.7c0.3,0,0.5,0.2,0.5,0.5v22.4c0,0.3-0.2,0.5-0.5,0.5h-4.7
		c-0.3,0-0.5-0.2-0.5-0.5V38.4z"/>
	<path class="st4" d="M71.3,38.4c0-0.3,0.2-0.5,0.5-0.5h4.7c0.3,0,0.5,0.2,0.5,0.5v18.8h7.9c0.3,0,0.5,0.2,0.5,0.5v3.2
		c0,0.3-0.2,0.5-0.5,0.5H71.7c-0.3,0-0.5-0.2-0.5-0.5V38.4z"/>
	<path class="st4" d="M92.6,35.1h3.6v35h-3.6V35.1z"/>
	<path class="st4" d="M106.5,38.4c0-0.3,0.1-0.4,0.4-0.4h2.6c0.3,0,0.4,0.1,0.4,0.4v22.6c0,0.3-0.1,0.4-0.4,0.4h-2.6
		c-0.3,0-0.4-0.1-0.4-0.4V38.4z"/>
	<path class="st4" d="M116.3,44.3c0-0.1,0.1-0.3,0.2-0.4c0.1-0.1,0.2-0.2,0.4-0.2h1.7c0.4,0,0.6,0.1,0.6,0.2c0,0.1,0.1,0.4,0.1,0.7
		h0.3c0.3,0,0.6-0.1,0.9-0.2c0.3-0.2,0.6-0.3,0.9-0.4c0.5-0.2,1.1-0.3,1.6-0.4c0.5-0.1,1.1-0.1,1.6-0.1c1.9,0,3.4,0.5,4.5,1.6
		c1.1,1,1.7,2.5,1.7,4.4v11.3c0,0.1-0.1,0.3-0.2,0.4c-0.1,0.1-0.2,0.2-0.4,0.2h-2.3c-0.1,0-0.3-0.1-0.4-0.2
		c-0.1-0.1-0.2-0.2-0.2-0.4V50c0-2.7-1.3-4-4-4c-0.4,0-0.8,0-1.3,0.1c-0.4,0.1-0.8,0.2-1.2,0.3c-0.5,0.2-0.8,0.4-1,0.6
		c-0.2,0.2-0.3,0.6-0.3,1.1v12.6c0,0.1-0.1,0.3-0.2,0.4c-0.1,0.1-0.2,0.2-0.4,0.2h-2.2c-0.1,0-0.3-0.1-0.4-0.2
		c-0.1-0.1-0.2-0.2-0.2-0.4V44.3z"/>
	<path class="st4" d="M134.1,44.3c0-0.2,0.1-0.4,0.3-0.4c0.2,0,0.4-0.1,0.5-0.1h2.2c0.3,0,0.4,0.1,0.5,0.4l4.7,14.3l4.7-14.3
		c0-0.1,0.1-0.2,0.2-0.3c0.1-0.1,0.2-0.1,0.3-0.1h1.8c0.2,0,0.3,0,0.4,0.1c0.1,0.1,0.2,0.2,0.2,0.4c0,0,0,0.1-0.1,0.2
		c0,0.1-0.1,0.2-0.1,0.2L144.4,60c-0.1,0.3-0.2,0.5-0.2,0.7c-0.1,0.2-0.1,0.4-0.2,0.5c-0.1,0.1-0.2,0.3-0.4,0.3
		c-0.2,0.1-0.4,0.1-0.7,0.1h-1.7c-0.3,0-0.6,0-0.7-0.1c-0.2-0.1-0.3-0.2-0.4-0.3s-0.2-0.3-0.2-0.5c-0.1-0.2-0.1-0.4-0.2-0.7
		l-5.4-15.3c0-0.1,0-0.1-0.1-0.2C134.1,44.4,134.1,44.4,134.1,44.3z"/>
	<path class="st4" d="M151.8,52.8c0-1.2,0.2-2.4,0.5-3.5c0.3-1.1,0.8-2.1,1.5-2.9s1.5-1.5,2.5-2c1-0.5,2.2-0.8,3.5-0.8
		c1.2,0,2.2,0.2,3.2,0.6s1.7,1,2.4,1.7c0.7,0.7,1.1,1.6,1.5,2.5c0.3,1,0.5,2,0.5,3.2v0.9c0,0.1-0.1,0.3-0.2,0.4
		c-0.1,0.1-0.2,0.2-0.4,0.2H155v0.2c0,0.9,0.1,1.7,0.4,2.4c0.3,0.7,0.6,1.4,1.1,1.9s1.1,1,1.8,1.3c0.7,0.3,1.5,0.5,2.4,0.5
		c0.7,0,1.4-0.1,2.2-0.4c0.8-0.3,1.4-0.6,2-0.9c0.1,0,0.2-0.1,0.3-0.2c0.1-0.1,0.2-0.1,0.4-0.1c0.2,0,0.3,0.1,0.4,0.2
		c0.1,0.2,0.1,0.3,0.1,0.6c0,0.2,0,0.4,0,0.6c0,0.2,0,0.4,0,0.5c0,0.3-0.1,0.5-0.2,0.6c-0.1,0.1-0.3,0.2-0.6,0.4
		c-0.7,0.3-1.6,0.6-2.6,0.8s-1.8,0.3-2.7,0.3c-1.3,0-2.5-0.2-3.6-0.6s-1.9-1-2.7-1.8c-0.7-0.8-1.3-1.7-1.6-2.8
		S151.8,54.1,151.8,52.8z M163.9,50.5v-0.3c0-1.3-0.4-2.3-1.3-3.1c-0.8-0.7-1.9-1.1-3.2-1.1c-1.3,0-2.4,0.4-3.2,1.3
		c-0.8,0.9-1.3,1.9-1.3,3.2H163.9z"/>
	<path class="st4" d="M170.4,58.4c0-0.1,0-0.3,0.1-0.4c0.1-0.1,0.2-0.2,0.3-0.2c0.1,0,0.2,0,0.3,0.1s0.1,0.1,0.2,0.1
		c0.6,0.4,1.2,0.6,1.8,0.8c0.6,0.2,1.3,0.3,2,0.3c0.3,0,0.7,0,1-0.1c0.3-0.1,0.7-0.2,0.9-0.4c0.3-0.2,0.5-0.4,0.7-0.7
		c0.2-0.3,0.2-0.6,0.2-1.1c0-0.4-0.1-0.7-0.2-1s-0.4-0.5-0.6-0.8s-0.5-0.4-0.8-0.6c-0.3-0.2-0.6-0.3-0.9-0.5c-0.6-0.3-1.2-0.7-1.8-1
		c-0.6-0.3-1.1-0.7-1.5-1.1s-0.8-0.9-1-1.4c-0.3-0.5-0.4-1.2-0.4-2c0-0.9,0.2-1.6,0.5-2.2c0.3-0.6,0.7-1.2,1.2-1.6s1.1-0.7,1.8-0.9
		c0.7-0.2,1.4-0.3,2.2-0.3c1.3,0,2.5,0.3,3.6,0.8c0.3,0.1,0.5,0.2,0.6,0.3s0.2,0.3,0.2,0.6v1.6c0,0.1,0,0.2-0.1,0.3
		c-0.1,0.1-0.2,0.2-0.3,0.2c-0.1,0-0.2,0-0.3-0.1c-0.1-0.1-0.2-0.1-0.3-0.2c-0.6-0.3-1.2-0.6-1.6-0.8s-1.1-0.3-1.9-0.3
		c-0.7,0-1.3,0.2-1.8,0.5c-0.5,0.3-0.7,0.8-0.7,1.6c0,0.5,0.2,1,0.5,1.4c0.4,0.4,0.8,0.7,1.3,1s1.1,0.6,1.8,1
		c0.6,0.3,1.2,0.7,1.8,1.2c0.5,0.4,1,1,1.3,1.6c0.4,0.6,0.5,1.4,0.5,2.4c0,0.9-0.2,1.6-0.5,2.3c-0.3,0.6-0.8,1.2-1.3,1.6
		c-0.5,0.4-1.2,0.7-1.9,0.9s-1.5,0.3-2.3,0.3c-1.4,0-2.8-0.3-4.1-0.8c-0.3-0.1-0.5-0.2-0.6-0.3c-0.2-0.1-0.2-0.3-0.2-0.6V58.4z"/>
	<path class="st4" d="M184,44.3c0-0.1,0.1-0.3,0.2-0.4c0.1-0.1,0.2-0.2,0.4-0.2h1.9v-4.1c0-0.1,0.1-0.3,0.2-0.4
		c0.1-0.1,0.2-0.2,0.4-0.2h2.2c0.1,0,0.3,0.1,0.4,0.2c0.1,0.1,0.2,0.2,0.2,0.4v4.1h5c0.1,0,0.3,0.1,0.4,0.2c0.1,0.1,0.2,0.2,0.2,0.4
		v1.4c0,0.1-0.1,0.3-0.2,0.4c-0.1,0.1-0.2,0.2-0.4,0.2h-5v10.2c0,0.9,0.2,1.6,0.6,2c0.4,0.5,1,0.7,2,0.7c0.7,0,1.2-0.1,1.6-0.4
		c0.4-0.2,0.8-0.4,1-0.4c0.2,0,0.3,0.1,0.4,0.2c0.1,0.1,0.1,0.2,0.1,0.4v1.3c0,0.2,0,0.3-0.1,0.4c0,0.1-0.2,0.2-0.3,0.2
		c-0.2,0.1-0.5,0.2-0.8,0.3c-0.3,0.1-0.6,0.2-1,0.2c-0.3,0.1-0.7,0.1-1,0.1c-0.3,0-0.6,0.1-0.9,0.1c-1.4,0-2.6-0.4-3.5-1.1
		s-1.3-1.9-1.3-3.4V46.2c-0.7,0-1.1,0-1.5,0s-0.6,0-0.7-0.1c-0.1-0.1-0.2-0.3-0.2-0.5C184,45.4,184,44.9,184,44.3z"/>
	<path class="st4" d="M199.3,44.3c0-0.1,0.1-0.3,0.2-0.4c0.1-0.1,0.2-0.2,0.4-0.2h1.8c0.3,0,0.5,0.1,0.5,0.3c0,0.2,0.1,0.4,0.1,0.6
		h0.1c0.3,0,0.6-0.1,0.9-0.2c0.3-0.1,0.6-0.2,0.9-0.3c0.5-0.2,1-0.3,1.5-0.5c0.5-0.1,1.1-0.2,1.6-0.2c0.9,0,1.7,0.1,2.5,0.4
		c0.8,0.3,1.5,0.7,2.1,1.3h0.4c0.8-0.5,1.7-1,2.7-1.3c1-0.3,2-0.5,3-0.5c1.8,0,3.3,0.5,4.5,1.5s1.8,2.4,1.8,4.3v11.4
		c0,0.1-0.1,0.3-0.2,0.4c-0.1,0.1-0.2,0.2-0.4,0.2h-2.3c-0.1,0-0.3-0.1-0.4-0.2c-0.1-0.1-0.2-0.2-0.2-0.4V49.6
		c0-2.4-1.2-3.7-3.7-3.7c-0.4,0-0.8,0-1.2,0.1c-0.4,0.1-0.8,0.1-1.1,0.3c-0.5,0.2-0.9,0.4-1.1,0.7c-0.2,0.3-0.3,0.7-0.3,1.3v12.4
		c0,0.1-0.1,0.3-0.2,0.4c-0.1,0.1-0.2,0.2-0.4,0.2h-2.3c-0.1,0-0.3-0.1-0.4-0.2c-0.1-0.1-0.2-0.2-0.2-0.4V49.7c0-1.3-0.3-2.2-1-2.8
		c-0.7-0.6-1.6-0.9-2.9-0.9c-0.8,0-1.6,0.1-2.3,0.4c-0.5,0.2-0.9,0.4-1.1,0.7s-0.3,0.7-0.3,1.2v12.5c0,0.1-0.1,0.3-0.2,0.4
		c-0.1,0.1-0.2,0.2-0.4,0.2h-2.2c-0.1,0-0.3-0.1-0.4-0.2c-0.1-0.1-0.2-0.2-0.2-0.4V44.3z"/>
	<path class="st4" d="M228.7,52.8c0-1.2,0.2-2.4,0.5-3.5c0.3-1.1,0.8-2.1,1.5-2.9s1.5-1.5,2.5-2c1-0.5,2.2-0.8,3.5-0.8
		c1.2,0,2.2,0.2,3.2,0.6s1.7,1,2.4,1.7c0.7,0.7,1.1,1.6,1.5,2.5c0.3,1,0.5,2,0.5,3.2v0.9c0,0.1-0.1,0.3-0.2,0.4
		c-0.1,0.1-0.2,0.2-0.4,0.2h-11.7v0.2c0,0.9,0.1,1.7,0.4,2.4c0.3,0.7,0.6,1.4,1.1,1.9s1.1,1,1.8,1.3c0.7,0.3,1.5,0.5,2.4,0.5
		c0.7,0,1.4-0.1,2.2-0.4c0.8-0.3,1.4-0.6,2-0.9c0.1,0,0.2-0.1,0.3-0.2c0.1-0.1,0.2-0.1,0.4-0.1c0.2,0,0.3,0.1,0.4,0.2
		c0.1,0.2,0.1,0.3,0.1,0.6c0,0.2,0,0.4,0,0.6c0,0.2,0,0.4,0,0.5c0,0.3-0.1,0.5-0.2,0.6c-0.1,0.1-0.3,0.2-0.6,0.4
		c-0.7,0.3-1.6,0.6-2.6,0.8s-1.8,0.3-2.7,0.3c-1.3,0-2.5-0.2-3.6-0.6s-1.9-1-2.7-1.8c-0.7-0.8-1.3-1.7-1.6-2.8
		S228.7,54.1,228.7,52.8z M240.9,50.5v-0.3c0-1.3-0.4-2.3-1.3-3.1c-0.8-0.7-1.9-1.1-3.2-1.1c-1.3,0-2.4,0.4-3.2,1.3
		c-0.8,0.9-1.3,1.9-1.3,3.2H240.9z"/>
	<path class="st4" d="M248.8,44.3c0-0.1,0.1-0.3,0.2-0.4c0.1-0.1,0.2-0.2,0.4-0.2h1.7c0.4,0,0.6,0.1,0.6,0.2c0,0.1,0.1,0.4,0.1,0.7
		h0.3c0.3,0,0.6-0.1,0.9-0.2c0.3-0.2,0.6-0.3,0.9-0.4c0.5-0.2,1.1-0.3,1.6-0.4c0.5-0.1,1.1-0.1,1.6-0.1c1.9,0,3.4,0.5,4.5,1.6
		s1.7,2.5,1.7,4.4v11.3c0,0.1-0.1,0.3-0.2,0.4c-0.1,0.1-0.2,0.2-0.4,0.2h-2.3c-0.1,0-0.3-0.1-0.4-0.2c-0.1-0.1-0.2-0.2-0.2-0.4V50
		c0-2.7-1.3-4-4-4c-0.4,0-0.8,0-1.3,0.1s-0.8,0.2-1.2,0.3c-0.5,0.2-0.8,0.4-1,0.6c-0.2,0.2-0.3,0.6-0.3,1.1v12.6
		c0,0.1-0.1,0.3-0.2,0.4c-0.1,0.1-0.2,0.2-0.4,0.2h-2.2c-0.1,0-0.3-0.1-0.4-0.2c-0.1-0.1-0.2-0.2-0.2-0.4V44.3z"/>
	<path class="st4" d="M267,44.3c0-0.1,0.1-0.3,0.2-0.4c0.1-0.1,0.2-0.2,0.4-0.2h1.9v-4.1c0-0.1,0.1-0.3,0.2-0.4
		c0.1-0.1,0.2-0.2,0.4-0.2h2.2c0.1,0,0.3,0.1,0.4,0.2c0.1,0.1,0.2,0.2,0.2,0.4v4.1h5c0.1,0,0.3,0.1,0.4,0.2c0.1,0.1,0.2,0.2,0.2,0.4
		v1.4c0,0.1-0.1,0.3-0.2,0.4c-0.1,0.1-0.2,0.2-0.4,0.2h-5v10.2c0,0.9,0.2,1.6,0.6,2c0.4,0.5,1,0.7,2,0.7c0.7,0,1.2-0.1,1.6-0.4
		c0.4-0.2,0.8-0.4,1-0.4c0.2,0,0.3,0.1,0.4,0.2c0.1,0.1,0.1,0.2,0.1,0.4v1.3c0,0.2,0,0.3-0.1,0.4c0,0.1-0.2,0.2-0.3,0.2
		c-0.2,0.1-0.5,0.2-0.8,0.3c-0.3,0.1-0.6,0.2-1,0.2c-0.3,0.1-0.7,0.1-1,0.1c-0.3,0-0.6,0.1-0.9,0.1c-1.4,0-2.6-0.4-3.5-1.1
		s-1.3-1.9-1.3-3.4V46.2c-0.7,0-1.1,0-1.5,0s-0.6,0-0.7-0.1c-0.1-0.1-0.2-0.3-0.2-0.5C267,45.4,267,44.9,267,44.3z"/>
	<path class="st4" d="M280.8,58.4c0-0.1,0-0.3,0.1-0.4c0.1-0.1,0.2-0.2,0.3-0.2c0.1,0,0.2,0,0.3,0.1s0.1,0.1,0.2,0.1
		c0.6,0.4,1.2,0.6,1.8,0.8c0.6,0.2,1.3,0.3,2,0.3c0.3,0,0.7,0,1-0.1c0.3-0.1,0.7-0.2,0.9-0.4c0.3-0.2,0.5-0.4,0.7-0.7
		c0.2-0.3,0.2-0.6,0.2-1.1c0-0.4-0.1-0.7-0.2-1s-0.4-0.5-0.6-0.8s-0.5-0.4-0.8-0.6c-0.3-0.2-0.6-0.3-0.9-0.5c-0.6-0.3-1.2-0.7-1.8-1
		c-0.6-0.3-1.1-0.7-1.5-1.1s-0.8-0.9-1-1.4c-0.3-0.5-0.4-1.2-0.4-2c0-0.9,0.2-1.6,0.5-2.2c0.3-0.6,0.7-1.2,1.2-1.6s1.1-0.7,1.8-0.9
		c0.7-0.2,1.4-0.3,2.2-0.3c1.3,0,2.5,0.3,3.6,0.8c0.3,0.1,0.5,0.2,0.6,0.3s0.2,0.3,0.2,0.6v1.6c0,0.1,0,0.2-0.1,0.3
		c-0.1,0.1-0.2,0.2-0.3,0.2c-0.1,0-0.2,0-0.3-0.1c-0.1-0.1-0.2-0.1-0.3-0.2c-0.6-0.3-1.2-0.6-1.6-0.8s-1.1-0.3-1.9-0.3
		c-0.7,0-1.3,0.2-1.8,0.5c-0.5,0.3-0.7,0.8-0.7,1.6c0,0.5,0.2,1,0.5,1.4c0.4,0.4,0.8,0.7,1.3,1s1.1,0.6,1.8,1
		c0.6,0.3,1.2,0.7,1.8,1.2c0.5,0.4,1,1,1.3,1.6c0.4,0.6,0.5,1.4,0.5,2.4c0,0.9-0.2,1.6-0.5,2.3c-0.3,0.6-0.8,1.2-1.3,1.6
		c-0.5,0.4-1.2,0.7-1.9,0.9s-1.5,0.3-2.3,0.3c-1.4,0-2.8-0.3-4.1-0.8c-0.3-0.1-0.5-0.2-0.6-0.3c-0.2-0.1-0.2-0.3-0.2-0.6V58.4z"/>
</g>
</svg>
