<?xml version="1.0" encoding="utf-8"?>
<!-- Generator: Adobe Illustrator 19.0.0, SVG Export Plug-In . SVG Version: 6.00 Build 0)  -->
<svg version="1.1" id="Layer_1" xmlns="http://www.w3.org/2000/svg" xmlns:xlink="http://www.w3.org/1999/xlink" x="0px" y="0px"
	 viewBox="176.6 141.3 525.8 181.1" style="enable-background:new 176.6 141.3 525.8 181.1;" xml:space="preserve">
<style type="text/css">
	.st0{clip-path:url(#SVGID_2_);}
	.st1{fill:none;stroke:#000000;stroke-miterlimit:10;}
	.st2{fill:#FFFFFF;}
</style>
<g>
	<g>
		<defs>
			<rect id="SVGID_1_" x="176.6" y="142.1" width="525.8" height="178.2"/>
		</defs>
		<clipPath id="SVGID_2_">
			<use xlink:href="#SVGID_1_"  style="overflow:visible;"/>
		</clipPath>
		<g class="st0">
			
				<image style="overflow:visible;enable-background:new    ;" width="242" height="82" xlink:href="93143245.png"  transform="matrix(2.1726 0 0 2.1731 176.615 142.0722)">
			</image>
		</g>
	</g>
	<polygon points="224.5,155.7 211.5,219.2 231,219.2 245,155.7 292.5,155.7 295,142.1 181,142.1 178.8,155.2 	"/>
	<polygon class="st1" points="224.5,155.7 211.5,219.2 231,219.2 245,155.7 292.5,155.7 295,142.1 181,142.1 178.8,155.2 	"/>
	<polygon points="273.2,159.7 297.7,159.7 319.3,179.5 350.2,159.7 374.8,159.7 328.8,189.5 361,219.2 337,219.2 315,199.5 
		284.3,219.2 260.3,219.2 304.3,189.5 	"/>
	<polygon class="st1" points="273.2,159.7 297.7,159.7 319.3,179.5 350.2,159.7 374.8,159.7 328.8,189.5 361,219.2 337,219.2 
		315,199.5 284.3,219.2 260.3,219.2 304.3,189.5 	"/>
	<polygon points="387.7,142.1 370.3,219.2 389.8,219.2 407.7,142.1 	"/>
	<polygon class="st1" points="387.7,142.1 370.3,219.2 389.8,219.2 407.7,142.1 	"/>
	<path d="M519.5,210.1c6.3-6.4,21.7-37.8-28.6-36.6c-50.3,1.2-43.8-8.3-43.8-8.3c23.7-23,70.1,1.3,70.1,1.3l12.9-9.6
		c-15.8-18.2-70.2-14.8-70.2-14.8l0.7,0.3c-28.8-1.3-41.8,23.7-33.8,31.3s7,11.3,51.2,12.5s23.2,17.5,23.2,17.5
		c-27.7,17-78.3-5.2-78.3-5.2L412.2,209c0,0,16.5,12.1,41.3,14.1c50.1,4,67-13.8,67-13.8"/>
	<path class="st1" d="M519.5,210.1c6.3-6.4,21.7-37.8-28.6-36.6c-50.3,1.2-43.8-8.3-43.8-8.3c23.7-23,70.1,1.3,70.1,1.3l12.9-9.6
		c-15.8-18.2-70.2-14.8-70.2-14.8l0.7,0.3c-28.8-1.3-41.8,23.7-33.8,31.3s7,11.3,51.2,12.5s23.2,17.5,23.2,17.5
		c-27.7,17-78.3-5.2-78.3-5.2L412.2,209c0,0,16.5,12.1,41.3,14.1c50.1,4,67-13.8,67-13.8"/>
	<polygon points="200.2,249.9 193.8,276.2 203.2,276.2 209.2,249.9 226.8,249.9 226.8,245.9 182.5,245.9 181.3,249.5 	"/>
	<polygon class="st1" points="200.2,249.9 193.8,276.2 203.2,276.2 209.2,249.9 226.8,249.9 226.8,245.9 182.5,245.9 181.3,249.5 	
		"/>
	<polygon points="224.8,252 218.7,276.2 255.7,276.2 255.7,272 226.8,271.5 228.5,265.4 246.8,265.4 246.8,261 229.7,261 231,256.7 
		257.7,256.7 257.7,252 	"/>
	<polygon class="st1" points="224.8,252 218.7,276.2 255.7,276.2 255.7,272 226.8,271.5 228.5,265.4 246.8,265.4 246.8,261 
		229.7,261 231,256.7 257.7,256.7 257.7,252 	"/>
	<polygon points="266.7,276.2 255.7,276.2 272.5,264.1 260.3,252.7 270.7,252.7 278.7,261 290.5,252 299,252 282.3,264.1 
		293.7,276.2 285.3,276.2 276.3,268 	"/>
	<polygon class="st1" points="266.7,276.2 255.7,276.2 272.5,264.1 260.3,252.7 270.7,252.7 278.7,261 290.5,252 299,252 
		282.3,264.1 293.7,276.2 285.3,276.2 276.3,268 	"/>
	<polygon points="315,252 291.9,274.3 293.7,276.2 299,276.2 304.3,271.9 320,271.7 323.8,276.2 332.8,276.2 317.6,252 	"/>
	<polygon class="st1" points="315,252 291.9,274.3 293.7,276.2 299,276.2 304.3,271.9 320,271.7 323.8,276.2 332.8,276.2 317.6,252 
			"/>
	<polygon class="st2" points="308.5,267.2 320,267.2 314.2,261 	"/>
	<polygon class="st1" points="308.5,267.2 320,267.2 314.2,261 	"/>
	<path d="M366.6,272.3c2-2.1,7-12.2-9.2-11.8c-16.3,0.4-14.2-2.7-14.2-2.7c7.7-7.4,22.6,0.4,22.6,0.4l4.2-3.1
		c-5.1-5.9-22.7-4.8-22.7-4.8l0.2,0.1c-9.3-0.4-13.5,7.7-10.9,10.1c2.6,2.5,2.3,3.7,16.5,4c14.3,0.4,7.5,5.7,7.5,5.7
		c-8.9,5.5-25.3-1.7-25.3-1.7l-3.4,3.4c0,0,5.3,3.9,13.4,4.6c16.2,1.3,21.6-4.4,21.6-4.4"/>
	<path class="st1" d="M366.6,272.3c2-2.1,7-12.2-9.2-11.8c-16.3,0.4-14.2-2.7-14.2-2.7c7.7-7.4,22.6,0.4,22.6,0.4l4.2-3.1
		c-5.1-5.9-22.7-4.8-22.7-4.8l0.2,0.1c-9.3-0.4-13.5,7.7-10.9,10.1c2.6,2.5,2.3,3.7,16.5,4c14.3,0.4,7.5,5.7,7.5,5.7
		c-8.9,5.5-25.3-1.7-25.3-1.7l-3.4,3.4c0,0,5.3,3.9,13.4,4.6c16.2,1.3,21.6-4.4,21.6-4.4"/>
	<path d="M494.2,273.1c2.1-2.1,7.2-12.5-9.4-12.1s-14.4-2.7-14.4-2.7c7.8-7.6,23.1,0.4,23.1,0.4l4.3-3.2c-5.2-6-23.1-4.9-23.1-4.9
		l0.2,0.1c-9.5-0.4-13.8,7.8-11.1,10.3c2.6,2.5,2.3,3.7,16.9,4.1c14.5,0.4,7.6,5.8,7.6,5.8c-9.1,5.6-25.8-1.7-25.8-1.7l-3.5,3.4
		c0,0,5.4,4,13.6,4.7c16.5,1.3,22.1-4.5,22.1-4.5"/>
	<path class="st1" d="M494.2,273.1c2.1-2.1,7.2-12.5-9.4-12.1s-14.4-2.7-14.4-2.7c7.8-7.6,23.1,0.4,23.1,0.4l4.3-3.2
		c-5.2-6-23.1-4.9-23.1-4.9l0.2,0.1c-9.5-0.4-13.8,7.8-11.1,10.3c2.6,2.5,2.3,3.7,16.9,4.1c14.5,0.4,7.6,5.8,7.6,5.8
		c-9.1,5.6-25.8-1.7-25.8-1.7l-3.5,3.4c0,0,5.4,4,13.6,4.7c16.5,1.3,22.1-4.5,22.1-4.5"/>
	<polygon points="408.6,245.5 401,277.2 409.5,277.2 417.3,245.5 	"/>
	<polygon class="st1" points="408.6,245.5 401,277.2 409.5,277.2 417.3,245.5 	"/>
	<polygon points="540.1,251.4 534.1,276.7 540.9,276.7 547.1,251.4 	"/>
	<polygon class="st1" points="540.1,251.4 534.1,276.7 540.9,276.7 547.1,251.4 	"/>
	<polygon points="509.5,276.2 515.5,256.5 499.7,256.5 499.7,251.4 537.5,251.4 537.5,256.5 522.5,256.5 517.5,276.2 	"/>
	<polygon class="st1" points="509.5,276.2 515.5,256.5 499.7,256.5 499.7,251.4 537.5,251.4 537.5,256.5 522.5,256.5 517.5,276.2 	
		"/>
	<polygon points="558.5,277 564.5,257.3 548.7,257.3 548.7,252.2 586.5,252.2 586.5,257.3 571.5,257.3 566.5,277 	"/>
	<polygon class="st1" points="558.5,277 564.5,257.3 548.7,257.3 548.7,252.2 586.5,252.2 586.5,257.3 571.5,257.3 566.5,277 	"/>
	<polygon points="636.8,276.6 642.8,256.9 627,256.9 627,251.8 664.8,251.8 664.8,256.9 649.8,256.9 644.8,276.6 	"/>
	<polygon class="st1" points="636.8,276.6 642.8,256.9 627,256.9 627,251.8 664.8,251.8 664.8,256.9 649.8,256.9 644.8,276.6 	"/>
	<polygon points="430.7,252 446.9,267.2 449.2,252.2 456.7,252 452.7,276.7 446.9,276.7 430.7,263.8 428.5,276.2 419,276.2 
		424.7,252.2 	"/>
	<polygon class="st1" points="430.7,252 446.9,267.2 449.2,252.2 456.7,252 452.7,276.7 446.9,276.7 430.7,263.8 428.5,276.2 
		419,276.2 424.7,252.2 	"/>
	<polygon points="668.5,251.7 662.4,275.9 699.4,275.9 699.4,271.7 670.5,271.2 672.2,265 690.5,265 690.5,260.7 673.4,260.7 
		674.7,256.4 701.4,256.4 701.4,251.7 	"/>
	<polygon class="st1" points="668.5,251.7 662.4,275.9 699.4,275.9 699.4,271.7 670.5,271.2 672.2,265 690.5,265 690.5,260.7 
		673.4,260.7 674.7,256.4 701.4,256.4 701.4,251.7 	"/>
	<path d="M230.8,308.3c0,7-10.1,12.7-22.7,12.7c-12.5,0-22.7-5.7-22.7-12.7s10.1-12.7,22.7-12.7
		C220.7,295.5,230.8,301.2,230.8,308.3"/>
	<ellipse class="st1" cx="208.2" cy="308.3" rx="22.7" ry="12.7"/>
	<path d="M598,252.2c0,0-7,19,0,19s15,3.7,17-7.4l2-11.1l8.3-0.5c0,0,4.3,28.6-22,24.4c0,0-24,4.1-14.8-18.4l1-6.2L598,252.2z"/>
	<path class="st1" d="M598,252.2c0,0-7,19,0,19s15,3.7,17-7.4l2-11.1l8.3-0.5c0,0,4.3,28.6-22,24.4c0,0-24,4.1-14.8-18.4l1-6.2
		L598,252.2z"/>
	<path class="st2" d="M221.5,308.4c0,4.1-6.1,7.5-13.7,7.5c-7.5,0-13.7-3.4-13.7-7.5s6.1-7.5,13.7-7.5S221.5,304.2,221.5,308.4"/>
	<ellipse class="st1" cx="207.8" cy="308.4" rx="13.7" ry="7.5"/>
	<polygon points="239.3,296.2 233.8,320.3 240.8,320.3 242.8,309.4 261.2,309 261.2,304.9 245,304.5 245.8,300.9 272.5,300.9 
		272.5,296.2 	"/>
	<polygon class="st1" points="239.3,296.2 233.8,320.3 240.8,320.3 242.8,309.4 261.2,309 261.2,304.9 245,304.5 245.8,300.9 
		272.5,300.9 272.5,296.2 	"/>
	<path d="M339.2,316.5c2.5-2.6,8.7-15.1-11.4-14.6c-20.1,0.5-17.5-3.3-17.5-3.3c9.5-9.2,28,0.5,28,0.5l5.2-3.8
		c-6.3-7.3-28-5.9-28-5.9l0.3,0.1c-11.5-0.5-16.7,9.5-13.5,12.5c3.2,3.1,2.8,4.5,20.4,5c17.6,0.5,9.3,7,9.3,7
		c-11,6.8-31.3-2.1-31.3-2.1l-4.3,4.2c0,0,6.6,4.8,16.5,5.6c20,1.6,26.8-5.5,26.8-5.5"/>
	<path class="st1" d="M339.2,316.5c2.5-2.6,8.7-15.1-11.4-14.6c-20.1,0.5-17.5-3.3-17.5-3.3c9.5-9.2,28,0.5,28,0.5l5.2-3.8
		c-6.3-7.3-28-5.9-28-5.9l0.3,0.1c-11.5-0.5-16.7,9.5-13.5,12.5c3.2,3.1,2.8,4.5,20.4,5c17.6,0.5,9.3,7,9.3,7
		c-11,6.8-31.3-2.1-31.3-2.1l-4.3,4.2c0,0,6.6,4.8,16.5,5.6c20,1.6,26.8-5.5,26.8-5.5"/>
	<polygon points="541.9,296.1 535.7,320.3 572.7,320.3 572.7,316.1 543.9,315.6 545.5,309.5 563.9,309.5 563.9,305.1 546.7,305.1 
		548,300.8 574.7,300.8 574.7,296.1 	"/>
	<polygon class="st1" points="541.9,296.1 535.7,320.3 572.7,320.3 572.7,316.1 543.9,315.6 545.5,309.5 563.9,309.5 563.9,305.1 
		546.7,305.1 548,300.8 574.7,300.8 574.7,296.1 	"/>
	<polygon points="413.8,296.1 407.7,320.3 444.7,320.3 444.7,316.1 415.8,315.6 417.5,309.5 435.8,309.5 435.8,305.1 418.7,305.1 
		420,300.8 446.7,300.8 446.7,296.1 	"/>
	<polygon class="st1" points="413.8,296.1 407.7,320.3 444.7,320.3 444.7,316.1 415.8,315.6 417.5,309.5 435.8,309.5 435.8,305.1 
		418.7,305.1 420,300.8 446.7,300.8 446.7,296.1 	"/>
	<polygon points="461.5,296.1 477.7,311.3 480,296.3 487.5,296.1 483.5,320.8 477.7,320.8 461.5,307.9 459.3,320.3 449.8,320.3 
		455.5,296.3 	"/>
	<polygon class="st1" points="461.5,296.1 477.7,311.3 480,296.3 487.5,296.1 483.5,320.8 477.7,320.8 461.5,307.9 459.3,320.3 
		449.8,320.3 455.5,296.3 	"/>
	<polygon points="398.3,295.8 392.3,321.1 399,321.1 405.3,295.8 	"/>
	<polygon class="st1" points="398.3,295.8 392.3,321.1 399,321.1 405.3,295.8 	"/>
	<path d="M389,301l-6.4,3.6c0,0-5.8-4.6-12.6-4.6s-16.5,4.9-16.5,10s10,5.6,15.6,5.6s11.6-4.1,12.3-4.9s5.9,4.9,5.9,4.9
		s-9.6,5.2-18.8,5.2c-9.2,0-22.8-3.2-22.8-11.4s12.9-14.3,24.3-14.3C381.4,295.1,389,301,389,301"/>
	<path class="st1" d="M389,301l-6.4,3.6c0,0-5.8-4.6-12.6-4.6s-16.5,4.9-16.5,10s10,5.6,15.6,5.6s11.6-4.1,12.3-4.9s5.9,4.9,5.9,4.9
		s-9.6,5.2-18.8,5.2c-9.2,0-22.8-3.2-22.8-11.4s12.9-14.3,24.3-14.3C381.4,295.1,389,301,389,301z"/>
	<path d="M534.1,301.5l-6.4,3.6c0,0-5.8-4.6-12.6-4.6c-6.8,0-16.5,4.9-16.5,10s10,5.6,15.6,5.6c5.6,0,11.6-4.1,12.3-4.9
		s5.9,4.9,5.9,4.9s-9.6,5.2-18.8,5.2c-9.2,0-22.8-3.2-22.8-11.4s12.9-14.3,24.3-14.3C526.5,295.6,534.1,301.5,534.1,301.5"/>
	<path class="st1" d="M534.1,301.5l-6.4,3.6c0,0-5.8-4.6-12.6-4.6c-6.8,0-16.5,4.9-16.5,10s10,5.6,15.6,5.6c5.6,0,11.6-4.1,12.3-4.9
		s5.9,4.9,5.9,4.9s-9.6,5.2-18.8,5.2c-9.2,0-22.8-3.2-22.8-11.4s12.9-14.3,24.3-14.3C526.5,295.6,534.1,301.5,534.1,301.5z"/>
</g>
</svg>
