<?xml version="1.0" encoding="utf-8"?>
<!-- Generator: Adobe Illustrator 21.0.0, SVG Export Plug-In . SVG Version: 6.00 Build 0)  -->
<svg version="1.1" id="Layer_1" xmlns="http://www.w3.org/2000/svg" xmlns:xlink="http://www.w3.org/1999/xlink" x="0px" y="0px"
	 viewBox="0 0 322.6 323.2" style="enable-background:new 0 0 322.6 323.2;" xml:space="preserve">
<style type="text/css">
	.st0{fill:#FFFFFF;}
</style>
<path id="White_2_" class="st0" d="M228,86.6H94.6c-4.6,0-8.3,3.7-8.3,8.3v133.4c0,4.6,3.7,8.3,8.3,8.3h71.8v-58h-19.5v-22.6h19.5
	v-16.6c0-19.4,11.8-29.9,29.1-29.9c8.3,0,15.4,0.6,17.5,0.9v20.2h-12c-9.4,0-11.2,4.5-11.2,11v14.5h22.4l-2.9,22.6h-19.5v58H228
	c4.6,0,8.3-3.7,8.3-8.3V94.9C236.3,90.3,232.6,86.6,228,86.6z"/>
</svg>
