<?xml version="1.0" standalone="no"?>
<!DOCTYPE svg PUBLIC "-//W3C//DTD SVG 20010904//EN"
 "http://www.w3.org/TR/2001/REC-SVG-20010904/DTD/svg10.dtd">
<svg version="1.0" xmlns="http://www.w3.org/2000/svg"
 width="207.000000pt" height="76.000000pt" viewBox="0 0 207.000000 76.000000"
 preserveAspectRatio="xMidYMid meet">

<g transform="translate(0.000000,76.000000) scale(0.100000,-0.100000)"
fill="#000000" stroke="none">
<path d="M50 563 l0 -187 41 -42 41 -42 45 19 c60 25 127 25 153 -1 26 -26 25
-65 -1 -91 -31 -31 -94 -22 -159 25 -27 20 -52 36 -54 36 -8 0 -106 -138 -106
-148 0 -20 98 -90 151 -107 38 -13 73 -16 133 -13 87 5 123 19 181 70 98 85
111 241 28 337 -48 57 -103 83 -188 90 -66 6 -70 7 -70 31 l0 25 138 3 137 3
0 89 0 90 -235 0 -235 0 0 -187z m420 97 l0 -40 -135 0 -135 0 0 -82 0 -83 88
0 c80 0 92 -3 131 -28 133 -88 115 -270 -34 -343 -49 -23 -64 -26 -128 -22
-72 5 -139 30 -166 62 -11 13 -9 21 8 50 l21 34 53 -29 c39 -21 66 -29 105
-29 48 0 58 4 88 34 28 28 34 41 34 78 0 50 -18 82 -60 103 -34 18 -114 20
-159 4 -28 -10 -35 -9 -57 12 -23 22 -24 26 -24 171 l0 148 185 0 185 0 0 -40z"/>
<path d="M817 713 c-13 -21 -69 -115 -125 -208 l-102 -170 0 -78 0 -77 135 0
135 0 0 -80 0 -80 100 0 99 0 3 78 3 77 38 3 37 3 0 89 0 89 -37 3 -38 3 -3
58 -3 57 -69 0 c-39 0 -70 4 -70 10 0 5 32 62 71 127 39 65 73 121 76 126 2 4
-48 7 -111 7 l-116 0 -23 -37z m62 -179 c-55 -91 -106 -179 -115 -195 l-15
-29 81 0 80 0 0 60 0 60 50 0 50 0 0 -60 0 -60 40 0 40 0 0 -40 0 -40 -40 0
-40 0 0 -86 0 -85 -47 3 -48 3 -3 83 -3 82 -134 0 -135 0 0 44 c0 39 14 68
116 235 l116 191 54 0 53 0 -100 -166z m-22 -166 c-3 -8 -6 -5 -6 6 -1 11 2
17 5 13 3 -3 4 -12 1 -19z"/>
<path d="M1200 660 l0 -89 91 -3 92 -3 -47 -54 -46 -55 0 -78 c0 -43 4 -78 9
-78 5 0 32 5 60 12 94 21 172 -25 140 -83 -26 -49 -116 -44 -204 12 -25 16
-48 29 -50 29 -3 0 -23 -36 -45 -81 -30 -60 -38 -84 -30 -94 5 -7 41 -27 78
-46 86 -42 207 -52 293 -24 194 65 230 331 58 432 -16 10 -29 20 -29 23 0 3
25 34 55 68 l55 63 0 70 0 69 -240 0 -240 0 0 -90z m430 9 c0 -24 -17 -50 -77
-121 -43 -49 -79 -93 -81 -98 -2 -4 15 -11 37 -15 57 -9 102 -43 129 -95 25
-50 27 -85 10 -142 -14 -48 -82 -113 -134 -127 -82 -23 -213 -5 -264 37 -21
17 -21 18 -4 54 l17 37 46 -23 c61 -31 112 -39 161 -26 102 28 119 138 30 198
-29 20 -45 23 -98 20 l-62 -3 0 35 c0 29 12 50 75 122 41 48 75 89 75 92 0 4
-54 6 -120 6 l-120 0 0 40 0 40 190 0 190 0 0 -31z"/>
<path d="M1740 660 l0 -90 65 0 65 0 0 -275 0 -275 100 0 100 0 0 365 0 365
-165 0 -165 0 0 -90z m280 -280 l0 -320 -50 0 -50 0 0 280 0 280 -65 0 -65 0
0 40 0 40 115 0 115 0 0 -320z"/>
</g>
</svg>
