<?xml version="1.0" encoding="utf-8"?>
<!-- Generator: Adobe Illustrator 19.0.0, SVG Export Plug-In . SVG Version: 6.00 Build 0)  -->
<svg version="1.1" id="Layer_1" xmlns="http://www.w3.org/2000/svg" xmlns:xlink="http://www.w3.org/1999/xlink" x="0px" y="0px"
	 viewBox="0 0 405.3 382" style="enable-background:new 0 0 405.3 382;" xml:space="preserve">
<style type="text/css">
	.st0{fill:#FFFFFF;}
</style>
<g>
	<path class="st0" d="M126.4,344.3c-9.2,0-16.9-3-23.3-9.2l-3.5-3.3l10.8-15.1l4.8,3.7c0.6,0.5,1.9,1.4,4.9,3.1
		c4.3,2.3,8.8,2.5,12,0c1.3-1,2-2.7,2-4.9c0-2.2-0.8-3.9-2.2-5c-1.7-1.3-4-2-6.9-2c-2.6,0-5.6,0.8-9,2.5l-3.7,1.8l-8.4-9v-37.1h46.7
		v18.5h-27.1v5.6c1.4-0.2,2.8-0.3,4.3-0.3c7.3,0,13.4,2.2,18.8,6.6l0,0c5.4,4.6,8.1,10.5,8.1,18.1c0,7.6-2.7,13.8-8.3,18.7
		C141,341.9,134.4,344.3,126.4,344.3z M106.3,331.2l0.3,0.3c5.5,5.3,12,7.8,19.9,7.8c6.7,0,12.2-2,16.7-6c4.5-4,6.6-8.9,6.6-15
		c0-6.2-2-10.7-6.3-14.3c-4.4-3.7-9.5-5.4-15.5-5.4c-2.3,0-4.4,0.3-6.2,0.8l-3.2,0.9v-17h27.1v-8.5H109v30.1l4.5,4.9l0.3-0.2
		c4.2-2,7.8-3,11.2-3c4,0,7.3,1,9.9,3c2.7,2.1,4.2,5.3,4.2,9c0,4.8-2.2,7.4-4,8.8c-2.4,1.9-5.3,2.9-8.4,2.9c-3,0-6-0.8-9-2.4
		c-2.7-1.5-4.6-2.7-5.8-3.6l-0.5-0.4L106.3,331.2z"/>
	<path class="st0" d="M205.3,343.5h-20v-16.4h-27.6v-15l25.6-42.4h22.8l-16.1,27h15.3v12h7.7v18.5h-7.7V343.5z M190.3,338.5h10
		v-16.4h7.7v-8.5h-7.7v-12h-10v12h-16.3l23.2-38.9h-11.1l-23.4,38.8v8.6h27.6V338.5z M182.9,308.7h2.5v-4.1L182.9,308.7z"/>
	<path class="st0" d="M241.1,344.3c-7.3,0-14.8-2.3-22.2-7l-4.3-2.7l8.7-16.8l5.1,3.2c5,3.1,9.5,4.7,13.3,4.7c2.5,0,4.5-0.6,6-1.7
		c1.3-1,2-2.4,2-4.4c0-1.9-0.8-3.5-2.3-4.6c-1.8-1.3-4.5-2-8-2c-1.2,0-2.8,0.2-4.9,0.8l-6.8,1.7v-15.5l10.1-11.9h-18.4v-18.3h47.2
		v14.2l-11.8,13.5c4.1,1.4,7.4,3.6,10,6.8c3.4,4.2,5.1,9,5.1,14.5c0,8.1-2.7,14.3-8.3,18.9C256.1,342.1,249.4,344.3,241.1,344.3z
		 M221.2,332.8l0.4,0.3c6.6,4.1,13.2,6.2,19.6,6.2c7.1,0,12.7-1.8,17.2-5.6c4.4-3.7,6.5-8.5,6.5-15.1c0-4.3-1.3-8-4-11.3
		c-2.6-3.2-6.3-5.2-11.1-6l-4.4-0.8l16.2-18.5v-7.3h-37.2v8.3h24.2l-15.9,18.7v7.2l0.6-0.2c2.5-0.6,4.5-0.9,6.1-0.9
		c4.5,0,8.2,1,10.9,3c2.8,2.1,4.4,5.2,4.4,8.7c0,3.6-1.4,6.5-3.9,8.4c-2.4,1.8-5.4,2.7-9,2.7c-4.8,0-10.2-1.8-16-5.5l-0.5-0.3
		L221.2,332.8z"/>
	<path class="st0" d="M305.9,343.5h-20V288h-13v-18.3h33V343.5z M291,338.5h10v-63.8h-23v8.3h13V338.5z"/>
</g>
<path class="st0" d="M221.8,288.4"/>
<g>
	<path class="st0" d="M46.1,360v21.7h-6V360h-7.6v-5.2h21.2v5.2H46.1z"/>
	<path class="st0" d="M58.1,354.8h6v26.9h-6V354.8z"/>
	<path class="st0" d="M82.1,360v21.7h-6V360h-7.6v-5.2h21.2v5.2H82.1z"/>
	<path class="st0" d="M111.3,381.6l-2.5-5.8H97.5l-2.5,5.8h-6.4l11.6-26.9h5.8l11.6,26.9H111.3z M103.2,362.8l-3.4,7.8h6.7
		L103.2,362.8z"/>
	<path class="st0" d="M139.6,354.8h6v26.9h-6l-12.8-16.8v16.8h-6v-26.9h5.6l13.2,17.3V354.8z"/>
	<path class="st0" d="M194.1,363.7c0,4.3-1.7,7.1-5.1,8.3l6.8,9.6h-7.4l-6-8.6h-4.2v8.6h-6v-26.9h10.2c4.2,0,7.2,0.7,8.9,2.1
		C193.2,358.3,194.1,360.6,194.1,363.7z M186.9,366.9c0.7-0.7,1.1-1.7,1.1-3.2c0-1.4-0.4-2.4-1.2-3c-0.8-0.5-2.1-0.8-4-0.8h-4.5v8
		h4.4C184.8,367.9,186.2,367.5,186.9,366.9z"/>
	<path class="st0" d="M222.6,377.9c-2.7,2.7-6.1,4-10,4c-4,0-7.3-1.3-10-4c-2.7-2.7-4.1-6-4.1-9.9c0-3.9,1.4-7.2,4.1-9.9
		c2.7-2.7,6.1-4,10-4c4,0,7.3,1.3,10,4c2.7,2.7,4.1,6,4.1,9.9C226.7,372,225.3,375.3,222.6,377.9z M220.6,368c0-2.4-0.8-4.4-2.3-6.1
		c-1.5-1.7-3.4-2.5-5.7-2.5c-2.2,0-4.1,0.8-5.7,2.5c-1.5,1.7-2.3,3.7-2.3,6.1c0,2.4,0.8,4.4,2.3,6.1c1.5,1.7,3.4,2.5,5.7,2.5
		c2.2,0,4.1-0.8,5.7-2.5C219.8,372.5,220.6,370.4,220.6,368z"/>
	<path class="st0" d="M243.5,381.6h-11.8v-26.9h10.5c1.8,0,3.4,0.2,4.7,0.7c1.3,0.4,2.3,1,3,1.8c1.2,1.4,1.8,2.9,1.8,4.7
		c0,2.1-0.7,3.7-2,4.7c-0.5,0.4-0.8,0.6-1,0.7c-0.2,0.1-0.5,0.2-1,0.4c1.7,0.4,3,1.1,4,2.2c1,1.1,1.5,2.6,1.5,4.2
		c0,1.9-0.6,3.5-1.9,5C249.8,380.8,247.2,381.6,243.5,381.6z M237.8,365.6h2.8c1.7,0,2.9-0.2,3.7-0.5c0.8-0.4,1.2-1.1,1.2-2.3
		c0-1.2-0.4-2-1.1-2.4c-0.7-0.4-2-0.6-3.8-0.6h-2.9V365.6z M237.8,376.6h4.1c1.7,0,3-0.2,3.9-0.6c0.9-0.4,1.3-1.3,1.3-2.5
		c0-1.2-0.5-2.1-1.4-2.5c-0.9-0.4-2.4-0.6-4.4-0.6h-3.5V376.6z"/>
	<path class="st0" d="M280.9,377.9c-2.7,2.7-6.1,4-10,4c-4,0-7.3-1.3-10-4c-2.7-2.7-4.1-6-4.1-9.9c0-3.9,1.4-7.2,4.1-9.9
		c2.7-2.7,6.1-4,10-4c4,0,7.3,1.3,10,4c2.7,2.7,4.1,6,4.1,9.9C284.9,372,283.6,375.3,280.9,377.9z M278.8,368c0-2.4-0.8-4.4-2.3-6.1
		c-1.5-1.7-3.4-2.5-5.7-2.5c-2.2,0-4.1,0.8-5.7,2.5c-1.5,1.7-2.3,3.7-2.3,6.1c0,2.4,0.8,4.4,2.3,6.1c1.5,1.7,3.4,2.5,5.7,2.5
		c2.2,0,4.1-0.8,5.7-2.5C278.1,372.5,278.8,370.4,278.8,368z"/>
	<path class="st0" d="M300.7,360v21.7h-6V360H287v-5.2h21.2v5.2H300.7z"/>
	<path class="st0" d="M312.7,354.8h6v26.9h-6V354.8z"/>
	<path class="st0" d="M337.6,376.3c2.9,0,5.4-1.2,7.2-3.5l3.8,4c-3,3.4-6.6,5.2-10.8,5.2c-4.1,0-7.5-1.3-10.2-3.9
		c-2.7-2.6-4-5.9-4-9.9c0-4,1.4-7.3,4.1-10c2.7-2.7,6.1-4,10-4c4.4,0,8.1,1.7,11.1,5l-3.7,4.2c-1.9-2.4-4.3-3.5-7.1-3.5
		c-2.3,0-4.2,0.7-5.8,2.2c-1.6,1.5-2.4,3.5-2.4,6c0,2.5,0.8,4.5,2.3,6C333.6,375.6,335.4,376.3,337.6,376.3z"/>
	<path class="st0" d="M359.7,360.1c-0.6,0.5-0.9,1.1-0.9,1.9s0.4,1.4,1.1,1.9c0.7,0.5,2.3,1,4.9,1.6c2.5,0.6,4.5,1.6,5.9,2.8
		c1.4,1.3,2.1,3.1,2.1,5.5c0,2.4-0.9,4.4-2.7,5.9c-1.8,1.5-4.2,2.2-7.1,2.2c-4.3,0-8.1-1.6-11.5-4.7l3.6-4.4c2.9,2.5,5.6,3.8,8,3.8
		c1.1,0,2-0.2,2.6-0.7c0.6-0.5,0.9-1.1,0.9-1.9c0-0.8-0.3-1.4-1-1.9c-0.7-0.5-2-1-4-1.4c-3.1-0.7-5.4-1.7-6.9-2.9
		c-1.4-1.2-2.2-3.1-2.2-5.6c0-2.5,0.9-4.5,2.7-5.9c1.8-1.4,4.1-2.1,6.9-2.1c1.8,0,3.6,0.3,5.4,0.9c1.8,0.6,3.4,1.5,4.7,2.6l-3,4.4
		c-2.3-1.8-4.7-2.7-7.2-2.7C361,359.4,360.3,359.7,359.7,360.1z"/>
</g>
<path class="st0" d="M270.5,265.7L270.5,265.7l17.5,0c14.4-12.5,30.2-30.8,38.1-55.6c-7.1-4.8-15.1-8.3-23.7-10
	c-3.9,21.2-22.5,45.4-48.6,65.6H270.5z"/>
<polygon class="st0" points="94.4,332.3 106.5,315.4 105.4,314.2 100.4,317.5 70.2,297.3 94.5,339.7 99.3,336.9 "/>
<g>
	<path class="st0" d="M117.3,265.7h34.2c-26.1-20.2-44.8-44.4-48.6-65.6c-8.5,1.7-16.6,5.2-23.7,10
		C87.2,234.9,102.9,253.2,117.3,265.7z"/>
	<path class="st0" d="M154.6,292.2h-13.2c2.8,1.2,5.4,2.8,7.8,4.9c2.4,2,4.4,4.4,5.9,7l4.4-2.6l12.9-21.4c-6.2-3.8-12.2-7.8-17.8-12
		V292.2z"/>
</g>
<path class="st0" d="M282,302.6l-16.9-11l-3.9,4.4c2.5,1.5,4.7,3.4,6.5,5.6c3.9,4.8,5.8,10.1,6,16.2l8.3,4.9V302.6z"/>
<polygon class="st0" points="309.9,314.1 309.9,339.2 310.8,339.7 335.2,297.3 "/>
<line class="st0" x1="254.6" y1="46.9" x2="273.7" y2="59.7"/>
<path class="st0" d="M202.7,190.5l4.4,0l-1.4-21l37.5-6.5c0,0,3.3,14.9-15.6,20.4s-17.9,21.3-17.9,21.3L210,266
	c36.5-8.7,48.6-37.5,48.6-37.5v-86.4c-23.9-35.8-51.1-39.5-51.1-39.5l1.9-36.6h-6.8h-6.8l1.9,36.6c0,0-27.2,3.7-51.1,39.5v86.4
	c0,0,12.1,28.8,48.6,37.5l0.4-61.3c0,0,1.1-15.9-17.9-21.3c-18.9-5.5-15.6-20.4-15.6-20.4l37.5,6.5l-1.4,21L202.7,190.5z"/>
<path class="st0" d="M344,168.2c-0.6-4.3-4.4-8.3-8.8-9v0c0,0,0,0-11.2-1.8c-4.4-0.7-7.5-3.7-8.6-7.8l-2.4-9.1h25.4l4.3,12.9h3.6
	l-3-26.3c-6-21.5-25.8-37.3-49.2-37.3c-21.5,0-39.9,13.3-47.4,32c4.9,5,10,11,14.9,18.3l0.6,0.9v59.4c7.6-3.3,16-5.2,24.7-5.5
	c-4.2-4.8-6.7-11.2-6.7-18.1c0-4.7,1.2-9.1,3.2-12.9l0,0.1c-0.8,2.6-1.2,5.4-1.2,8.2c0,9.5,4.8,17.9,12.1,22.9h0
	c23.5,1.6,43.8,15,55.1,34.3l3.3,0L344,168.2z"/>
<path class="st0" d="M294.1,74.9c-25.9,0-48.3,15-59.1,36.7c2.8,2,5.7,4.4,8.6,7.1c8.5-19.5,27.9-33.1,50.5-33.1
	c24.6,0,45.5,16.2,52.5,38.5l8.9-7.4C345.9,92.3,322.1,74.9,294.1,74.9z"/>
<path class="st0" d="M375,81.5l-15.8,7.1c-2-2.5-4.1-4.9-6.4-7.1l8.7-15l-11.7-9.1l-12.4,12.1c-2.7-1.7-5.5-3.2-8.5-4.5l3.1-17
	L318,43.4L310.5,59c-3.1-0.6-6.3-1.1-9.5-1.3L298,40.6l-14.8,0.5l-1.7,17.2c-3.2,0.5-6.3,1.2-9.4,2l-8.6-15l-13.8,5.6l4.3,16.8
	c-2.8,1.5-5.5,3.2-8.1,5.1l-13.2-11.2l-11,9.9l9.7,14.3c-2.1,2.4-4.1,4.9-5.9,7.5l-13.7-5.1l-0.6,11.5c4.1,1.1,11.6,3.7,20.5,9.6
	c11.5-22.8,35.1-38.4,62.4-38.4c29.2,0,54.2,17.9,64.6,43.2l24.1-20.1L375,81.5z"/>
<path class="st0" d="M22.5,94.1l24.1,20.1C57,88.8,82,70.9,111.2,70.9c27.3,0,50.9,15.6,62.4,38.4c9-6,16.5-8.5,20.5-9.6l-0.6-11.5
	l-13.7,5.1c-1.8-2.6-3.8-5.1-5.9-7.5l9.7-14.3l-11-9.9l-13.2,11.2c-2.6-1.8-5.3-3.5-8.1-5.1l4.3-16.8l-13.8-5.6l-8.6,15
	c-3.1-0.8-6.2-1.5-9.4-2l-1.7-17.2l-14.8-0.5l-2.9,17.1c-3.2,0.3-6.4,0.7-9.5,1.3l-7.5-15.6L73.2,48l3.1,17
	c-2.9,1.3-5.7,2.8-8.5,4.5L55.5,57.5l-11.7,9.1l8.7,15c-2.3,2.2-4.4,4.6-6.4,7.1l-15.8-7.1L22.5,94.1"/>
<path class="st0" d="M161.7,118.8c2.9-2.7,5.8-5.1,8.6-7.1c-10.8-21.8-33.2-36.7-59.1-36.7c-27.9,0-51.8,17.4-61.4,41.9l8.9,7.4
	c7-22.3,27.9-38.5,52.5-38.5C133.8,85.7,153.2,99.3,161.7,118.8z"/>
<path class="st0" d="M118.4,194.9c8.7,0.3,17.1,2.3,24.7,5.5V141l0.6-0.9c4.9-7.3,9.9-13.4,14.9-18.3c-7.6-18.8-25.9-32-47.4-32
	C87.8,89.7,68,105.5,62,127l-3,26.3h3.6l4.3-12.9h25.4l-2.4,9.1c-1.1,4.2-4.1,7.1-8.6,7.8c-11.2,1.7-11.2,1.8-11.2,1.8v0
	c-4.4,0.7-8.2,4.7-8.8,9l-8.6,61.1l3.3,0c11.3-19.3,31.6-32.7,55.1-34.3h0c7.3-5,12.1-13.4,12.1-22.9c0-2.9-0.4-5.6-1.2-8.2l0-0.1
	c2,3.9,3.2,8.3,3.2,12.9C125.1,183.7,122.6,190,118.4,194.9z"/>
<path class="st0" d="M253,45.7l12.1-4.9l8.8,15.4c1.4-0.3,2.9-0.7,4.4-0.9l1.5-14.5c-27.6-22.4-60.4-29.2-70.2-30.7L202.8,0
	l-6.7,10.1c-9.8,1.5-42.8,8.4-70.5,30.9l1.4,14.3c1.5,0.3,2.9,0.6,4.4,0.9l8.8-15.4l12.3,5c24.7-17.2,44-17.3,44-17.3l6.3,10.1
	l6.3-10.1C209.1,28.5,228.4,28.7,253,45.7z"/>
</svg>
