<?xml version="1.0" encoding="utf-8"?>
<!-- Generator: Adobe Illustrator 21.0.0, SVG Export Plug-In . SVG Version: 6.00 Build 0)  -->
<svg version="1.1" id="Layer_1" xmlns="http://www.w3.org/2000/svg" xmlns:xlink="http://www.w3.org/1999/xlink" x="0px" y="0px"
	 viewBox="0 0 322.6 323.2" style="enable-background:new 0 0 322.6 323.2;" xml:space="preserve">
<style type="text/css">
	.st0{fill:#FFFFFF;}
</style>
<g id="Layer_1_1_">
	<g>
		<path class="st0" d="M127.1,236.6c69.7,0,107.7-57.7,107.7-107.7c0-1.6,0-3.3-0.1-4.9c7.4-5.3,13.8-12,18.9-19.6
			c-6.7,3-14.1,5-21.7,5.9c7.8-4.7,13.8-12.1,16.7-20.9c-7.3,4.3-15.4,7.5-24,9.1c-6.9-7.3-16.8-12-27.6-12
			c-20.9,0-37.9,17-37.9,37.9c0,3,0.3,5.8,1,8.6c-31.5-1.6-59.3-16.7-78-39.5c-3.2,5.6-5.1,12.1-5.1,19c0,13.2,6.6,24.7,16.9,31.5
			c-6.2-0.2-12.1-1.9-17.2-4.7c0,0.2,0,0.3,0,0.5c0,18.3,13.1,33.7,30.4,37.1c-3.2,0.9-6.5,1.3-10,1.3c-2.4,0-4.8-0.2-7.1-0.7
			c4.8,15.1,18.8,25.9,35.4,26.3c-13,10.2-29.3,16.2-47.1,16.2c-3,0-6-0.2-9-0.5C85.8,230.3,105.7,236.6,127.1,236.6"/>
	</g>
</g>
</svg>
