<?xml version="1.0" encoding="utf-8"?>
<!-- Generator: Adobe Illustrator 21.0.0, SVG Export Plug-In . SVG Version: 6.00 Build 0)  -->
<svg version="1.1" id="Layer_1" xmlns="http://www.w3.org/2000/svg" xmlns:xlink="http://www.w3.org/1999/xlink" x="0px" y="0px"
	 viewBox="0 0 322.6 323.2" style="enable-background:new 0 0 322.6 323.2;" xml:space="preserve">
<style type="text/css">
	.st0{opacity:0.2;}
	.st1{fill:#FFFFFF;}
</style>
<g id="Layer_1_1_">
	<g>
		<g>
			<polyline class="st0" points="189.8,163.1 139.3,129.3 196.9,159.4 189.8,163.1 			"/>
			<path class="st1" d="M139.3,189.2v-60l57.6,30.1L139.3,189.2L139.3,189.2z M265.9,119c0,0-2.1-14.7-8.5-21.2
				c-8.1-8.5-17.2-8.5-21.4-9c-29.9-2.1-74.6-2.1-74.6-2.1h-0.1c0,0-44.8,0-74.6,2.1c-4.1,0.5-13.3,0.5-21.4,9
				c-6.4,6.5-8.5,21.2-8.5,21.2s-2.1,17.2-2.1,34.5v16.2c0,17.2,2.1,34.5,2.1,34.5s2.1,14.7,8.5,21.2c8.1,8.5,18.8,8.2,23.5,9.1
				c17.1,1.6,72.5,2.1,72.5,2.1s44.9-0.1,74.7-2.2c4.1-0.5,13.3-0.5,21.4-9c6.4-6.5,8.5-21.2,8.5-21.2s2.1-17.2,2.1-34.5v-16.2
				C268,136.2,265.9,119,265.9,119L265.9,119z"/>
		</g>
	</g>
</g>
</svg>
